<svg xmlns="http://www.w3.org/2000/svg" width="48.5" height="55.526" viewBox="0 0 48.5 55.526">
  <g id="Layer_73" transform="translate(-16.196)">
    <g id="Group_3076" data-name="Group 3076" transform="translate(16.196 0)">
      <g id="Group_2964" data-name="Group 2964" transform="translate(13.625 29.263)">
        <g id="Group_2963" data-name="Group 2963">
          <path id="Path_10451" data-name="Path 10451" d="M86.8,134.916a8.007,8.007,0,0,1-7.437,0v1.314a2.783,2.783,0,0,1-.345,1.34l3.15,3.312a.457.457,0,0,1,.124.341c.222.018.445.031.671.031a7.975,7.975,0,0,0,.9-.056h0a.458.458,0,0,1,.126-.317l3.15-3.312a2.783,2.783,0,0,1-.345-1.34v-1.314Z" transform="translate(-79.014 -134.916)" fill="#f9d0b4"/>
        </g>
      </g>
      <g id="Group_2966" data-name="Group 2966" transform="translate(9.617 11.995)">
        <g id="Group_2965" data-name="Group 2965">
          <path id="Path_10452" data-name="Path 10452" d="M75.523,55.761a1.479,1.479,0,0,0-1.988-.132,8.106,8.106,0,0,1-9.863-.005,1.478,1.478,0,0,0-1.984.135l0,0a4.173,4.173,0,0,0-1.153,2.88v6.774a8.072,8.072,0,1,0,16.144,0V58.642a4.173,4.173,0,0,0-1.153-2.88Z" transform="translate(-60.533 -55.304)" fill="#f9d0b4"/>
        </g>
      </g>
      <g id="Group_2968" data-name="Group 2968" transform="translate(25.74 15.955)">
        <g id="Group_2967" data-name="Group 2967">
          <path id="Path_10453" data-name="Path 10453" d="M135.407,73.561a3.4,3.4,0,0,0-.518.041v6.111c0,.182-.008.362-.02.541a3.368,3.368,0,1,0,.538-6.693Z" transform="translate(-134.869 -73.561)" fill="#f9d0b4"/>
        </g>
      </g>
      <g id="Group_2970" data-name="Group 2970" transform="translate(5.728 15.955)">
        <g id="Group_2969" data-name="Group 2969">
          <path id="Path_10454" data-name="Path 10454" d="M46.5,79.713V73.6a3.371,3.371,0,1,0,.02,6.652h0C46.5,80.075,46.5,79.895,46.5,79.713Z" transform="translate(-42.607 -73.561)" fill="#f9d0b4"/>
        </g>
      </g>
      <g id="Group_2972" data-name="Group 2972" transform="translate(7.402 3.82)">
        <g id="Group_2971" data-name="Group 2971">
          <path id="Path_10455" data-name="Path 10455" d="M68.651,22.861a.5.5,0,0,1-.508-.479c-.062-4.5-5.2-5.343-10.313-4.459a9.044,9.044,0,0,0-7.506,8.91v3.375a3.336,3.336,0,0,1,2.214-.421v-.663a4.174,4.174,0,0,1,1.153-2.88l0,0a1.478,1.478,0,0,1,1.984-.135,8.106,8.106,0,0,0,9.863.005,1.479,1.479,0,0,1,1.988.132,4.173,4.173,0,0,1,1.153,2.88v.663a3.334,3.334,0,0,1,2.232.431V27.448c0-4.028-1.454-4.587-2.262-4.587Z" transform="translate(-50.323 -17.611)" fill="#5b5d60"/>
        </g>
      </g>
      <g id="Group_2974" data-name="Group 2974" transform="translate(9.074 11.452)">
        <g id="Group_2973" data-name="Group 2973">
          <path id="Path_10456" data-name="Path 10456" d="M66.647,72.067a8.624,8.624,0,0,1-8.614-8.614V56.679a4.7,4.7,0,0,1,1.3-3.254,2.016,2.016,0,0,1,2.714-.19,7.564,7.564,0,0,0,9.194.006,2.017,2.017,0,0,1,2.715.185h0a4.7,4.7,0,0,1,1.3,3.254v6.774a8.624,8.624,0,0,1-8.614,8.614ZM60.793,53.883a.921.921,0,0,0-.67.287,3.617,3.617,0,0,0-1.006,2.509v6.774a7.53,7.53,0,1,0,15.059,0V56.679a3.616,3.616,0,0,0-1-2.506h0a.936.936,0,0,0-1.26-.08,8.649,8.649,0,0,1-10.532,0A.953.953,0,0,0,60.793,53.883Z" transform="translate(-58.033 -52.798)"/>
        </g>
      </g>
      <g id="Group_2976" data-name="Group 2976" transform="translate(25.395 15.412)">
        <g id="Group_2975" data-name="Group 2975">
          <path id="Path_10457" data-name="Path 10457" d="M134.163,78.884a3.573,3.573,0,0,1-.394-.023.542.542,0,0,1,.118-1.078,2.5,2.5,0,0,0,.276.016,2.828,2.828,0,1,0,0-5.656,2.776,2.776,0,0,0-.285.015.542.542,0,0,1-.112-1.079,3.849,3.849,0,0,1,.4-.021,3.912,3.912,0,0,1,0,7.825Z" transform="translate(-133.28 -71.059)"/>
        </g>
      </g>
      <g id="Group_2978" data-name="Group 2978" transform="translate(5.186 15.413)">
        <g id="Group_2977" data-name="Group 2977">
          <path id="Path_10458" data-name="Path 10458" d="M44.02,78.886a3.912,3.912,0,0,1,0-7.825,3.745,3.745,0,0,1,.393.021A.542.542,0,1,1,44.3,72.16a2.747,2.747,0,0,0-.281-.015,2.828,2.828,0,0,0,0,5.656,2.512,2.512,0,0,0,.3-.019.542.542,0,1,1,.128,1.077,3.6,3.6,0,0,1-.428.026Z" transform="translate(-40.108 -71.061)"/>
        </g>
      </g>
      <g id="Group_2980" data-name="Group 2980" transform="translate(15.076 23.696)">
        <g id="Group_2979" data-name="Group 2979">
          <path id="Path_10459" data-name="Path 10459" d="M88.435,111.274a3.4,3.4,0,0,1-2.6-1.131.542.542,0,1,1,.831-.7,2.482,2.482,0,0,0,3.543,0,.542.542,0,0,1,.831.7A3.4,3.4,0,0,1,88.435,111.274Z" transform="translate(-85.706 -109.252)"/>
        </g>
      </g>
      <g id="Group_2982" data-name="Group 2982" transform="translate(20.363 18.613)">
        <g id="Group_2981" data-name="Group 2981">
          <circle id="Ellipse_24" data-name="Ellipse 24" cx="1.084" cy="1.084" r="1.084"/>
        </g>
      </g>
      <g id="Group_2984" data-name="Group 2984" transform="translate(13.079 18.613)">
        <g id="Group_2983" data-name="Group 2983">
          <circle id="Ellipse_25" data-name="Ellipse 25" cx="1.084" cy="1.084" r="1.084"/>
        </g>
      </g>
      <g id="Group_2986" data-name="Group 2986" transform="translate(6.86 3.28)">
        <g id="Group_2985" data-name="Group 2985">
          <path id="Path_10460" data-name="Path 10460" d="M48.366,28.665a.542.542,0,0,1-.542-.542V24.884a9.566,9.566,0,0,1,7.956-9.445c4.058-.7,7.437-.229,9.271,1.293a4.647,4.647,0,0,1,1.676,3.638c1.051.014,2.772.713,2.772,5.129v2.566a.542.542,0,1,1-1.084,0V25.5c0-2.57-.627-4.044-1.72-4.044a1.043,1.043,0,0,1-1.051-1.014,3.62,3.62,0,0,0-1.286-2.874c-1.589-1.319-4.648-1.705-8.393-1.058a8.484,8.484,0,0,0-7.056,8.376v3.239A.542.542,0,0,1,48.366,28.665Z" transform="translate(-47.824 -15.122)"/>
        </g>
      </g>
      <g id="Group_2988" data-name="Group 2988" transform="translate(0.542 32.572)">
        <g id="Group_2987" data-name="Group 2987">
          <path id="Path_10461" data-name="Path 10461" d="M18.7,171.336,19.75,156.6a3.838,3.838,0,0,1,2.326-3.269l7.3-3.108a.67.67,0,0,1,.913.456l5.548,21.9H19.861a1.165,1.165,0,0,1-1.162-1.248Z" transform="translate(-18.696 -150.173)" fill="#02385a"/>
        </g>
      </g>
      <g id="Group_2990" data-name="Group 2990" transform="translate(17.688 32.572)">
        <g id="Group_2989" data-name="Group 2989">
          <path id="Path_10462" data-name="Path 10462" d="M114.122,160.563h-.873a.556.556,0,0,1-.556-.556v-1.3a.541.541,0,0,0-.4-.523,7.661,7.661,0,0,1-1.813-.752.541.541,0,0,0-.652.088l-.918.917a.556.556,0,0,1-.787,0l-1.5-1.5a.556.556,0,0,1,0-.787l.918-.918a.541.541,0,0,0,.088-.652,7.655,7.655,0,0,1-.752-1.813.541.541,0,0,0-.523-.4h-1.3a.556.556,0,0,1-.556-.556v-1.46l-.289-.123a.67.67,0,0,0-.913.456l-5.548,21.9h15.981a1.165,1.165,0,0,0,1.162-1.248Z" transform="translate(-97.748 -150.175)" fill="#02385a"/>
        </g>
      </g>
      <g id="Group_2992" data-name="Group 2992" transform="translate(28.868 39.762)">
        <g id="Group_2991" data-name="Group 2991">
          <path id="Path_10463" data-name="Path 10463" d="M154.486,186.522h-.873a.556.556,0,0,1-.556-.556v-1.3a.541.541,0,0,0-.4-.523,7.662,7.662,0,0,1-1.813-.752.536.536,0,0,0-.289-.069,5.61,5.61,0,0,0-1.264,3.546v11.675h4.8a1.165,1.165,0,0,0,1.162-1.248Z" transform="translate(-149.292 -183.324)" fill="#5c85b9"/>
        </g>
      </g>
      <g id="Group_2994" data-name="Group 2994" transform="translate(0.542 36.977)">
        <g id="Group_2993" data-name="Group 2993">
          <path id="Path_10464" data-name="Path 10464" d="M24.662,176.815a5.611,5.611,0,0,0-1.775-4.095L20.5,170.484a3.833,3.833,0,0,0-.75,2.026L18.7,187.242a1.165,1.165,0,0,0,1.162,1.248h4.8Z" transform="translate(-18.696 -170.484)" fill="#5c85b9"/>
        </g>
      </g>
      <g id="Group_2996" data-name="Group 2996" transform="translate(9.663 32.572)">
        <g id="Group_2995" data-name="Group 2995">
          <path id="Path_10465" data-name="Path 10465" d="M63.225,150.684a.67.67,0,0,0-.913-.456l-1.564.666v8.793a.4.4,0,0,0,.31.39l2.043.472a.4.4,0,0,1,.278.548l-.926,2.161a1.06,1.06,0,0,0,.013.865l3.936,8.463h2.371Z" transform="translate(-60.748 -150.174)" fill="#5c85b9"/>
        </g>
      </g>
      <g id="Group_2998" data-name="Group 2998" transform="translate(17.688 32.572)">
        <g id="Group_2997" data-name="Group 2997">
          <path id="Path_10466" data-name="Path 10466" d="M105.054,152.367a.556.556,0,0,1-.556-.556v-1.46l-.289-.123a.67.67,0,0,0-.913.456l-5.548,21.9h2.371l3.936-8.464a1.06,1.06,0,0,0,.013-.865l-.926-2.161a.4.4,0,0,1,.278-.547l2.043-.472a.4.4,0,0,0,.31-.39v-7.32Z" transform="translate(-97.748 -150.175)" fill="#5c85b9"/>
        </g>
      </g>
      <g id="Group_3000" data-name="Group 3000" transform="translate(11.724 31.526)">
        <g id="Group_2999" data-name="Group 2999">
          <path id="Path_10467" data-name="Path 10467" d="M70.665,146.905l.766,3.025,1.36,1.646a.494.494,0,0,0,.744.02l1.769-1.917a.46.46,0,0,0,0-.629l-3.4-3.577a.406.406,0,0,0-.568-.02l-1.081.987A.664.664,0,0,1,70.665,146.905Z" transform="translate(-70.249 -145.348)" fill="#edf4fc"/>
        </g>
      </g>
      <g id="Group_3002" data-name="Group 3002" transform="translate(18.474 31.526)">
        <g id="Group_3001" data-name="Group 3001">
          <path id="Path_10468" data-name="Path 10468" d="M103.263,151.6a.494.494,0,0,0,.744-.02l1.36-1.646.766-3.025a.664.664,0,0,1,.416-.463l-1.081-.987a.406.406,0,0,0-.568.02l-3.4,3.577a.46.46,0,0,0,0,.629Z" transform="translate(-101.372 -145.349)" fill="#edf4fc"/>
        </g>
      </g>
      <g id="Group_3005" data-name="Group 3005" transform="translate(12.907 36.107)">
        <g id="Group_3004" data-name="Group 3004">
          <g id="Group_3003" data-name="Group 3003">
            <path id="Path_10469" data-name="Path 10469" d="M83.905,168.118a.494.494,0,0,1-.744.02l-.948-1.027a2.107,2.107,0,0,1-3.458,0l-.948,1.027a.494.494,0,0,1-.744-.02l-1.36-1.646,4.782,18.876,4.782-18.876Z" transform="translate(-75.702 -166.472)" fill="#dae6f1"/>
          </g>
        </g>
      </g>
      <g id="Group_3007" data-name="Group 3007" transform="translate(15.604 37.344)">
        <g id="Group_3006" data-name="Group 3006">
          <path id="Path_10470" data-name="Path 10470" d="M90.193,189.706l.083-.11,2.029-8.011-1-9.41a2.1,2.1,0,0,1-2.178,0l-1,9.41Z" transform="translate(-88.136 -172.175)" fill="#1eaaad"/>
        </g>
      </g>
      <g id="Group_3010" data-name="Group 3010" transform="translate(15.96 35.545)">
        <g id="Group_3009" data-name="Group 3009">
          <g id="Group_3008" data-name="Group 3008">
            <path id="Path_10471" data-name="Path 10471" d="M92.415,164.191a.459.459,0,0,1-.122-.313,8.028,8.028,0,0,1-.9.056c-.226,0-.449-.013-.671-.031a.456.456,0,0,1-.12.288l-.821.889a2.107,2.107,0,0,0,3.458,0Z" transform="translate(-89.778 -163.878)" fill="#fc657e"/>
          </g>
        </g>
      </g>
      <g id="Group_3012" data-name="Group 3012" transform="translate(0 32.03)">
        <g id="Group_3011" data-name="Group 3011">
          <path id="Path_10472" data-name="Path 10472" d="M33.885,171.169H17.9a1.707,1.707,0,0,1-1.7-1.829l1.051-14.732a4.36,4.36,0,0,1,2.655-3.73l7.3-3.108a1.213,1.213,0,0,1,1.652.826l5.547,21.9a.542.542,0,0,1-.526.675Zm-16.6-1.751a.623.623,0,0,0,.621.667H33.188l-5.377-21.226a.127.127,0,0,0-.068-.087.125.125,0,0,0-.107,0l-7.3,3.108a3.281,3.281,0,0,0-2,2.807Z" transform="translate(-16.196 -147.674)"/>
        </g>
      </g>
      <g id="Group_3014" data-name="Group 3014" transform="translate(20.865 28.854)">
        <g id="Group_3013" data-name="Group 3013">
          <path id="Path_10473" data-name="Path 10473" d="M113.221,136.523a.542.542,0,0,1-.487-.3,3.345,3.345,0,0,1-.341-1.466v-1.18a.542.542,0,0,1,1.084,0v1.18a2.255,2.255,0,0,0,.23.988.542.542,0,0,1-.487.781Z" transform="translate(-112.393 -133.032)"/>
        </g>
      </g>
      <g id="Group_3016" data-name="Group 3016" transform="translate(16.429 35.01)">
        <g id="Group_3015" data-name="Group 3015">
          <path id="Path_10474" data-name="Path 10474" d="M93.083,162.547c-.2,0-.405-.009-.642-.027a.542.542,0,1,1,.083-1.081c.208.016.391.024.558.024a7.33,7.33,0,0,0,.779-.046.542.542,0,0,1,.115,1.078A8.294,8.294,0,0,1,93.083,162.547Z" transform="translate(-91.941 -161.413)"/>
        </g>
      </g>
      <g id="Group_3018" data-name="Group 3018" transform="translate(13.17 28.87)">
        <g id="Group_3017" data-name="Group 3017">
          <path id="Path_10475" data-name="Path 10475" d="M77.46,136.522a.542.542,0,0,1-.492-.77,2.226,2.226,0,0,0,.207-.939v-1.164a.542.542,0,0,1,1.084,0v1.164a3.3,3.3,0,0,1-.307,1.394A.543.543,0,0,1,77.46,136.522Z" transform="translate(-76.918 -133.106)"/>
        </g>
      </g>
      <g id="Group_3020" data-name="Group 3020" transform="translate(17.146 32.03)">
        <g id="Group_3019" data-name="Group 3019">
          <path id="Path_10476" data-name="Path 10476" d="M111.771,171.17H95.79a.542.542,0,0,1-.526-.675l5.548-21.9a1.212,1.212,0,0,1,1.651-.822l.288.123a.542.542,0,0,1,.33.5v1.46l1.31.014a1.085,1.085,0,0,1,1.046.8,7.128,7.128,0,0,0,.7,1.684,1.085,1.085,0,0,1-.174,1.306l-.917.918,1.5,1.524.937-.917a1.084,1.084,0,0,1,1.306-.174,7.133,7.133,0,0,0,1.685.7,1.086,1.086,0,0,1,.8,1.047v1.3l.886.014a.542.542,0,0,1,.541.5l.769,10.775a1.707,1.707,0,0,1-1.7,1.829Zm-15.285-1.084h15.284a.623.623,0,0,0,.621-.667l-.733-10.272h-.367a1.1,1.1,0,0,1-1.1-1.1v-1.3a8.218,8.218,0,0,1-1.939-.805l-.917.918a1.1,1.1,0,0,1-1.553,0l-1.5-1.5a1.1,1.1,0,0,1,0-1.554l.917-.917a8.219,8.219,0,0,1-.8-1.94l-1.3,0a1.1,1.1,0,0,1-1.1-1.1v-1.094a.115.115,0,0,0-.066.013.125.125,0,0,0-.067.084Z" transform="translate(-95.248 -147.675)"/>
        </g>
      </g>
      <g id="Group_3022" data-name="Group 3022" transform="translate(28.326 39.297)">
        <g id="Group_3021" data-name="Group 3021">
          <path id="Path_10477" data-name="Path 10477" d="M147.335,197.162a.542.542,0,0,1-.542-.542V185.189a6.177,6.177,0,0,1,1.32-3.8.542.542,0,1,1,.852.671,5.09,5.09,0,0,0-1.087,3.134V196.62A.542.542,0,0,1,147.335,197.162Z" transform="translate(-146.793 -181.178)"/>
        </g>
      </g>
      <g id="Group_3024" data-name="Group 3024" transform="translate(1.945 36.567)">
        <g id="Group_3023" data-name="Group 3023">
          <path id="Path_10478" data-name="Path 10478" d="M29.726,187.4a.542.542,0,0,1-.542-.542v-11.52a5.087,5.087,0,0,0-1.6-3.7l-2.247-2.1a.542.542,0,0,1,.742-.791l2.246,2.1a6.175,6.175,0,0,1,1.946,4.49v11.52a.542.542,0,0,1-.542.542Z" transform="translate(-25.163 -168.591)"/>
        </g>
      </g>
      <g id="Group_3026" data-name="Group 3026" transform="translate(9.121 32.968)">
        <g id="Group_3025" data-name="Group 3025">
          <path id="Path_10479" data-name="Path 10479" d="M64.373,174.4a.542.542,0,0,1-.492-.314l-3.865-8.309a1.605,1.605,0,0,1-.02-1.307l.86-2.005-1.877-.433a.938.938,0,0,1-.731-.918v-8.575a.542.542,0,0,1,1.084,0V161l1.933.446a.942.942,0,0,1,.654,1.29l-.926,2.161a.518.518,0,0,0,.007.422l3.865,8.309a.542.542,0,0,1-.491.771Z" transform="translate(-58.248 -152)"/>
        </g>
      </g>
      <g id="Group_3028" data-name="Group 3028" transform="translate(19.609 34.351)">
        <g id="Group_3027" data-name="Group 3027">
          <path id="Path_10480" data-name="Path 10480" d="M107.144,179.352a.542.542,0,0,1-.491-.771l3.845-8.266a.517.517,0,0,0,.006-.422l-.926-2.162a.942.942,0,0,1,.655-1.29l1.933-.446v-7.079a.542.542,0,0,1,1.084,0v7.192a.938.938,0,0,1-.731.918l-1.877.433.859,2.005a1.6,1.6,0,0,1-.02,1.307l-3.845,8.266a.542.542,0,0,1-.492.314Z" transform="translate(-106.602 -158.375)"/>
        </g>
      </g>
      <g id="Group_3030" data-name="Group 3030" transform="translate(11.242 30.986)">
        <g id="Group_3029" data-name="Group 3029">
          <path id="Path_10481" data-name="Path 10481" d="M71.431,150.349H71.4a1.036,1.036,0,0,1-.77-.376l-1.346-1.63a.542.542,0,1,1,.836-.691l1.312,1.588,1.68-1.82L69.856,144l-.923.842a.542.542,0,1,1-.731-.8l1.021-.932a.954.954,0,0,1,1.327.047l3.4,3.577a1,1,0,0,1,.01,1.37l-1.769,1.917a1.037,1.037,0,0,1-.762.333Z" transform="translate(-68.025 -142.859)"/>
        </g>
      </g>
      <g id="Group_3032" data-name="Group 3032" transform="translate(17.933 30.986)">
        <g id="Group_3031" data-name="Group 3031">
          <path id="Path_10482" data-name="Path 10482" d="M101.672,150.349a1.037,1.037,0,0,1-.762-.333L99.142,148.1a1,1,0,0,1,.01-1.37l3.4-3.577a.953.953,0,0,1,1.327-.047l1.029.94a.542.542,0,1,1-.731.8l-.931-.85-3.257,3.424,1.68,1.82,1.3-1.577a.542.542,0,1,1,.836.691l-1.338,1.619a1.037,1.037,0,0,1-.77.376Z" transform="translate(-98.877 -142.859)"/>
        </g>
      </g>
      <g id="Group_3034" data-name="Group 3034" transform="translate(18.248 36.922)">
        <g id="Group_3033" data-name="Group 3033">
          <path id="Path_10483" data-name="Path 10483" d="M101.846,180.544a.542.542,0,0,1-.539-.485l-.977-9.234a.542.542,0,1,1,1.079-.114l.977,9.234a.542.542,0,0,1-.482.6Z" transform="translate(-100.327 -170.227)"/>
        </g>
      </g>
      <g id="Group_3036" data-name="Group 3036" transform="translate(15.071 36.895)">
        <g id="Group_3035" data-name="Group 3035">
          <path id="Path_10484" data-name="Path 10484" d="M86.223,180.416a.574.574,0,0,1-.058,0,.542.542,0,0,1-.482-.6l.976-9.227a.542.542,0,1,1,1.079.114l-.976,9.227A.543.543,0,0,1,86.223,180.416Z" transform="translate(-85.68 -170.105)"/>
        </g>
      </g>
      <g id="Group_3039" data-name="Group 3039" transform="translate(15.531 36.35)">
        <g id="Group_3038" data-name="Group 3038">
          <g id="Group_3037" data-name="Group 3037">
            <path id="Path_10485" data-name="Path 10485" d="M89.959,169.431a2.646,2.646,0,0,1-2.03-.947.542.542,0,0,1,.83-.7,1.564,1.564,0,0,0,2.4,0,.542.542,0,0,1,.832.7A2.647,2.647,0,0,1,89.959,169.431Z" transform="translate(-87.802 -167.589)"/>
          </g>
        </g>
      </g>
      <g id="Group_3041" data-name="Group 3041" transform="translate(2.419 23.522)">
        <g id="Group_3040" data-name="Group 3040">
          <path id="Path_10486" data-name="Path 10486" d="M31.331,110.375a2.407,2.407,0,0,1-1.93-1.89.043.043,0,0,0-.086,0,2.407,2.407,0,0,1-1.93,1.89.042.042,0,0,0,0,.084,2.407,2.407,0,0,1,1.93,1.891.043.043,0,0,0,.086,0,2.408,2.408,0,0,1,1.93-1.891A.042.042,0,0,0,31.331,110.375Z" transform="translate(-27.349 -108.448)" fill="#f5c84c"/>
        </g>
      </g>
      <g id="Group_3043" data-name="Group 3043" transform="translate(33.081 16.798)">
        <g id="Group_3042" data-name="Group 3042">
          <path id="Path_10487" data-name="Path 10487" d="M171.251,78.674a1.532,1.532,0,0,1-1.228-1.2.028.028,0,0,0-.054,0,1.532,1.532,0,0,1-1.228,1.2.027.027,0,0,0,0,.053,1.532,1.532,0,0,1,1.228,1.2.028.028,0,0,0,.054,0,1.532,1.532,0,0,1,1.228-1.2A.027.027,0,0,0,171.251,78.674Z" transform="translate(-168.717 -77.448)" fill="#1eaaad"/>
        </g>
      </g>
      <g id="Group_3045" data-name="Group 3045" transform="translate(29.017 2.009)">
        <g id="Group_3044" data-name="Group 3044" transform="translate(0)">
          <path id="Path_10488" data-name="Path 10488" d="M150.662,10.453h.505V9.948a.685.685,0,0,1,1.369,0v.505h.505a.685.685,0,0,1,0,1.369h-.505v.505a.685.685,0,0,1-1.369,0v-.505h-.505a.685.685,0,0,1,0-1.369Z" transform="translate(-149.977 -9.263)" fill="#70d6f9"/>
        </g>
      </g>
      <g id="Group_3047" data-name="Group 3047" transform="translate(1.316 31.547)">
        <g id="Group_3046" data-name="Group 3046">
          <circle id="Ellipse_26" data-name="Ellipse 26" cx="0.732" cy="0.732" r="0.732" fill="#1eaaad"/>
        </g>
      </g>
      <g id="Group_3049" data-name="Group 3049" transform="translate(25.175 0)">
        <g id="Group_3048" data-name="Group 3048">
          <circle id="Ellipse_27" data-name="Ellipse 27" cx="0.732" cy="0.732" r="0.732" fill="#1eaaad"/>
        </g>
      </g>
      <g id="Group_3051" data-name="Group 3051" transform="translate(37.696 48.682)">
        <g id="Group_3050" data-name="Group 3050" transform="translate(0)">
          <circle id="Ellipse_28" data-name="Ellipse 28" cx="0.732" cy="0.732" r="0.732" fill="#fc657e"/>
        </g>
      </g>
      <g id="Group_3053" data-name="Group 3053" transform="translate(24.438 23.329)">
        <g id="Group_3052" data-name="Group 3052">
          <path id="Path_10489" data-name="Path 10489" d="M129.424,115.753h1.3a.541.541,0,0,0,.523-.4,7.652,7.652,0,0,1,.752-1.813.541.541,0,0,0-.088-.652l-.918-.918a.557.557,0,0,1,0-.787l1.5-1.5a.557.557,0,0,1,.787,0l.918.917a.541.541,0,0,0,.652.088,7.653,7.653,0,0,1,1.813-.752.541.541,0,0,0,.4-.523v-1.3a.556.556,0,0,1,.556-.556h2.128a.556.556,0,0,1,.556.556v1.3a.541.541,0,0,0,.4.523,7.653,7.653,0,0,1,1.813.752.541.541,0,0,0,.652-.088l.918-.917a.556.556,0,0,1,.787,0l1.5,1.5a.556.556,0,0,1,0,.787l-.918.918a.541.541,0,0,0-.088.652,7.655,7.655,0,0,1,.752,1.813.541.541,0,0,0,.523.4h1.3a.556.556,0,0,1,.556.556v2.128a.556.556,0,0,1-.556.556h-.915a.325.325,0,0,0-.044,0H145.67a.343.343,0,0,0-.343.343v.8a.334.334,0,0,1-.246.323,4.726,4.726,0,0,0-1.119.464.334.334,0,0,1-.4-.054l-.567-.567a.346.346,0,0,0-.086-.061,5.1,5.1,0,1,0-1.394,1.382.342.342,0,0,0,.065.095l.567.567a.334.334,0,0,1,.054.4,4.716,4.716,0,0,0-.464,1.12.334.334,0,0,1-.323.246h-.8a.343.343,0,0,0-.343.343v2.241a.526.526,0,0,1-.519.556H137.62a.556.556,0,0,1-.556-.556v-1.3a.541.541,0,0,0-.4-.523,7.662,7.662,0,0,1-1.813-.752.541.541,0,0,0-.652.088l-.918.917a.557.557,0,0,1-.787,0l-1.5-1.5a.556.556,0,0,1,0-.787l.918-.918A.541.541,0,0,0,132,121.2a7.654,7.654,0,0,1-.752-1.813.541.541,0,0,0-.523-.4h-1.3a.556.556,0,0,1-.556-.556v-2.128a.556.556,0,0,1,.556-.557Z" transform="translate(-128.868 -107.557)" fill="#1eaaad"/>
        </g>
      </g>
      <g id="Group_3055" data-name="Group 3055" transform="translate(29.152 28.043)">
        <g id="Group_3054" data-name="Group 3054">
          <path id="Path_10490" data-name="Path 10490" d="M155.7,139.494a5.1,5.1,0,1,1,4.222-2.237.342.342,0,0,0-.4.061l-.929.929a.342.342,0,0,0-.065.391A5.078,5.078,0,0,1,155.7,139.494Z" transform="translate(-150.6 -129.29)" fill="#f5c84c"/>
        </g>
      </g>
      <g id="Group_3057" data-name="Group 3057" transform="translate(35.838 34.761)">
        <g id="Group_3056" data-name="Group 3056">
          <path id="Path_10491" data-name="Path 10491" d="M193.2,165.323h-.8a.334.334,0,0,1-.323-.246,4.742,4.742,0,0,0-.464-1.12.334.334,0,0,1,.054-.4l.567-.567a.344.344,0,0,0,0-.486l-.929-.929a.344.344,0,0,0-.486,0l-.567.567a.334.334,0,0,1-.4.054,4.727,4.727,0,0,0-1.119-.464.334.334,0,0,1-.246-.323v-.8a.343.343,0,0,0-.343-.343h-1.314a.343.343,0,0,0-.343.343v.8a.334.334,0,0,1-.246.323,4.728,4.728,0,0,0-1.119.464.334.334,0,0,1-.4-.054l-.567-.567a.344.344,0,0,0-.486,0l-.929.929a.343.343,0,0,0,0,.486l.567.567a.334.334,0,0,1,.054.4,4.717,4.717,0,0,0-.464,1.12.334.334,0,0,1-.323.246h-.8a.343.343,0,0,0-.343.343v1.314a.343.343,0,0,0,.343.343h.8a.334.334,0,0,1,.323.246,4.736,4.736,0,0,0,.464,1.119.334.334,0,0,1-.054.4l-.567.567a.344.344,0,0,0,0,.486l.929.929a.344.344,0,0,0,.486,0l.567-.567a.334.334,0,0,1,.4-.054,4.736,4.736,0,0,0,1.119.464.334.334,0,0,1,.246.323v.8a.343.343,0,0,0,.343.343h1.314a.343.343,0,0,0,.343-.343v-.8a.334.334,0,0,1,.246-.323,4.736,4.736,0,0,0,1.119-.464.334.334,0,0,1,.4.054l.567.567a.344.344,0,0,0,.486,0l.929-.929a.344.344,0,0,0,0-.486l-.567-.567a.334.334,0,0,1-.054-.4,4.718,4.718,0,0,0,.464-1.119.334.334,0,0,1,.323-.246h.8a.343.343,0,0,0,.343-.343v-1.314A.343.343,0,0,0,193.2,165.323Z" transform="translate(-181.425 -160.263)" fill="#1eaaad"/>
        </g>
      </g>
      <g id="Group_3059" data-name="Group 3059" transform="translate(39.223 38.146)">
        <g id="Group_3058" data-name="Group 3058">
          <path id="Path_10492" data-name="Path 10492" d="M199.707,181.22a2.675,2.675,0,1,1,2.675-2.675A2.675,2.675,0,0,1,199.707,181.22Z" transform="translate(-197.032 -175.871)" fill="#02385a"/>
        </g>
      </g>
      <g id="Group_3061" data-name="Group 3061" transform="translate(32.41 29.823)">
        <g id="Group_3060" data-name="Group 3060">
          <circle id="Ellipse_29" data-name="Ellipse 29" cx="1.844" cy="1.844" r="1.844" fill="#f9d0b4"/>
        </g>
      </g>
      <g id="Group_3063" data-name="Group 3063" transform="translate(30.675 33.727)">
        <g id="Group_3062" data-name="Group 3062" transform="translate(0)">
          <path id="Path_10493" data-name="Path 10493" d="M159.473,155.5h3.458a1.855,1.855,0,0,1,1.85,1.85v.737l-.685.685a.343.343,0,0,0-.065.391,5.1,5.1,0,0,1-6.407-.611v-1.2A1.855,1.855,0,0,1,159.473,155.5Z" transform="translate(-157.623 -155.5)" fill="#02385a"/>
        </g>
      </g>
      <g id="Group_3065" data-name="Group 3065" transform="translate(35.295 34.218)">
        <g id="Group_3064" data-name="Group 3064" transform="translate(0)">
          <path id="Path_10494" data-name="Path 10494" d="M186.181,170.967h-1.314a.887.887,0,0,1-.886-.886v-.645a5.3,5.3,0,0,1-.953-.4l-.456.456a.887.887,0,0,1-1.252,0l-.929-.929a.886.886,0,0,1,0-1.252l.456-.456a5.276,5.276,0,0,1-.4-.953h-.645a.887.887,0,0,1-.886-.886v-1.314a.887.887,0,0,1,.886-.886h.645a5.285,5.285,0,0,1,.4-.953l-.456-.456a.887.887,0,0,1,0-1.252l.929-.929a.885.885,0,0,1,1.252,0l.456.456a5.271,5.271,0,0,1,.953-.4v-.645a.887.887,0,0,1,.886-.885h1.314a.887.887,0,0,1,.886.885v.645a5.272,5.272,0,0,1,.953.4l.456-.456a.887.887,0,0,1,1.252,0l.929.929a.887.887,0,0,1,0,1.252l-.456.456a5.273,5.273,0,0,1,.4.953h.645a.887.887,0,0,1,.886.886v1.314a.887.887,0,0,1-.886.886H190.6a5.271,5.271,0,0,1-.4.953l.456.456a.886.886,0,0,1,0,1.253l-.929.929a.887.887,0,0,1-1.252,0l-.457-.457a5.275,5.275,0,0,1-.953.4v.645a.887.887,0,0,1-.886.885Zm-1.115-1.084h.916v-.6a.878.878,0,0,1,.646-.846,4.2,4.2,0,0,0,.991-.411.878.878,0,0,1,1.056.141l.426.426.648-.648-.426-.426a.877.877,0,0,1-.141-1.056,4.183,4.183,0,0,0,.411-.991.878.878,0,0,1,.846-.646h.6v-.916h-.6a.878.878,0,0,1-.846-.646,4.194,4.194,0,0,0-.411-.991.878.878,0,0,1,.141-1.056l.426-.426-.648-.648-.426.426a.879.879,0,0,1-1.056.141,4.181,4.181,0,0,0-.991-.411.878.878,0,0,1-.646-.846v-.6h-.916v.6a.878.878,0,0,1-.646.846,4.2,4.2,0,0,0-.991.411.878.878,0,0,1-1.056-.14l-.426-.426-.648.648.426.426a.878.878,0,0,1,.14,1.057,4.2,4.2,0,0,0-.411.991.878.878,0,0,1-.846.646h-.6v.916h.6a.878.878,0,0,1,.846.646,4.173,4.173,0,0,0,.411.991.877.877,0,0,1-.141,1.056l-.426.426.648.647.426-.426a.879.879,0,0,1,1.057-.141,4.2,4.2,0,0,0,.991.411.878.878,0,0,1,.646.846ZM180.925,167h0Zm10.316-3.094h0Zm-10.316-2.178h0Z" transform="translate(-178.922 -157.762)"/>
        </g>
      </g>
      <g id="Group_3067" data-name="Group 3067" transform="translate(23.895 22.786)">
        <g id="Group_3066" data-name="Group 3066">
          <path id="Path_10495" data-name="Path 10495" d="M137.788,125.772H135.66a1.1,1.1,0,0,1-1.1-1.1v-1.3a8.211,8.211,0,0,1-1.939-.805l-.917.919a1.1,1.1,0,0,1-1.553,0l-1.5-1.5a1.1,1.1,0,0,1,0-1.554l.917-.917a8.229,8.229,0,0,1-.8-1.94l-1.3,0a1.1,1.1,0,0,1-1.1-1.1V114.35a1.1,1.1,0,0,1,1.1-1.1h1.3a8.2,8.2,0,0,1,.805-1.939l-.919-.917a1.1,1.1,0,0,1,0-1.553l1.5-1.5a1.1,1.1,0,0,1,1.553,0l.917.917a8.211,8.211,0,0,1,1.941-.8l0-1.3a1.1,1.1,0,0,1,1.1-1.1h2.128a1.1,1.1,0,0,1,1.1,1.1v1.3a8.227,8.227,0,0,1,1.939.805l.917-.918a1.1,1.1,0,0,1,1.553,0l1.5,1.5a1.1,1.1,0,0,1,0,1.554l-.917.917a8.223,8.223,0,0,1,.8,1.94l1.3,0a1.1,1.1,0,0,1,1.1,1.1v2.128a1.1,1.1,0,0,1-1.1,1.1h-.916a.542.542,0,1,1,0-1.084h.916L146,114.35l-1.31-.014a1.085,1.085,0,0,1-1.047-.8,7.125,7.125,0,0,0-.7-1.685,1.085,1.085,0,0,1,.175-1.306l.917-.917-1.5-1.524-.937.917a1.085,1.085,0,0,1-1.306.174,7.141,7.141,0,0,0-1.685-.7,1.086,1.086,0,0,1-.8-1.047v-1.3l-2.142-.014-.014,1.31a1.086,1.086,0,0,1-.8,1.047,7.109,7.109,0,0,0-1.685.7,1.086,1.086,0,0,1-1.306-.175l-.918-.917-1.524,1.5.918.938a1.086,1.086,0,0,1,.175,1.306,7.13,7.13,0,0,0-.7,1.685,1.085,1.085,0,0,1-1.046.8h-1.3l-.014,2.142,1.31.014a1.085,1.085,0,0,1,1.046.8,7.122,7.122,0,0,0,.7,1.685,1.086,1.086,0,0,1-.175,1.306l-.917.918,1.5,1.524.937-.917a1.085,1.085,0,0,1,1.306-.175,7.123,7.123,0,0,0,1.685.7,1.086,1.086,0,0,1,.8,1.047v1.3l2.118.014a.119.119,0,0,0,0-.014V123.8a.542.542,0,0,1,1.084,0v.872a1.069,1.069,0,0,1-1.061,1.1Z" transform="translate(-126.366 -105.056)"/>
        </g>
      </g>
      <g id="Group_3069" data-name="Group 3069" transform="translate(28.61 27.5)">
        <g id="Group_3068" data-name="Group 3068">
          <path id="Path_10496" data-name="Path 10496" d="M153.744,138.078a5.644,5.644,0,1,1,4.67-2.474.542.542,0,1,1-.9-.61,4.561,4.561,0,1,0-1.246,1.235.542.542,0,1,1,.6.9A5.617,5.617,0,0,1,153.744,138.078Z" transform="translate(-148.1 -126.79)" fill="#1eaaad"/>
        </g>
      </g>
      <g id="Group_3071" data-name="Group 3071" transform="translate(38.68 37.604)">
        <g id="Group_3070" data-name="Group 3070" transform="translate(0)">
          <path id="Path_10497" data-name="Path 10497" d="M197.748,179.8a3.217,3.217,0,1,1,3.217-3.217A3.22,3.22,0,0,1,197.748,179.8Zm0-5.349a2.132,2.132,0,1,0,2.133,2.132A2.135,2.135,0,0,0,197.748,174.455Z" transform="translate(-194.531 -173.371)"/>
        </g>
      </g>
      <g id="Group_3073" data-name="Group 3073" transform="translate(31.868 29.281)">
        <g id="Group_3072" data-name="Group 3072">
          <path id="Path_10498" data-name="Path 10498" d="M165.509,139.772a2.386,2.386,0,1,1,2.386-2.386A2.389,2.389,0,0,1,165.509,139.772Zm0-3.687a1.3,1.3,0,1,0,1.3,1.3A1.3,1.3,0,0,0,165.509,136.084Z" transform="translate(-163.123 -135)"/>
        </g>
      </g>
      <g id="Group_3075" data-name="Group 3075" transform="translate(30.133 33.185)">
        <g id="Group_3074" data-name="Group 3074">
          <path id="Path_10499" data-name="Path 10499" d="M155.665,156.967a.542.542,0,0,1-.542-.542v-1.033A2.4,2.4,0,0,1,157.515,153h3.458a2.4,2.4,0,0,1,2.392,2.392v.637a.542.542,0,0,1-1.084,0v-.637a1.309,1.309,0,0,0-1.308-1.308h-3.458a1.309,1.309,0,0,0-1.307,1.308v1.033A.542.542,0,0,1,155.665,156.967Z" transform="translate(-155.123 -153)"/>
        </g>
      </g>
    </g>
  </g>
</svg>
