<svg xmlns="http://www.w3.org/2000/svg" width="56.5" height="60.97" viewBox="0 0 56.5 60.97">
  <g id="Layer_1" transform="translate(-9.385 -0.001)">
    <g id="Group_2960" data-name="Group 2960" transform="translate(9.385 0.001)">
      <g id="Group_2878" data-name="Group 2878" transform="translate(0.595 57.279)">
        <g id="Group_2877" data-name="Group 2877">
          <path id="Path_10417" data-name="Path 10417" d="M66.266,240.5H12.814a.929.929,0,0,0-.929.929v1.239a.929.929,0,0,0,.929.929H66.266a.929.929,0,0,0,.929-.929v-1.239A.929.929,0,0,0,66.266,240.5Z" transform="translate(-11.885 -240.5)" fill="#1eaaad"/>
        </g>
      </g>
      <g id="Group_2880" data-name="Group 2880" transform="translate(35.094)">
        <g id="Group_2879" data-name="Group 2879">
          <path id="Path_10418" data-name="Path 10418" d="M159.8,1.468A1.854,1.854,0,0,1,158.3.026c0-.033-.067-.033-.067,0a1.854,1.854,0,0,1-1.476,1.465c-.033,0-.033.05,0,.067A1.854,1.854,0,0,1,158.258,3c0,.033.067.033.067,0A1.854,1.854,0,0,1,159.8,1.535c.033-.017.033-.067,0-.067Z" transform="translate(-156.735 -0.001)" fill="#70d6f9"/>
        </g>
      </g>
      <g id="Group_2882" data-name="Group 2882" transform="translate(48.399 39.519)">
        <g id="Group_2881" data-name="Group 2881">
          <path id="Path_10419" data-name="Path 10419" d="M215.982,167.242h-.548v-.548a.767.767,0,0,0-.762-.762.752.752,0,0,0-.762.762v.548h-.548a.767.767,0,0,0-.762.762.752.752,0,0,0,.762.762h.548v.548a.767.767,0,0,0,.762.762.752.752,0,0,0,.762-.762v-.548h.548a.767.767,0,0,0,.762-.762A.752.752,0,0,0,215.982,167.242Z" transform="translate(-212.6 -165.932)" fill="#1eaaad"/>
        </g>
      </g>
      <g id="Group_2884" data-name="Group 2884" transform="translate(7.875 15.321)">
        <g id="Group_2883" data-name="Group 2883">
          <path id="Path_10420" data-name="Path 10420" d="M46.82,66.44a2.643,2.643,0,0,1-2.12-2.072c0-.048-.1-.048-.1,0a2.643,2.643,0,0,1-2.12,2.072c-.048,0-.048.071,0,.1a2.643,2.643,0,0,1,2.12,2.072c0,.048.1.048.1,0a2.643,2.643,0,0,1,2.12-2.072C46.868,66.511,46.868,66.44,46.82,66.44Z" transform="translate(-42.45 -64.332)" fill="#1eaaad"/>
        </g>
      </g>
      <g id="Group_2886" data-name="Group 2886" transform="translate(48.113 48.188)">
        <g id="Group_2885" data-name="Group 2885">
          <path id="Path_10421" data-name="Path 10421" d="M212.21,202.332a.81.81,0,1,0,.81.81A.81.81,0,0,0,212.21,202.332Z" transform="translate(-211.4 -202.332)" fill="#f5c84c"/>
        </g>
      </g>
      <g id="Group_2888" data-name="Group 2888" transform="translate(12.865 10.32)">
        <g id="Group_2887" data-name="Group 2887" transform="translate(0)">
          <path id="Path_10422" data-name="Path 10422" d="M64.21,43.332a.81.81,0,1,0,.81.81A.81.81,0,0,0,64.21,43.332Z" transform="translate(-63.4 -43.332)" fill="#87d147"/>
        </g>
      </g>
      <g id="Group_2890" data-name="Group 2890" transform="translate(10.548 41.875)">
        <g id="Group_2889" data-name="Group 2889" transform="translate(0)">
          <path id="Path_10423" data-name="Path 10423" d="M57.537,189.029a.705.705,0,0,1,.71-.689h1.5a1.006,1.006,0,0,1-1.006-1.006v-11.51l-2.038.513a3.4,3.4,0,0,0-2.561,3.1l-.475,8.183a2.041,2.041,0,0,1,1.15,1.83v1.774h4.892A2.177,2.177,0,0,1,57.537,189.029Z" transform="translate(-53.672 -175.824)" fill="#1eaaad"/>
        </g>
      </g>
      <g id="Group_2892" data-name="Group 2892" transform="translate(39.873 41.875)">
        <g id="Group_2891" data-name="Group 2891">
          <path id="Path_10424" data-name="Path 10424" d="M176.839,191.228h6.251l-.684-11.787a3.4,3.4,0,0,0-2.561-3.1l-2.038-.513v11.51a1.006,1.006,0,0,1-1.006,1.006h1.5a.706.706,0,0,1,.71.689A2.177,2.177,0,0,1,176.839,191.228Z" transform="translate(-176.801 -175.825)" fill="#1eaaad"/>
        </g>
      </g>
      <g id="Group_2894" data-name="Group 2894" transform="translate(19.645 17.231)">
        <g id="Group_2893" data-name="Group 2893">
          <path id="Path_10425" data-name="Path 10425" d="M109.079,75.167a.461.461,0,0,0-.444-.452,8.958,8.958,0,0,1-6.182-2.231.463.463,0,0,0-.689.043c-3.143,3.952-7.779,3.395-9.338,3.068a.459.459,0,0,0-.555.444v6.928a8.626,8.626,0,0,0,4.621,7.618h7.967a8.626,8.626,0,0,0,4.621-7.618V75.3c0-.045,0-.09,0-.135Z" transform="translate(-91.871 -72.35)" fill="#f9d0b4"/>
        </g>
      </g>
      <g id="Group_2896" data-name="Group 2896" transform="translate(16.852 9.216)">
        <g id="Group_2895" data-name="Group 2895">
          <path id="Path_10426" data-name="Path 10426" d="M99.5,41.2c0-.212.011-.422.03-.629a4.81,4.81,0,0,0-3.771.53,4.92,4.92,0,0,0-4.215-2.406H89.024a8.908,8.908,0,0,0-8.882,8.882v3.98a3.568,3.568,0,0,1,2.793-.744V50.4a.459.459,0,0,1,.555-.444c1.559.326,6.195.884,9.338-3.068a.463.463,0,0,1,.689-.043A8.958,8.958,0,0,0,99.7,49.074a.461.461,0,0,1,.444.452c0,.045,0,.09,0,.135v1.151a3.569,3.569,0,0,1,3.044.964V47.285A6.865,6.865,0,0,1,99.5,41.2Z" transform="translate(-80.142 -38.695)" fill="#754e34"/>
        </g>
      </g>
      <g id="Group_2898" data-name="Group 2898" transform="translate(36.833 21.289)">
        <g id="Group_2897" data-name="Group 2897">
          <path id="Path_10427" data-name="Path 10427" d="M164.612,89.389a3.605,3.605,0,0,0-.552.044v6.514c0,.194-.009.386-.022.577a3.591,3.591,0,1,0,.574-7.135Z" transform="translate(-164.038 -89.389)" fill="#f9d0b4"/>
        </g>
      </g>
      <g id="Group_2900" data-name="Group 2900" transform="translate(15.501 21.289)">
        <g id="Group_2899" data-name="Group 2899">
          <path id="Path_10428" data-name="Path 10428" d="M78.615,95.946V89.432a3.594,3.594,0,1,0,.022,7.091h0c-.013-.191-.022-.383-.022-.577Z" transform="translate(-74.47 -89.388)" fill="#f9d0b4"/>
        </g>
      </g>
      <g id="Group_2902" data-name="Group 2902" transform="translate(39.873 52.72)">
        <g id="Group_2901" data-name="Group 2901">
          <path id="Path_10429" data-name="Path 10429" d="M176.839,225.918h6.251l-.264-4.559h-5.018v.665a1.006,1.006,0,0,1-1.006,1.006h1.5a.706.706,0,0,1,.71.689A2.177,2.177,0,0,1,176.839,225.918Z" transform="translate(-176.801 -221.359)" fill="#f9d0b4"/>
        </g>
      </g>
      <g id="Group_2904" data-name="Group 2904" transform="translate(10.548 52.72)">
        <g id="Group_2903" data-name="Group 2903" transform="translate(0)">
          <path id="Path_10430" data-name="Path 10430" d="M57.537,223.719a.705.705,0,0,1,.71-.689h1.5a1.006,1.006,0,0,1-1.006-1.006v-.665H53.728l-.055.955a2.041,2.041,0,0,1,1.15,1.83v1.774h4.892A2.177,2.177,0,0,1,57.537,223.719Z" transform="translate(-53.672 -221.359)" fill="#f9d0b4"/>
        </g>
      </g>
      <g id="Group_2906" data-name="Group 2906" transform="translate(25.565 29.293)">
        <g id="Group_2905" data-name="Group 2905">
          <path id="Path_10431" data-name="Path 10431" d="M122.367,123.133a.6.6,0,0,0-.839.074,2.629,2.629,0,0,1-3.75,0,.6.6,0,1,0-.913.765,3.812,3.812,0,0,0,5.575,0,.6.6,0,0,0-.074-.839Z" transform="translate(-116.726 -122.994)"/>
        </g>
      </g>
      <g id="Group_2908" data-name="Group 2908" transform="translate(30.964 24.239)">
        <g id="Group_2907" data-name="Group 2907">
          <circle id="Ellipse_21" data-name="Ellipse 21" cx="1.098" cy="1.098" r="1.098"/>
        </g>
      </g>
      <g id="Group_2910" data-name="Group 2910" transform="translate(23.59 24.239)">
        <g id="Group_2909" data-name="Group 2909">
          <circle id="Ellipse_22" data-name="Ellipse 22" cx="1.098" cy="1.098" r="1.098"/>
        </g>
      </g>
      <g id="Group_2912" data-name="Group 2912" transform="translate(40.511 41.337)">
        <g id="Group_2911" data-name="Group 2911">
          <path id="Path_10432" data-name="Path 10432" d="M185.041,177.687a3.973,3.973,0,0,0-3.011-3.648l-1.81-.456a.6.6,0,0,0-.291,1.155l1.81.456a2.789,2.789,0,0,1,2.113,2.561l.671,11.569a.6.6,0,0,0,.594.561h.035a.6.6,0,0,0,.56-.629Z" transform="translate(-179.48 -173.565)"/>
        </g>
      </g>
      <g id="Group_2914" data-name="Group 2914" transform="translate(9.964 41.335)">
        <g id="Group_2913" data-name="Group 2913" transform="translate(0)">
          <path id="Path_10433" data-name="Path 10433" d="M57.236,174.007a.6.6,0,0,0-.723-.432l-1.817.457a3.973,3.973,0,0,0-3.01,3.647l-.463,7.976a.6.6,0,0,0,.56.629h.035a.6.6,0,0,0,.594-.561l.463-7.977a2.788,2.788,0,0,1,2.112-2.56l1.817-.457A.6.6,0,0,0,57.236,174.007Z" transform="translate(-51.223 -173.556)"/>
        </g>
      </g>
      <g id="Group_2916" data-name="Group 2916" transform="translate(19.05 16.635)">
        <g id="Group_2915" data-name="Group 2915">
          <path id="Path_10434" data-name="Path 10434" d="M107.77,73.249a1.055,1.055,0,0,0-1.022-1.036,8.414,8.414,0,0,1-5.782-2.061,1.059,1.059,0,0,0-1.571.1,8.667,8.667,0,0,1-8.75,2.856,1.058,1.058,0,0,0-.885.215,1.045,1.045,0,0,0-.388.818V81.06a9.213,9.213,0,0,0,4.822,8.085.6.6,0,0,0,.57-1.046,8.023,8.023,0,0,1-4.2-7.039V74.3c1.637.313,6.4.8,9.674-3.2a9.553,9.553,0,0,0,6.344,2.3V81.06a8.023,8.023,0,0,1-4.2,7.039.6.6,0,1,0,.57,1.046,9.213,9.213,0,0,0,4.822-8.085V73.4c0-.049,0-.1,0-.146Z" transform="translate(-89.371 -69.849)"/>
        </g>
      </g>
      <g id="Group_2921" data-name="Group 2921" transform="translate(16.256 8.62)">
        <g id="Group_2918" data-name="Group 2918">
          <g id="Group_2917" data-name="Group 2917">
            <path id="Path_10435" data-name="Path 10435" d="M97.61,38.043a5.509,5.509,0,0,0-3.559.377A5.54,5.54,0,0,0,89.642,36.2H87.118a9.488,9.488,0,0,0-9.477,9.477v3.8a.6.6,0,0,0,1.191,0v-3.8a8.3,8.3,0,0,1,8.286-8.286h2.524a4.348,4.348,0,0,1,3.7,2.116.6.6,0,0,0,.817.2,4.326,4.326,0,0,1,3.177-.5.6.6,0,1,0,.27-1.16Z" transform="translate(-77.641 -36.196)"/>
          </g>
        </g>
        <g id="Group_2920" data-name="Group 2920" transform="translate(23.047 8.785)">
          <g id="Group_2919" data-name="Group 2919">
            <path id="Path_10436" data-name="Path 10436" d="M175,73.083a.6.6,0,0,0-.6.6v4.127a.6.6,0,1,0,1.191,0V73.678A.6.6,0,0,0,175,73.083Z" transform="translate(-174.409 -73.083)"/>
          </g>
        </g>
      </g>
      <g id="Group_2923" data-name="Group 2923" transform="translate(36.478 20.694)">
        <g id="Group_2922" data-name="Group 2922">
          <path id="Path_10437" data-name="Path 10437" d="M163.475,86.889q-.175,0-.345.015a.6.6,0,0,0,.1,1.187c.08-.007.162-.01.245-.01a3,3,0,1,1,0,5.994,2.587,2.587,0,0,1-.272-.015.6.6,0,1,0-.123,1.185,3.822,3.822,0,0,0,.395.021,4.188,4.188,0,1,0,0-8.376Z" transform="translate(-162.546 -86.889)"/>
        </g>
      </g>
      <g id="Group_2925" data-name="Group 2925" transform="translate(14.905 20.694)">
        <g id="Group_2924" data-name="Group 2924">
          <path id="Path_10438" data-name="Path 10438" d="M76.386,94.064c-.075.007-.152.01-.229.01a3,3,0,1,1,0-5.994c.079,0,.157,0,.234.01a.6.6,0,1,0,.1-1.187c-.109-.009-.219-.014-.331-.014a4.188,4.188,0,1,0,0,8.376c.113,0,.225-.005.336-.015a.6.6,0,0,0-.107-1.186Z" transform="translate(-71.969 -86.89)"/>
        </g>
      </g>
      <g id="Group_2927" data-name="Group 2927" transform="translate(40.366 52.124)">
        <g id="Group_2926" data-name="Group 2926">
          <path id="Path_10439" data-name="Path 10439" d="M184.124,218.859h-4.658a.6.6,0,0,0,0,1.191h4.658a.6.6,0,0,0,0-1.191Z" transform="translate(-178.871 -218.859)"/>
        </g>
      </g>
      <g id="Group_2929" data-name="Group 2929" transform="translate(10.197 52.124)">
        <g id="Group_2928" data-name="Group 2928" transform="translate(0)">
          <path id="Path_10440" data-name="Path 10440" d="M57.4,218.859H52.8a.6.6,0,0,0,0,1.191h4.6a.6.6,0,1,0,0-1.191Z" transform="translate(-52.201 -218.859)"/>
        </g>
      </g>
      <g id="Group_2931" data-name="Group 2931" transform="translate(15.621 35.465)">
        <g id="Group_2930" data-name="Group 2930">
          <path id="Path_10441" data-name="Path 10441" d="M99.226,148.91H75.981a1.006,1.006,0,0,0-1.006,1.006V166.83a1.006,1.006,0,0,0,1.006,1.006H99.227a1.006,1.006,0,0,0,1.006-1.006V149.916A1.006,1.006,0,0,0,99.226,148.91Z" transform="translate(-74.975 -148.91)" fill="#edf4fc"/>
        </g>
      </g>
      <g id="Group_2933" data-name="Group 2933" transform="translate(14.412 54.391)">
        <g id="Group_2932" data-name="Group 2932" transform="translate(0)">
          <path id="Path_10442" data-name="Path 10442" d="M96.864,228.377H70.609a.71.71,0,0,0-.71.71,2.177,2.177,0,0,0,2.177,2.177H95.4a2.177,2.177,0,0,0,2.177-2.177A.71.71,0,0,0,96.864,228.377Z" transform="translate(-69.899 -228.377)" fill="#dae6f1"/>
        </g>
      </g>
      <g id="Group_2935" data-name="Group 2935" transform="translate(25.962 44.333)">
        <g id="Group_2934" data-name="Group 2934">
          <path id="Path_10443" data-name="Path 10443" d="M122.374,186.144h-3.385a.6.6,0,1,0,0,1.191h3.385a.6.6,0,1,0,0-1.191Z" transform="translate(-118.394 -186.144)"/>
        </g>
      </g>
      <g id="Group_2938" data-name="Group 2938" transform="translate(15.026 34.87)">
        <g id="Group_2937" data-name="Group 2937">
          <g id="Group_2936" data-name="Group 2936">
            <path id="Path_10444" data-name="Path 10444" d="M97.322,146.41H74.076a1.6,1.6,0,0,0-1.6,1.6v16.914a1.6,1.6,0,0,0,1.6,1.6H97.322a1.6,1.6,0,0,0,1.6-1.6V148.011A1.6,1.6,0,0,0,97.322,146.41Zm.411,18.516a.411.411,0,0,1-.411.411H74.076a.411.411,0,0,1-.411-.411V148.011a.411.411,0,0,1,.411-.411H97.322a.411.411,0,0,1,.411.411v16.914Z" transform="translate(-72.475 -146.41)"/>
          </g>
        </g>
      </g>
      <g id="Group_2941" data-name="Group 2941" transform="translate(13.817 53.796)">
        <g id="Group_2940" data-name="Group 2940" transform="translate(0)">
          <g id="Group_2939" data-name="Group 2939">
            <path id="Path_10445" data-name="Path 10445" d="M94.96,225.877H68.7a1.307,1.307,0,0,0-1.305,1.305,2.776,2.776,0,0,0,2.772,2.773H93.493a2.776,2.776,0,0,0,2.772-2.773A1.307,1.307,0,0,0,94.96,225.877Zm-1.467,2.887H70.171a1.583,1.583,0,0,1-1.582-1.582.115.115,0,0,1,.115-.115H94.96a.115.115,0,0,1,.115.115A1.583,1.583,0,0,1,93.493,228.764Z" transform="translate(-67.399 -225.877)"/>
          </g>
        </g>
      </g>
      <g id="Group_2943" data-name="Group 2943" transform="translate(36.213 4.853)">
        <g id="Group_2942" data-name="Group 2942">
          <circle id="Ellipse_23" data-name="Ellipse 23" cx="6.867" cy="6.867" r="6.867" fill="#b2e26d"/>
        </g>
      </g>
      <g id="Group_2945" data-name="Group 2945" transform="translate(39.334 9.405)">
        <g id="Group_2944" data-name="Group 2944">
          <path id="Path_10446" data-name="Path 10446" d="M181.528,39.86a1.264,1.264,0,0,0-1.787,0l-2.028,2.028L176.7,40.872a1.264,1.264,0,0,0-1.787,1.787l1.91,1.91a1.264,1.264,0,0,0,1.788,0l2.922-2.922A1.265,1.265,0,0,0,181.528,39.86Z" transform="translate(-174.539 -39.49)" fill="#edf4fc"/>
        </g>
      </g>
      <g id="Group_2949" data-name="Group 2949" transform="translate(38.739 8.81)">
        <g id="Group_2948" data-name="Group 2948">
          <g id="Group_2947" data-name="Group 2947">
            <g id="Group_2946" data-name="Group 2946">
              <path id="Path_10447" data-name="Path 10447" d="M180.046,37.537a1.862,1.862,0,0,0-2.63,0l-1.607,1.607-.6-.6a1.859,1.859,0,1,0-2.63,2.629l1.91,1.91a1.859,1.859,0,0,0,2.63,0l2.922-2.922A1.861,1.861,0,0,0,180.046,37.537Zm-.842,1.788-2.922,2.922a.684.684,0,0,1-.946,0l-1.91-1.91a.669.669,0,0,1,.945-.946l1.016,1.016a.6.6,0,0,0,.842,0l2.028-2.028a.669.669,0,0,1,.946.946Z" transform="translate(-172.041 -36.993)"/>
            </g>
          </g>
        </g>
      </g>
      <g id="Group_2952" data-name="Group 2952" transform="translate(35.618 4.257)">
        <g id="Group_2951" data-name="Group 2951">
          <g id="Group_2950" data-name="Group 2950">
            <path id="Path_10448" data-name="Path 10448" d="M166.4,17.876a7.463,7.463,0,1,0,7.463,7.463A7.471,7.471,0,0,0,166.4,17.876Zm0,13.735a6.272,6.272,0,1,1,6.272-6.272A6.279,6.279,0,0,1,166.4,31.611Z" transform="translate(-158.936 -17.876)"/>
          </g>
        </g>
      </g>
      <g id="Group_2955" data-name="Group 2955" transform="translate(0 56.683)">
        <g id="Group_2954" data-name="Group 2954">
          <g id="Group_2953" data-name="Group 2953">
            <path id="Path_10449" data-name="Path 10449" d="M64.361,238H10.909a1.526,1.526,0,0,0-1.524,1.524v1.239a1.526,1.526,0,0,0,1.524,1.524H64.361a1.526,1.526,0,0,0,1.524-1.524v-1.239A1.526,1.526,0,0,0,64.361,238Zm.333,2.763a.334.334,0,0,1-.333.333H10.909a.334.334,0,0,1-.333-.333v-1.239a.334.334,0,0,1,.333-.333H64.361a.334.334,0,0,1,.333.333Z" transform="translate(-9.385 -238)"/>
          </g>
        </g>
      </g>
      <g id="Group_2959" data-name="Group 2959" transform="translate(3.481 52.873)">
        <g id="Group_2958" data-name="Group 2958">
          <g id="Group_2957" data-name="Group 2957">
            <g id="Group_2956" data-name="Group 2956">
              <path id="Path_10450" data-name="Path 10450" d="M30.18,222H26.632A2.635,2.635,0,0,0,24,224.632v1.774a.6.6,0,0,0,.6.6h7.621a.6.6,0,0,0,.6-.6v-1.774A2.635,2.635,0,0,0,30.18,222Zm1.441,3.811h-6.43v-1.178a1.443,1.443,0,0,1,1.441-1.441H30.18a1.443,1.443,0,0,1,1.441,1.441Z" transform="translate(-24 -222)"/>
            </g>
          </g>
        </g>
      </g>
    </g>
  </g>
</svg>
