<svg xmlns="http://www.w3.org/2000/svg" xmlns:xlink="http://www.w3.org/1999/xlink" width="141.773" height="57.124" viewBox="0 0 141.773 57.124">
  <defs>
    <clipPath id="clip-path">
      <path id="Path_10342" data-name="Path 10342" d="M361.732,329.659V339.77a.782.782,0,0,1-.766.776h-3.317a.733.733,0,0,1-.534-.232.818.818,0,0,1-.232-.543v-3.262l-2.386.427v2.835a3.179,3.179,0,0,0,3.153,3.162h3.317a3.179,3.179,0,0,0,3.153-3.162v-1.077h52.923a3.124,3.124,0,0,0,1.987-.678,2.945,2.945,0,0,0,1.94.678h.476a3.182,3.182,0,0,1,3.928,0h.485a3.1,3.1,0,0,0,2.221-.931,3.14,3.14,0,0,0,.931-2.22v-3.31l-2.386.427v2.883a.774.774,0,0,1-.766.765h-.485a.794.794,0,0,1-.534-.231.735.735,0,0,1-.232-.534v-3.31l-2.386.427v2.883a.775.775,0,0,1-.776.765h-.476a.775.775,0,0,1-.776-.765v-3.31l-2.386.427v2.883a.737.737,0,0,1-.765.765H390.084a.776.776,0,0,1-.776-.765v-.574a.817.817,0,0,1,.234-.544.725.725,0,0,1,.542-.232h4.347v-2.385h-4.347a3.181,3.181,0,0,0-3.162,3.162v.574a3.129,3.129,0,0,0,.088.765H364.118v-7.074Zm29.228-1.385a1.228,1.228,0,0,0,1.736,1.736,1.228,1.228,0,0,0-1.736-1.736m27.985.011a1.227,1.227,0,1,0,.862-.359,1.2,1.2,0,0,0-.862.359m3.608,0a1.227,1.227,0,0,0,0,1.735,1.227,1.227,0,0,0,1.736-1.735,1.228,1.228,0,0,0-1.736,0m3.328,0a1.228,1.228,0,1,0,.873-.359,1.2,1.2,0,0,0-.873.359m-5.609-15.215v12.315h8.738v-2.091h-6.223V313.069Zm-46.024-.113v4.9h-4.915v-4.9h-2.514v12.427h2.514v-5.432h4.915v5.432h2.494V312.957Zm-17.21.225a3.291,3.291,0,0,0-2.091,3.041c0,1.958,1.281,3.051,3.984,3.729q1.566.381,2,.536c.839.3,1.158.707,1.158,1.281,0,.931-.828,1.722-2.447,1.722a2.523,2.523,0,0,1-2.712-2.382l-2.439.236c.339,2.777,2,4.265,5.123,4.265a6.957,6.957,0,0,0,2.721-.463,3.636,3.636,0,0,0,2.269-3.379,3.721,3.721,0,0,0-.5-1.987c-.677-1.054-1.647-1.573-4.086-2.156a6.832,6.832,0,0,1-2.307-.829.955.955,0,0,1,.028-1.525,2.84,2.84,0,0,1,1.7-.452c1.421,0,2.061.528,2.288,1.808l2.5-.113c-.075-2.269-1.638-3.766-4.763-3.766a6.137,6.137,0,0,0-2.439.433M381.5,319.17c0-2.863,1.384-4.275,3.455-4.275s3.417,1.383,3.417,4.237c0,2.871-1.421,4.322-3.417,4.322s-3.455-1.47-3.455-4.284m-.856-4.812a6.451,6.451,0,0,0-1.733,4.9c0,3.954,2.353,6.345,6.044,6.345,3.653,0,6.017-2.409,6.017-6.412,0-4.029-2.392-6.439-6.045-6.439a5.492,5.492,0,0,0-4.283,1.609m15.138-.988a6.123,6.123,0,0,0-3.192,5.762,7.456,7.456,0,0,0,.734,3.3,5.777,5.777,0,0,0,5.564,3.163,8.315,8.315,0,0,0,5.31-1.92v-4.961h-5.4v2.109h2.873v1.563a5.051,5.051,0,0,1-2.938,1.064c-2.137,0-3.558-1.46-3.558-4.425,0-2.722,1.373-4.133,3.587-4.133a2.713,2.713,0,0,1,2.8,1.977l2.485-.471c-.49-2.269-2.221-3.653-5.281-3.653a6.459,6.459,0,0,0-2.984.622m12.907,5.8c0-2.863,1.384-4.275,3.455-4.275s3.417,1.383,3.417,4.237c0,2.871-1.421,4.322-3.417,4.322s-3.455-1.47-3.455-4.284m-.857-4.812a6.451,6.451,0,0,0-1.732,4.9c0,3.954,2.353,6.345,6.044,6.345,3.653,0,6.016-2.409,6.016-6.412,0-4.029-2.391-6.439-6.044-6.439a5.5,5.5,0,0,0-4.284,1.609" transform="translate(-354.496 -312.749)" fill="#fff"/>
    </clipPath>
    <clipPath id="clip-path-2">
      <path id="Path_10344" data-name="Path 10344" d="M454.612,296.544a5.209,5.209,0,0,0-5.21,5.21v16.594a5.21,5.21,0,1,0,10.421,0V301.754A5.209,5.209,0,0,0,454.612,296.544Zm-6.374,37.078a6.374,6.374,0,1,0,6.374-6.374,6.374,6.374,0,0,0-6.374,6.374Zm16.441,7.591-.058.036c-.084.053-.171.108-.256.159-.027.018-.057.036-.087.052-.095.058-.191.116-.288.17s-.184.107-.276.157c-.076.045-.152.085-.229.126s-.148.081-.223.12-.16.083-.241.122l-.14.071c-.289.144-.582.278-.88.4-.051.024-.1.047-.158.068h0c-.087.038-.174.074-.263.108-.1.044-.212.085-.318.126l-.192.072a.171.171,0,0,1-.032.011c-.107.039-.211.077-.318.113l-.184.064c-.115.038-.231.076-.346.112s-.244.074-.367.109c-.05.015-.1.028-.146.042l-.2.055-.2.055c-.142.036-.285.07-.428.1-.072.018-.144.034-.216.049-.049.012-.1.021-.148.031l-.31.063-.028.006c-.1.018-.193.037-.292.052s-.221.039-.333.056c-.065.012-.133.021-.2.031-.209.032-.42.058-.632.081l-.089.009q-.487.052-.986.078c-.1,0-.209.011-.313.013s-.218.008-.326.011l-.361,0c-.125,0-.25,0-.375,0-.1,0-.208,0-.312-.008s-.2-.008-.3-.013c-.152-.008-.3-.018-.453-.03q-.091,0-.181-.014c-.057,0-.115-.009-.173-.017-.082-.006-.163-.014-.244-.024s-.134-.013-.2-.024l-.134-.015c-.222-.029-.442-.06-.663-.1-.092-.014-.185-.031-.279-.047l-.122-.023c-.138-.025-.275-.052-.412-.082s-.255-.053-.381-.083-.221-.052-.332-.081q-.214-.052-.423-.11c-.1-.027-.191-.053-.286-.082-.074-.021-.147-.043-.219-.065l-.181-.058c-.138-.043-.273-.088-.408-.135a.321.321,0,0,1-.051-.017c-.135-.047-.272-.095-.406-.146-.2-.075-.4-.153-.6-.236l-.007,0c-.122-.05-.243-.1-.364-.155-.09-.039-.18-.078-.269-.121-.074-.032-.146-.065-.218-.1-.032-.015-.065-.031-.1-.047l-.2-.1c-.1-.05-.2-.1-.3-.153s-.2-.106-.3-.16c-.069-.036-.138-.074-.205-.113-.093-.05-.184-.1-.276-.157s-.192-.111-.287-.17c-.03-.017-.059-.034-.087-.052-.087-.051-.172-.106-.257-.159l-.02-.013-5.572,7.729.019.013a28.4,28.4,0,0,0,3.513,1.983c.152.071.3.143.459.212.1.047.211.095.315.139.083.038.168.074.251.109q.6.256,1.206.48c.063.025.125.047.186.069.154.057.307.111.463.165.3.106.61.205.917.3q.246.077.495.146c.163.047.33.092.495.138s.333.088.5.129q.47.117.946.215l.279.058.313.062c.165.031.33.06.495.088l.388.063.06.009c.078.013.156.025.235.034.168.025.337.047.505.069.081.012.16.021.242.03l.194.023c.07.008.14.014.211.021.13.014.261.026.391.038.077.007.154.014.232.019s.155.013.232.018a.42.42,0,0,0,.066,0c.084.007.167.013.253.017a.6.6,0,0,0,.066,0c.059,0,.117.008.178.009.134.008.268.015.4.02l.28.008c.052,0,.107,0,.16,0s.107,0,.16,0c.164,0,.327,0,.492,0s.328,0,.492,0c.053,0,.108,0,.16,0s.108,0,.16,0l.279-.008c.134,0,.268-.012.4-.02.06,0,.12,0,.179-.009a.614.614,0,0,0,.066,0c.085,0,.168-.009.251-.017a.424.424,0,0,0,.068,0c.077,0,.155-.011.232-.018s.154-.012.231-.019c.132-.012.262-.024.393-.038.07-.007.141-.013.211-.021l.195-.023c.082-.008.161-.018.242-.03.168-.021.337-.044.505-.069.078-.009.157-.021.235-.034l.06-.009.388-.063c.165-.027.33-.057.495-.088l.312-.062.28-.058q.475-.1.946-.215c.166-.042.333-.084.5-.129s.331-.09.495-.138.331-.095.493-.146q.461-.139.917-.3c.155-.053.31-.108.464-.165.062-.021.123-.044.186-.069q.61-.224,1.206-.48c.083-.036.168-.071.251-.109.1-.044.211-.091.315-.139.153-.069.307-.141.459-.212a28.482,28.482,0,0,0,3.513-1.983c.019-.012.037-.025.055-.038Zm11.377-34.284a4.76,4.76,0,1,0-7.214,6.211,18.751,18.751,0,0,1-3.086,27.33l5.566,7.721a28.264,28.264,0,0,0,4.734-41.263Zm-40.217,18.446a18.766,18.766,0,0,1,4.543-12.234,4.76,4.76,0,0,0-7.215-6.211,28.265,28.265,0,0,0,4.77,41.289L443.5,340.5A18.751,18.751,0,0,1,435.839,325.375Z" transform="translate(-426.319 -296.544)" fill="#fff"/>
    </clipPath>
  </defs>
  <g id="Group_2642" data-name="Group 2642" transform="translate(-354.496 -296.544)">
    <g id="Group_2639" data-name="Group 2639" transform="translate(354.496 315.764)">
      <path id="Path_10341" data-name="Path 10341" d="M361.732,329.659V339.77a.782.782,0,0,1-.766.776h-3.317a.733.733,0,0,1-.534-.232.818.818,0,0,1-.232-.543v-3.262l-2.386.427v2.835a3.179,3.179,0,0,0,3.153,3.162h3.317a3.179,3.179,0,0,0,3.153-3.162v-1.077h52.923a3.124,3.124,0,0,0,1.987-.678,2.945,2.945,0,0,0,1.94.678h.476a3.182,3.182,0,0,1,3.928,0h.485a3.1,3.1,0,0,0,2.221-.931,3.14,3.14,0,0,0,.931-2.22v-3.31l-2.386.427v2.883a.774.774,0,0,1-.766.765h-.485a.794.794,0,0,1-.534-.231.735.735,0,0,1-.232-.534v-3.31l-2.386.427v2.883a.775.775,0,0,1-.776.765h-.476a.775.775,0,0,1-.776-.765v-3.31l-2.386.427v2.883a.737.737,0,0,1-.765.765H390.084a.776.776,0,0,1-.776-.765v-.574a.817.817,0,0,1,.234-.544.725.725,0,0,1,.542-.232h4.347v-2.385h-4.347a3.181,3.181,0,0,0-3.162,3.162v.574a3.129,3.129,0,0,0,.088.765H364.118v-7.074Zm29.228-1.385a1.228,1.228,0,0,0,1.736,1.736,1.228,1.228,0,0,0-1.736-1.736m27.985.011a1.227,1.227,0,1,0,.862-.359,1.2,1.2,0,0,0-.862.359m3.608,0a1.227,1.227,0,0,0,0,1.735,1.227,1.227,0,0,0,1.736-1.735,1.228,1.228,0,0,0-1.736,0m3.328,0a1.228,1.228,0,1,0,.873-.359,1.2,1.2,0,0,0-.873.359m-5.609-15.215v12.315h8.738v-2.091h-6.223V313.069Zm-46.024-.113v4.9h-4.915v-4.9h-2.514v12.427h2.514v-5.432h4.915v5.432h2.494V312.957Zm-17.21.225a3.291,3.291,0,0,0-2.091,3.041c0,1.958,1.281,3.051,3.984,3.729q1.566.381,2,.536c.839.3,1.158.707,1.158,1.281,0,.931-.828,1.722-2.447,1.722a2.523,2.523,0,0,1-2.712-2.382l-2.439.236c.339,2.777,2,4.265,5.123,4.265a6.957,6.957,0,0,0,2.721-.463,3.636,3.636,0,0,0,2.269-3.379,3.721,3.721,0,0,0-.5-1.987c-.677-1.054-1.647-1.573-4.086-2.156a6.832,6.832,0,0,1-2.307-.829.955.955,0,0,1,.028-1.525,2.84,2.84,0,0,1,1.7-.452c1.421,0,2.061.528,2.288,1.808l2.5-.113c-.075-2.269-1.638-3.766-4.763-3.766a6.137,6.137,0,0,0-2.439.433M381.5,319.17c0-2.863,1.384-4.275,3.455-4.275s3.417,1.383,3.417,4.237c0,2.871-1.421,4.322-3.417,4.322s-3.455-1.47-3.455-4.284m-.856-4.812a6.451,6.451,0,0,0-1.733,4.9c0,3.954,2.353,6.345,6.044,6.345,3.653,0,6.017-2.409,6.017-6.412,0-4.029-2.392-6.439-6.045-6.439a5.492,5.492,0,0,0-4.283,1.609m15.138-.988a6.123,6.123,0,0,0-3.192,5.762,7.456,7.456,0,0,0,.734,3.3,5.777,5.777,0,0,0,5.564,3.163,8.315,8.315,0,0,0,5.31-1.92v-4.961h-5.4v2.109h2.873v1.563a5.051,5.051,0,0,1-2.938,1.064c-2.137,0-3.558-1.46-3.558-4.425,0-2.722,1.373-4.133,3.587-4.133a2.713,2.713,0,0,1,2.8,1.977l2.485-.471c-.49-2.269-2.221-3.653-5.281-3.653a6.459,6.459,0,0,0-2.984.622m12.907,5.8c0-2.863,1.384-4.275,3.455-4.275s3.417,1.383,3.417,4.237c0,2.871-1.421,4.322-3.417,4.322s-3.455-1.47-3.455-4.284m-.857-4.812a6.451,6.451,0,0,0-1.732,4.9c0,3.954,2.353,6.345,6.044,6.345,3.653,0,6.016-2.409,6.016-6.412,0-4.029-2.391-6.439-6.044-6.439a5.5,5.5,0,0,0-4.284,1.609" transform="translate(-354.496 -312.749)" fill="#fff"/>
      <g id="Group_2638" data-name="Group 2638" clip-path="url(#clip-path)">
        <rect id="Rectangle_741" data-name="Rectangle 741" width="74.513" height="30.183" transform="translate(0 0)" fill="#fff"/>
      </g>
    </g>
    <g id="Group_2641" data-name="Group 2641" transform="translate(439.682 296.544)">
      <path id="Path_10343" data-name="Path 10343" d="M454.612,296.544a5.209,5.209,0,0,0-5.21,5.21v16.594a5.21,5.21,0,1,0,10.421,0V301.754A5.209,5.209,0,0,0,454.612,296.544Zm-6.374,37.078a6.374,6.374,0,1,0,6.374-6.374,6.374,6.374,0,0,0-6.374,6.374Zm16.441,7.591-.058.036c-.084.053-.171.108-.256.159-.027.018-.057.036-.087.052-.095.058-.191.116-.288.17s-.184.107-.276.157c-.076.045-.152.085-.229.126s-.148.081-.223.12-.16.083-.241.122l-.14.071c-.289.144-.582.278-.88.4-.051.024-.1.047-.158.068h0c-.087.038-.174.074-.263.108-.1.044-.212.085-.318.126l-.192.072a.171.171,0,0,1-.032.011c-.107.039-.211.077-.318.113l-.184.064c-.115.038-.231.076-.346.112s-.244.074-.367.109c-.05.015-.1.028-.146.042l-.2.055-.2.055c-.142.036-.285.07-.428.1-.072.018-.144.034-.216.049-.049.012-.1.021-.148.031l-.31.063-.028.006c-.1.018-.193.037-.292.052s-.221.039-.333.056c-.065.012-.133.021-.2.031-.209.032-.42.058-.632.081l-.089.009q-.487.052-.986.078c-.1,0-.209.011-.313.013s-.218.008-.326.011l-.361,0c-.125,0-.25,0-.375,0-.1,0-.208,0-.312-.008s-.2-.008-.3-.013c-.152-.008-.3-.018-.453-.03q-.091,0-.181-.014c-.057,0-.115-.009-.173-.017-.082-.006-.163-.014-.244-.024s-.134-.013-.2-.024l-.134-.015c-.222-.029-.442-.06-.663-.1-.092-.014-.185-.031-.279-.047l-.122-.023c-.138-.025-.275-.052-.412-.082s-.255-.053-.381-.083-.221-.052-.332-.081q-.214-.052-.423-.11c-.1-.027-.191-.053-.286-.082-.074-.021-.147-.043-.219-.065l-.181-.058c-.138-.043-.273-.088-.408-.135a.321.321,0,0,1-.051-.017c-.135-.047-.272-.095-.406-.146-.2-.075-.4-.153-.6-.236l-.007,0c-.122-.05-.243-.1-.364-.155-.09-.039-.18-.078-.269-.121-.074-.032-.146-.065-.218-.1-.032-.015-.065-.031-.1-.047l-.2-.1c-.1-.05-.2-.1-.3-.153s-.2-.106-.3-.16c-.069-.036-.138-.074-.205-.113-.093-.05-.184-.1-.276-.157s-.192-.111-.287-.17c-.03-.017-.059-.034-.087-.052-.087-.051-.172-.106-.257-.159l-.02-.013-5.572,7.729.019.013a28.4,28.4,0,0,0,3.513,1.983c.152.071.3.143.459.212.1.047.211.095.315.139.083.038.168.074.251.109q.6.256,1.206.48c.063.025.125.047.186.069.154.057.307.111.463.165.3.106.61.205.917.3q.246.077.495.146c.163.047.33.092.495.138s.333.088.5.129q.47.117.946.215l.279.058.313.062c.165.031.33.06.495.088l.388.063.06.009c.078.013.156.025.235.034.168.025.337.047.505.069.081.012.16.021.242.03l.194.023c.07.008.14.014.211.021.13.014.261.026.391.038.077.007.154.014.232.019s.155.013.232.018a.42.42,0,0,0,.066,0c.084.007.167.013.253.017a.6.6,0,0,0,.066,0c.059,0,.117.008.178.009.134.008.268.015.4.02l.28.008c.052,0,.107,0,.16,0s.107,0,.16,0c.164,0,.327,0,.492,0s.328,0,.492,0c.053,0,.108,0,.16,0s.108,0,.16,0l.279-.008c.134,0,.268-.012.4-.02.06,0,.12,0,.179-.009a.614.614,0,0,0,.066,0c.085,0,.168-.009.251-.017a.424.424,0,0,0,.068,0c.077,0,.155-.011.232-.018s.154-.012.231-.019c.132-.012.262-.024.393-.038.07-.007.141-.013.211-.021l.195-.023c.082-.008.161-.018.242-.03.168-.021.337-.044.505-.069.078-.009.157-.021.235-.034l.06-.009.388-.063c.165-.027.33-.057.495-.088l.312-.062.28-.058q.475-.1.946-.215c.166-.042.333-.084.5-.129s.331-.09.495-.138.331-.095.493-.146q.461-.139.917-.3c.155-.053.31-.108.464-.165.062-.021.123-.044.186-.069q.61-.224,1.206-.48c.083-.036.168-.071.251-.109.1-.044.211-.091.315-.139.153-.069.307-.141.459-.212a28.482,28.482,0,0,0,3.513-1.983c.019-.012.037-.025.055-.038Zm11.377-34.284a4.76,4.76,0,1,0-7.214,6.211,18.751,18.751,0,0,1-3.086,27.33l5.566,7.721a28.264,28.264,0,0,0,4.734-41.263Zm-40.217,18.446a18.766,18.766,0,0,1,4.543-12.234,4.76,4.76,0,0,0-7.215-6.211,28.265,28.265,0,0,0,4.77,41.289L443.5,340.5A18.751,18.751,0,0,1,435.839,325.375Z" transform="translate(-426.319 -296.544)" fill="#fff"/>
      <g id="Group_2640" data-name="Group 2640" clip-path="url(#clip-path-2)">
        <rect id="Rectangle_742" data-name="Rectangle 742" width="57.277" height="64.287" transform="translate(-0.345 -5.37)" fill="#fff"/>
      </g>
    </g>
  </g>
</svg>
