<svg xmlns="http://www.w3.org/2000/svg" width="27.233" height="27.232" viewBox="0 0 27.233 27.232">
  <path id="Path_10352" data-name="Path 10352" d="M25.685,11.6c-.419-.309-.942-.7-1.011-.951a3.17,3.17,0,0,1,.407-1.389c.369-.848.751-1.726.327-2.457s-1.388-.849-2.315-.953a3.151,3.151,0,0,1-1.384-.33,3.16,3.16,0,0,1-.33-1.384c-.1-.927-.212-1.886-.953-2.315-.644-.374-1.6-.047-2.457.327a3.94,3.94,0,0,1-1.39.407c-.256-.069-.641-.592-.951-1.011C15.1.822,14.49,0,13.616,0S12.137.822,11.6,1.546c-.31.42-.7.944-1.057,1.023A4.077,4.077,0,0,1,9.263,2.15a2.994,2.994,0,0,0-2.456-.327c-.742.429-.85,1.388-.954,2.316a3.174,3.174,0,0,1-.329,1.384,3.163,3.163,0,0,1-1.384.329c-.928.1-1.889.213-2.316.953s-.041,1.608.327,2.457a3.158,3.158,0,0,1,.407,1.39c-.069.256-.591.642-1.011.951C.822,12.136,0,12.742,0,13.616S.822,15.1,1.548,15.63c.419.309.942.7,1.011.951a3.17,3.17,0,0,1-.407,1.389c-.369.848-.751,1.726-.327,2.457s1.388.849,2.315.953a3.151,3.151,0,0,1,1.384.33,3.16,3.16,0,0,1,.33,1.384c.1.927.212,1.886.953,2.315.641.373,1.595.047,2.456-.327a3.644,3.644,0,0,1,1.39-.407c.256.069.641.592.951,1.011.534.725,1.139,1.546,2.013,1.546s1.479-.822,2.013-1.546c.31-.42.7-.944,1.057-1.024a4.076,4.076,0,0,1,1.283.419c.863.374,1.816.7,2.456.328.742-.429.85-1.388.954-2.316a3.174,3.174,0,0,1,.329-1.384,3.16,3.16,0,0,1,1.384-.33c.928-.1,1.889-.212,2.316-.953s.041-1.608-.327-2.457a3.174,3.174,0,0,1-.407-1.389c.069-.256.591-.642,1.011-.951.725-.533,1.546-1.139,1.546-2.013S26.411,12.136,25.685,11.6ZM10.656,15.984a.592.592,0,0,1-.4.561.568.568,0,0,1-.187.031.593.593,0,0,1-.474-.237L7.1,13.024v2.96a.592.592,0,0,1-1.184,0V11.248a.592.592,0,0,1,1.066-.355l2.486,3.315v-2.96a.592.592,0,0,1,1.184,0Zm4.144-2.96a.592.592,0,1,1,0,1.184H13.024v1.184H14.8a.592.592,0,1,1,0,1.184H12.432a.592.592,0,0,1-.592-.592V11.248a.592.592,0,0,1,.592-.592H14.8a.592.592,0,1,1,0,1.184H13.024v1.184H14.8Zm7.678-1.633-1.184,4.736a.591.591,0,0,1-.552.448h-.024a.593.593,0,0,1-.562-.4l-.62-1.866-.622,1.867a.564.564,0,0,1-.585.4.592.592,0,0,1-.552-.448l-1.184-4.736a.592.592,0,0,1,1.148-.287l.69,2.764.541-1.623a.617.617,0,0,1,1.124,0l.541,1.623.69-2.764a.592.592,0,0,1,1.15.286Z" fill="#fff"/>
</svg>
