<svg xmlns="http://www.w3.org/2000/svg" width="15.495" height="15.495" viewBox="0 0 15.495 15.495">
  <path id="categories" d="M13.818,8.24v4.338a1.24,1.24,0,0,1-1.24,1.24H8.24A1.24,1.24,0,0,1,7,12.578V8.24A1.24,1.24,0,0,1,8.24,7h4.338A1.24,1.24,0,0,1,13.818,8.24ZM21.255,7H16.917a1.24,1.24,0,0,0-1.24,1.24v4.338a1.24,1.24,0,0,0,1.24,1.24h4.338a1.24,1.24,0,0,0,1.24-1.24V8.24A1.24,1.24,0,0,0,21.255,7Zm-8.677,8.677H8.24A1.24,1.24,0,0,0,7,16.917v4.338a1.24,1.24,0,0,0,1.24,1.24h4.338a1.24,1.24,0,0,0,1.24-1.24V16.917A1.24,1.24,0,0,0,12.578,15.677Zm6.508,0a3.409,3.409,0,1,0,3.409,3.409,3.409,3.409,0,0,0-3.409-3.409Z" transform="translate(-7 -7)" fill="#8f8f8f"/>
</svg>
