<svg id="Group_3708" data-name="Group 3708" xmlns="http://www.w3.org/2000/svg" width="20" height="16.923" viewBox="0 0 20 16.923">
  <path id="Path_10525" data-name="Path 10525" d="M3.769,8.273H6.846A1.591,1.591,0,0,0,8.385,9.909H9.923a1.591,1.591,0,0,0,1.538-1.636H22.231a.82.82,0,0,0,0-1.636H11.462A1.591,1.591,0,0,0,9.923,5H8.385A1.591,1.591,0,0,0,6.846,6.636H3.769a.82.82,0,0,0,0,1.636Z" transform="translate(-3 -5)" fill="#02385a"/>
  <path id="Path_10526" data-name="Path 10526" d="M22.231,14.636H17.615A1.591,1.591,0,0,0,16.077,13H14.538A1.591,1.591,0,0,0,13,14.636H3.769a.82.82,0,0,0,0,1.636H13a1.591,1.591,0,0,0,1.538,1.636h1.538a1.591,1.591,0,0,0,1.538-1.636h4.615a.82.82,0,0,0,0-1.636Z" transform="translate(-3 -6.993)" fill="#02385a"/>
  <path id="Path_10527" data-name="Path 10527" d="M22.231,22.636H11.462A1.591,1.591,0,0,0,9.923,21H8.385a1.591,1.591,0,0,0-1.538,1.636H3.769a.82.82,0,0,0,0,1.636H6.846a1.591,1.591,0,0,0,1.538,1.636H9.923a1.591,1.591,0,0,0,1.538-1.636H22.231a.82.82,0,0,0,0-1.636Z" transform="translate(-3 -8.986)" fill="#02385a"/>
</svg>
