<svg xmlns="http://www.w3.org/2000/svg" width="28" height="21.328" viewBox="0 0 28 21.328">
  <path id="Path_10502" data-name="Path 10502" d="M25.539,61H2.461A2.465,2.465,0,0,0,0,63.461V79.867a2.465,2.465,0,0,0,2.461,2.461H25.539A2.465,2.465,0,0,0,28,79.867V63.461A2.465,2.465,0,0,0,25.539,61Zm-.34,1.641L14.052,73.788,2.809,62.641ZM1.641,79.527V63.793l7.9,7.833Zm1.16,1.16,7.906-7.906,2.77,2.747a.82.82,0,0,0,1.158,0l2.7-2.7L25.2,80.688Zm23.559-1.16L18.5,71.664,26.359,63.8Z" transform="translate(0 -61)" fill="#27b4bb"/>
</svg>
