<svg xmlns="http://www.w3.org/2000/svg" xmlns:xlink="http://www.w3.org/1999/xlink" width="16" height="17.778" viewBox="0 0 16 17.778">
  <defs>
    <clipPath id="clip-path">
      <rect width="16" height="17.778" fill="none"/>
    </clipPath>
  </defs>
  <g id="Repeat_Grid_21" data-name="Repeat Grid 21" clip-path="url(#clip-path)">
    <g transform="translate(-1592.243 -583)">
      <path id="trash" d="M5.389,5.667H8.056V4.778A1.778,1.778,0,0,1,9.833,3h5.333a1.778,1.778,0,0,1,1.778,1.778v.889h2.667a.889.889,0,0,1,0,1.778h-.889V19a1.778,1.778,0,0,1-1.778,1.778H8.056A1.778,1.778,0,0,1,6.278,19V7.444H5.389a.889.889,0,0,1,0-1.778ZM8.056,7.444V19h8.889V7.444ZM9.833,5.667h5.333V4.778H9.833Zm0,3.556h1.778v8H9.833Zm3.556,0h1.778v8H13.389Z" transform="translate(1587.743 580)" fill="#b90303"/>
    </g>
  </g>
</svg>
