<svg id="Layer_1" enable-background="new 0 0 512 512" height="512" viewBox="0 0 512 512" width="512" xmlns="http://www.w3.org/2000/svg"><g><g clip-rule="evenodd" fill-rule="evenodd"><path d="m168.584 0h173.368l153.091 153.091v293.98c0 35.698-29.231 64.929-64.929 64.929h-261.53c-35.698 0-64.929-29.231-64.929-64.929v-382.142c0-35.698 29.232-64.929 64.929-64.929z" fill="#0ac963"/><path d="m341.953 0 153.091 153.091h-136.559c-9.1 0-16.532-7.432-16.532-16.532z" fill="#08a14f"/><path d="m31.207 218.02h352.618c7.813 0 14.25 6.408 14.25 14.25v129.36c0 7.842-6.437 14.25-14.25 14.25h-352.618c-7.842 0-14.25-6.408-14.25-14.25v-129.36c-.001-7.842 6.408-14.25 14.25-14.25z" fill="#08a14f"/></g><path d="m119.924 244.399h-26.598c-4.565 0-8.266 3.701-8.266 8.266v43.598 10.738 34.206c0 4.565 3.701 8.266 8.266 8.266s8.266-3.701 8.266-8.266v-25.94h18.331c19.225 0 34.864-15.64 34.864-34.863v-1.141c.001-19.224-15.639-34.864-34.863-34.864zm18.332 36.004c0 10.108-8.224 18.331-18.332 18.331h-18.331v-2.472-35.332h18.331c10.109 0 18.332 8.224 18.332 18.331zm104.05-27.738v88.542c0 3.715-2.478 6.973-6.057 7.966-.733.204-1.476.301-2.209.301-2.849 0-5.564-1.478-7.086-4.01l-37.844-62.99v58.733c0 4.565-3.701 8.266-8.266 8.266s-8.266-3.701-8.266-8.266v-88.542c0-3.715 2.478-6.973 6.057-7.966 3.582-.993 7.382.525 9.294 3.709l37.844 62.99v-58.733c0-4.565 3.701-8.266 8.266-8.266s8.267 3.7 8.267 8.266zm87.664 48.367v25.632c0 12.577-10.245 22.809-22.837 22.809h-24.081c-12.577 0-22.809-10.232-22.809-22.809v-59.428c0-12.593 10.232-22.837 22.809-22.837h24.081c12.593 0 22.837 10.245 22.837 22.837 0 4.565-3.701 8.266-8.266 8.266s-8.266-3.701-8.266-8.266c0-3.477-2.829-6.305-6.305-6.305h-24.081c-3.402 0-6.277 2.887-6.277 6.305v59.428c0 3.402 2.875 6.277 6.277 6.277h24.081c3.418 0 6.305-2.875 6.305-6.277v-17.366h-18.331c-4.565 0-8.266-3.701-8.266-8.266s3.701-8.266 8.266-8.266h26.597c4.566 0 8.266 3.7 8.266 8.266z" fill="#fff"/></g></svg>