<svg xmlns="http://www.w3.org/2000/svg" width="29.554" height="29.557" viewBox="0 0 29.554 29.557">
  <g id="Group_3132" data-name="Group 3132" transform="translate(2 -4)">
    <path id="Path_10356" data-name="Path 10356" d="M213.55,0a3.567,3.567,0,0,0-3.521,3.521,3.567,3.567,0,0,0,3.521,3.521,3.522,3.522,0,0,0,0-7.043Z" transform="translate(-199.906 4)" fill="#fafafa"/>
    <path id="Path_10357" data-name="Path 10357" d="M189.126,122a5.164,5.164,0,0,1-3.844,1.732,5.29,5.29,0,0,1-3.9-1.732,5.156,5.156,0,0,0-1.351,3.464v.866a.865.865,0,0,0,.866.866h8.717a.865.865,0,0,0,.866-.866v-.866A5.156,5.156,0,0,0,189.126,122Z" transform="translate(-171.638 -110.957)" fill="#fafafa"/>
    <path id="Path_10358" data-name="Path 10358" d="M8.39,300.338l-4.413-8.847a1.732,1.732,0,0,0-2.318-.779l-1.153.571a.867.867,0,0,0-.39,1.164l5.2,10.391a.867.867,0,0,0,1.159.389l1.138-.564A1.732,1.732,0,0,0,8.39,300.338Z" transform="translate(-2.024 -269.76)" fill="#fafafa"/>
    <g id="Group_2658" data-name="Group 2658" transform="translate(3.137 17.651)">
      <g id="Group_2657" data-name="Group 2657">
        <path id="Path_10359" data-name="Path 10359" d="M112.725,237.126a1.726,1.726,0,0,0-2.286.225l-4.734,5.819a2.093,2.093,0,0,1-1.282.554h-4.035a.866.866,0,1,1,0-1.732h3.464a1.732,1.732,0,1,0,0-3.464H99.315c-.432,0-.647-.274-.987-.572a6.025,6.025,0,0,0-5.376-1.316,6.317,6.317,0,0,0-2.659,1.327l-.026-.021-1.252,1.1,4.922,9.87h9.915a5.217,5.217,0,0,0,4.156-2.078l5.08-7.274A1.745,1.745,0,0,0,112.725,237.126Z" transform="translate(-89.016 -236.478)" fill="#fafafa"/>
      </g>
    </g>
  </g>
</svg>
