<svg id="suitcase" xmlns="http://www.w3.org/2000/svg" width="27.339" height="22.783" viewBox="0 0 27.339 22.783">
  <path id="Path_10353" data-name="Path 10353" d="M15.974,7.126a1.14,1.14,0,0,1-1.139-1.139V4.278H10.278V5.987A1.139,1.139,0,1,1,8,5.987V4.278A2.281,2.281,0,0,1,10.278,2h4.557a2.281,2.281,0,0,1,2.278,2.278V5.987A1.14,1.14,0,0,1,15.974,7.126Z" transform="translate(1.113 -2)" fill="#fafafa"/>
  <path id="Path_10354" data-name="Path 10354" d="M14.478,15.9a2.346,2.346,0,0,1-.809.137,2.5,2.5,0,0,1-.877-.159L0,11.62v8.692a3.131,3.131,0,0,0,3.133,3.133H24.207a3.131,3.131,0,0,0,3.133-3.133V11.62Z" transform="translate(0 -0.661)" fill="#fafafa"/>
  <path id="Path_10355" data-name="Path 10355" d="M27.339,8.133v2.609l-13.4,4.465a.843.843,0,0,1-.547,0L0,10.741V8.133A3.131,3.131,0,0,1,3.133,5H24.207A3.131,3.131,0,0,1,27.339,8.133Z" transform="translate(0 -1.583)" fill="#fafafa"/>
</svg>
