<svg xmlns="http://www.w3.org/2000/svg" width="42" height="44" viewBox="0 0 42 44">
  <g id="Group_3371" data-name="Group 3371" transform="translate(-1344 -267)">
    <ellipse id="Ellipse_10" data-name="Ellipse 10" cx="21" cy="22" rx="21" ry="22" transform="translate(1344 267)" fill="#02385a"/>
    <g id="_36_Upload_foto" data-name="36 Upload foto" transform="translate(1353.166 279.986)">
      <path id="Path_10500" data-name="Path 10500" d="M15.085,21.7H4.45V17.722L6.86,14.943a1.274,1.274,0,0,1,1.94.031l2.075,2.557,3.931-4.76a1.278,1.278,0,0,1,1.952,0L19.593,16.2A6.127,6.127,0,0,0,15.085,21.7ZM11.059,10.069A1.633,1.633,0,1,0,12.692,11.7,1.633,1.633,0,0,0,11.059,10.069Zm4.026,12.445H4.041a.408.408,0,0,1-.408-.408V9.041a.408.408,0,0,1,.408-.408H21.188a.408.408,0,0,1,.408.408V16a6.073,6.073,0,0,1,1.633.337V8.225A1.226,1.226,0,0,0,22,7H3.225A1.226,1.226,0,0,0,2,8.225v14.7a1.226,1.226,0,0,0,1.225,1.225h12.2a6.072,6.072,0,0,1-.337-1.633Zm6.1-5.716A5.307,5.307,0,1,0,26.5,22.106,5.307,5.307,0,0,0,21.188,16.8Zm2.041,5.307h-.817v3.266A.408.408,0,0,1,22,25.78H20.372a.408.408,0,0,1-.408-.408V22.1l-.812.01a.409.409,0,0,1-.337-.646L20.856,18.6a.424.424,0,0,1,.665,0l2.041,2.858a.411.411,0,0,1-.332.646Z" transform="translate(-2 -7)" fill="#fff"/>
    </g>
  </g>
</svg>
