<svg id="Group_3133" data-name="Group 3133" xmlns="http://www.w3.org/2000/svg" width="24.125" height="26.856" viewBox="0 0 24.125 26.856">
  <path id="Path_3374" data-name="Path 3374" d="M28.593,6.186A1.593,1.593,0,1,0,27,4.593,1.595,1.595,0,0,0,28.593,6.186Zm0-2.276a.683.683,0,1,1-.683.683A.684.684,0,0,1,28.593,3.91Z" transform="translate(-16.075 -1.634)" fill="#17b8bc"/>
  <path id="Path_3375" data-name="Path 3375" d="M7.593,6.186A1.593,1.593,0,1,0,6,4.593,1.595,1.595,0,0,0,7.593,6.186Zm0-2.276a.683.683,0,1,1-.683.683A.684.684,0,0,1,7.593,3.91Z" transform="translate(-4.634 -1.634)" fill="#17b8bc"/>
  <path id="Path_3376" data-name="Path 3376" d="M7.593,48a1.593,1.593,0,1,0,1.593,1.593A1.595,1.595,0,0,0,7.593,48Zm0,2.276a.683.683,0,1,1,.683-.683A.684.684,0,0,1,7.593,50.276Z" transform="translate(-4.634 -26.151)" fill="#17b8bc"/>
  <g id="Group_3132" data-name="Group 3132">
    <path id="Path_3377" data-name="Path 3377" d="M22.573,7.746V0H3V26.4H13.942a6.732,6.732,0,0,0,2.486.455,6.456,6.456,0,0,0,2.969-.676,6.467,6.467,0,0,0,2.948.676c2.68,0,4.78-1.4,4.78-3.186V10.925C27.125,9.189,25.143,7.823,22.573,7.746Zm3.642,3.179c0,1.234-1.772,2.276-3.869,2.276s-3.869-1.042-3.869-2.276a1.284,1.284,0,0,1,.02-.225c0-.021.011-.042.016-.063a1.4,1.4,0,0,1,.042-.158c.008-.023.02-.046.03-.069a1.476,1.476,0,0,1,.066-.146c.014-.026.032-.051.048-.077.026-.043.051-.086.082-.128s.054-.066.081-.1.051-.065.08-.1c.045-.048.095-.1.146-.142.016-.015.03-.03.046-.044a3.263,3.263,0,0,1,.486-.348,4.207,4.207,0,0,1,.571-.28l.037-.014a5.043,5.043,0,0,1,.633-.2l.024-.005a5.758,5.758,0,0,1,.583-.112l.024,0a6.427,6.427,0,0,1,.643-.054l.214-.008C24.444,8.65,26.215,9.691,26.215,10.925Zm-.03,11.188c-.008.038-.019.076-.03.114s-.02.071-.034.106-.032.074-.05.111-.032.068-.051.1-.044.071-.068.107-.043.066-.067.1-.056.069-.086.1-.052.062-.081.092-.068.066-.1.1-.061.058-.094.086-.078.062-.118.092-.07.054-.107.081-.088.057-.133.086-.077.05-.118.074-.1.052-.146.078-.085.046-.13.067-.106.047-.159.071-.09.041-.137.059-.116.042-.175.063-.093.035-.142.05-.124.036-.187.054-.1.029-.148.042-.132.03-.2.044c-.051.011-.1.023-.151.032-.072.013-.147.023-.22.034-.048.007-.1.016-.144.022-.082.01-.167.016-.25.023-.042,0-.083.009-.125.011q-.19.012-.385.012c-.178,0-.353-.01-.527-.025l-.141-.014q-.219-.023-.434-.062l-.064-.01a2.222,2.222,0,0,0,.028-.345v-.546c.032.005.064.007.1.011q.184.027.371.045c.051.005.1.01.154.014.172.013.344.021.517.021s.369-.008.549-.021c.058,0,.114-.011.172-.017.122-.012.242-.025.36-.043.065-.01.128-.021.191-.032.109-.02.217-.041.322-.066.062-.014.123-.028.183-.044.109-.028.215-.06.32-.094.051-.016.1-.031.152-.048.146-.051.288-.106.423-.166l.016-.006c.141-.063.274-.132.4-.2.041-.023.08-.048.12-.072.086-.052.17-.1.25-.16.043-.03.084-.061.125-.092.073-.055.143-.112.21-.17.02-.018.044-.033.063-.051,0,.025,0,.051-.007.076S26.193,22.076,26.185,22.112Zm-5.918,0c-.008.038-.019.076-.031.114s-.02.071-.034.106-.032.074-.05.111-.032.068-.051.1-.044.071-.068.107-.043.066-.067.1-.056.069-.086.1-.052.062-.081.092-.068.066-.1.1-.061.058-.094.086-.078.062-.118.092-.07.054-.107.081-.088.057-.133.086-.077.05-.118.074-.1.052-.146.078-.085.046-.13.067-.106.047-.159.071-.09.041-.137.059-.116.042-.175.063-.093.035-.142.05-.124.036-.187.054-.1.029-.148.042-.132.03-.2.044c-.051.011-.1.023-.151.032-.072.013-.147.023-.22.034-.048.007-.1.016-.144.022-.082.01-.167.016-.25.023-.042,0-.083.009-.125.011q-.19.012-.385.012t-.385-.012c-.042,0-.083-.008-.125-.011-.084-.007-.168-.013-.25-.023-.049-.006-.1-.015-.144-.022-.074-.011-.148-.021-.22-.034-.051-.01-.1-.022-.151-.032-.067-.014-.134-.028-.2-.044-.051-.013-.1-.028-.147-.041s-.127-.035-.188-.054-.095-.033-.142-.05-.118-.041-.175-.063-.091-.04-.137-.059-.108-.046-.159-.071-.086-.045-.13-.067-.1-.051-.146-.078-.079-.049-.118-.074-.091-.056-.133-.086-.071-.053-.107-.081-.081-.061-.118-.092-.063-.057-.094-.086-.071-.065-.1-.1-.055-.061-.081-.092-.059-.068-.086-.1-.045-.065-.067-.1-.048-.071-.068-.107-.035-.068-.051-.1-.036-.074-.05-.111-.023-.07-.034-.106-.023-.076-.03-.114-.011-.073-.016-.109-.005-.05-.007-.076c.02.018.043.034.063.051q.1.088.211.171c.041.031.082.062.125.091.08.056.164.109.251.161.04.024.078.049.12.072.129.072.263.141.4.2l.015.006c.137.061.279.116.425.166.05.017.1.032.152.048.1.033.211.065.32.094.061.015.122.03.183.044q.158.036.322.066c.063.011.127.022.191.032.118.018.238.031.36.043.057.005.114.013.172.017.181.014.364.022.55.022s.369-.008.549-.021c.058,0,.114-.011.172-.017.122-.012.242-.025.36-.043.065-.01.128-.021.191-.032.109-.02.217-.041.322-.066.062-.014.123-.028.183-.044.109-.028.215-.06.32-.094.051-.016.1-.031.152-.048.146-.051.288-.106.423-.166l.016-.006c.141-.063.274-.132.4-.2.041-.023.08-.048.12-.072.086-.052.17-.1.25-.16.043-.03.084-.061.125-.092.073-.055.143-.112.21-.17.02-.018.044-.033.063-.051,0,.025,0,.051-.007.076S20.275,22.076,20.268,22.112ZM6.186,8.746V5.909A2.963,2.963,0,0,0,8.909,3.186h3.658A2.964,2.964,0,0,0,15.29,5.909V8.746l-.021-.02c-.076-.077-.158-.149-.239-.222s-.153-.146-.234-.213c-.03-.025-.061-.046-.091-.069a6.312,6.312,0,0,0-3.272-1.354l-.044-.007c-.214-.021-.431-.033-.65-.033s-.436.011-.65.033l-.044.007A6.308,6.308,0,0,0,6.772,8.222c-.03.024-.062.045-.091.069-.081.067-.157.142-.234.213s-.163.145-.239.222Zm10.98,5.41.02,0a5.994,5.994,0,0,1,.708.131,5.154,5.154,0,0,1,.57.178q.133.05.259.106c.046.02.095.04.139.062a3.869,3.869,0,0,1,.357.2l.074.048a2.794,2.794,0,0,1,.619.542l.014.017a1.908,1.908,0,0,1,.146.207l.015.024a1.626,1.626,0,0,1,.1.2c.005.013.012.025.017.039a1.384,1.384,0,0,1,.056.19c0,.016.01.033.013.049a1.255,1.255,0,0,1,.024.239c0,1.234-1.772,2.276-3.869,2.276s-3.869-1.042-3.869-2.276a1.363,1.363,0,0,1,.136-.575,2.145,2.145,0,0,1,.622-.755l.056-.044c.08-.061.165-.12.255-.176a5.4,5.4,0,0,1,2.8-.726A6.3,6.3,0,0,1,17.166,14.155Zm1.591-1.11c.041.031.082.062.125.091.08.056.164.109.251.161.04.024.078.049.12.072.129.072.263.141.4.2l.015.006c.137.061.279.116.425.166.05.017.1.032.152.048.1.033.211.065.32.094.061.015.122.03.183.044q.158.036.322.066c.063.011.127.022.191.032.118.018.238.031.36.043.057.005.114.013.172.017.18.014.363.022.549.022s.369-.008.549-.021c.058,0,.114-.011.172-.017.122-.012.242-.025.36-.043.065-.01.128-.021.191-.032.109-.02.217-.041.322-.066.062-.014.123-.028.183-.044.109-.028.215-.06.32-.094.051-.016.1-.031.152-.048.146-.051.288-.106.423-.166l.016-.006c.141-.063.274-.132.4-.2.041-.023.08-.048.12-.072.086-.052.17-.1.25-.16.043-.03.084-.061.125-.092.073-.055.143-.112.21-.17.02-.018.044-.033.063-.051,0,.025,0,.051-.007.076s-.008.073-.016.109-.019.076-.03.114-.02.071-.034.106-.032.074-.05.111-.032.068-.051.1-.044.071-.068.107-.043.066-.067.1-.056.069-.086.1-.052.062-.081.092-.068.066-.1.1-.061.058-.094.086-.078.062-.118.092-.07.054-.107.081-.088.057-.133.086-.077.05-.118.074-.1.052-.146.078-.085.046-.13.067-.106.047-.159.071-.09.041-.137.059-.116.042-.175.063-.093.035-.142.05-.124.036-.187.054-.1.029-.148.042-.132.03-.2.044c-.051.011-.1.023-.151.032-.072.013-.147.023-.22.034-.048.007-.1.016-.144.022-.082.01-.167.016-.25.023-.042,0-.083.009-.125.011-.127.007-.255.011-.385.011-.163,0-.326-.007-.487-.019-.051,0-.1-.012-.152-.017-.109-.011-.218-.022-.325-.039-.06-.009-.117-.022-.177-.033-.1-.018-.193-.036-.286-.058-.06-.015-.118-.032-.177-.048s-.135-.038-.2-.059A4.348,4.348,0,0,0,18.775,13.6a1.483,1.483,0,0,1-.3-.78c.021.019.046.036.068.055Q18.648,12.963,18.757,13.045Zm7.052,1.913c.043-.03.084-.061.125-.092.073-.055.143-.112.21-.17.02-.018.044-.033.063-.051,0,.025,0,.051-.007.076s-.008.073-.016.109-.019.076-.03.114-.02.071-.034.106-.032.074-.05.111-.032.068-.051.1-.044.071-.068.107-.043.066-.067.1-.056.069-.086.1-.052.062-.081.092-.068.066-.1.1-.061.058-.094.086-.078.062-.118.092-.07.054-.107.081-.088.057-.133.086-.077.05-.118.074-.1.052-.146.078-.085.046-.13.067-.106.047-.159.071-.09.041-.137.059-.116.042-.175.063-.093.035-.142.05-.124.036-.187.054-.1.029-.148.042-.132.03-.2.044c-.051.011-.1.023-.151.032-.072.013-.147.023-.22.034-.048.007-.1.016-.144.022-.082.01-.167.016-.25.023-.042,0-.083.009-.125.011q-.19.012-.385.012a6.241,6.241,0,0,1-.68-.041c-.067-.007-.133-.018-.2-.028-.087-.012-.172-.031-.258-.048v-.339a2.191,2.191,0,0,0-.022-.3c-.008-.062-.023-.123-.036-.184-.005-.025-.008-.05-.015-.075l.031,0c.129.021.26.036.391.05.065.007.128.018.193.023q.3.025.595.025c.186,0,.369-.008.549-.021.058,0,.114-.011.172-.017.122-.012.242-.025.36-.043.065-.01.128-.021.191-.032.109-.02.217-.041.322-.066.062-.014.123-.028.183-.044.109-.028.215-.06.32-.094.051-.016.1-.031.152-.048.146-.051.288-.106.423-.166l.016-.006c.141-.063.274-.132.4-.2.041-.023.08-.048.12-.072C25.645,15.067,25.729,15.014,25.809,14.958Zm0,1.821c.043-.03.084-.061.125-.092.073-.055.143-.112.21-.17.02-.018.044-.033.063-.051,0,.025,0,.051-.007.076s-.008.073-.016.109-.019.076-.03.114-.02.071-.034.106-.032.074-.05.111-.032.068-.051.1-.044.071-.068.107-.043.066-.067.1-.056.069-.086.1-.052.062-.081.092-.068.066-.1.1-.061.058-.094.086-.078.062-.118.092-.07.054-.107.081-.088.057-.133.086-.077.05-.118.074-.1.052-.146.078-.085.046-.13.067-.106.047-.159.071-.09.041-.137.059-.116.042-.175.063-.093.035-.142.05-.124.036-.187.054-.1.029-.148.042-.132.03-.2.044c-.051.011-.1.023-.151.032-.072.013-.147.023-.22.034-.048.007-.1.016-.144.022-.082.01-.167.016-.25.023-.042,0-.083.009-.125.011q-.19.012-.385.012a6.24,6.24,0,0,1-.68-.041c-.067-.007-.133-.018-.2-.028-.087-.012-.172-.031-.258-.048v-.885c.032.005.064.007.1.011q.184.027.371.045c.051.005.1.01.154.014.172.013.344.021.517.021s.369-.008.549-.021c.058,0,.114-.011.172-.017.122-.012.242-.025.36-.043.065-.01.128-.021.191-.032.109-.02.217-.041.322-.066.062-.014.123-.028.183-.044.109-.028.215-.06.32-.094.051-.016.1-.031.152-.048.146-.051.288-.106.423-.166l.016-.006c.141-.063.274-.132.4-.2.041-.023.08-.048.12-.072C25.645,16.888,25.729,16.834,25.809,16.779Zm0,1.821c.043-.03.084-.061.125-.092.073-.055.143-.112.21-.17.02-.018.044-.033.063-.051,0,.025,0,.051-.007.076s-.008.073-.016.109-.019.076-.03.114-.02.071-.034.106-.032.074-.05.111-.032.068-.051.1-.044.071-.068.107-.043.066-.067.1-.056.069-.086.1-.052.062-.081.092-.068.066-.1.1-.061.058-.094.086-.078.062-.118.092-.07.054-.107.081-.088.057-.133.086-.077.05-.118.074-.1.052-.146.078-.085.046-.13.067-.106.047-.159.071-.09.041-.137.059-.116.042-.175.063-.093.035-.142.05-.124.036-.187.054-.1.029-.148.042-.132.03-.2.044c-.051.011-.1.023-.151.032-.072.013-.147.023-.22.034-.048.007-.1.016-.144.022-.082.01-.167.016-.25.023-.042,0-.083.009-.125.011q-.19.012-.385.012a6.241,6.241,0,0,1-.68-.041c-.067-.007-.133-.018-.2-.028-.087-.012-.172-.031-.258-.048v-.885c.032.005.064.007.1.011q.184.027.371.045c.051.005.1.01.154.014.172.013.344.021.517.021s.369-.008.549-.021c.058,0,.114-.011.172-.017.122-.012.242-.025.36-.043.065-.01.128-.021.191-.032.109-.02.217-.041.322-.066.062-.014.123-.028.183-.044.109-.028.215-.06.32-.094.051-.016.1-.031.152-.048.146-.051.288-.106.423-.166l.016-.006c.141-.063.274-.132.4-.2.041-.023.08-.048.12-.072C25.645,18.708,25.729,18.655,25.809,18.6Zm0,1.821c.043-.03.084-.061.125-.092.073-.055.143-.112.21-.17.02-.018.044-.033.063-.051,0,.025,0,.051-.007.076s-.008.073-.016.109-.019.076-.03.114-.02.071-.034.106-.032.074-.05.111-.032.068-.051.1-.044.071-.068.107-.043.066-.067.1-.056.069-.086.1-.052.062-.081.092-.068.066-.1.1-.061.058-.094.086-.078.062-.118.092-.07.054-.107.081-.088.057-.133.086-.077.05-.118.074-.1.052-.146.078-.085.046-.13.067-.106.047-.159.071-.09.041-.137.059-.116.042-.175.063-.093.035-.142.05-.124.036-.187.054-.1.029-.148.042-.132.03-.2.044c-.051.011-.1.023-.151.032-.072.013-.147.023-.22.034-.048.007-.1.016-.144.022-.082.01-.167.016-.25.023-.042,0-.083.009-.125.011q-.19.012-.385.012a6.241,6.241,0,0,1-.68-.041c-.067-.007-.133-.018-.2-.028-.087-.012-.172-.031-.258-.048V21.3c.032.005.064.007.1.011q.184.027.371.045c.051.005.1.01.154.014.172.013.344.021.517.021s.369-.008.549-.021c.058,0,.114-.011.172-.017.122-.012.242-.025.36-.043.065-.01.128-.021.191-.032.109-.02.217-.041.322-.066.062-.014.123-.028.183-.044.109-.028.215-.06.32-.094.051-.016.1-.031.152-.048.146-.051.288-.106.423-.166l.016-.006c.141-.063.274-.132.4-.2.041-.023.08-.048.12-.072C25.645,20.529,25.729,20.476,25.809,20.42Zm-5.542-.129c-.008.038-.019.076-.031.114s-.02.071-.034.106-.032.074-.05.111-.032.068-.051.1-.044.071-.068.107-.043.066-.067.1-.056.069-.086.1-.052.062-.081.092-.068.066-.1.1-.061.058-.094.086-.078.062-.118.092-.07.054-.107.081-.088.057-.133.086-.077.05-.118.074-.1.052-.146.078-.085.046-.13.067-.106.047-.159.071-.09.041-.137.059-.116.042-.175.063-.093.035-.142.05-.124.036-.187.054-.1.029-.148.042-.132.03-.2.044c-.051.011-.1.023-.151.032-.072.013-.147.023-.22.034-.048.007-.1.016-.144.022-.082.01-.167.016-.25.023-.042,0-.083.009-.125.011q-.19.012-.385.012t-.385-.012c-.042,0-.083-.008-.125-.011-.084-.007-.168-.013-.25-.023-.049-.006-.1-.015-.144-.022-.074-.011-.148-.021-.22-.034-.051-.01-.1-.022-.151-.032-.067-.014-.134-.028-.2-.044-.051-.013-.1-.028-.147-.041s-.127-.035-.188-.054-.095-.033-.142-.05-.118-.041-.175-.063-.091-.04-.137-.059-.108-.046-.159-.071-.086-.045-.13-.067-.1-.051-.146-.078-.079-.049-.118-.074-.091-.056-.133-.086-.071-.053-.107-.081-.081-.061-.118-.092-.063-.057-.094-.086-.071-.065-.1-.1-.055-.061-.081-.092-.059-.068-.086-.1-.045-.065-.067-.1-.048-.071-.068-.107-.035-.068-.051-.1-.036-.074-.05-.111-.023-.07-.034-.106-.023-.076-.03-.114-.011-.073-.016-.109-.005-.05-.007-.076c.02.018.043.034.063.051q.1.088.211.171c.041.031.082.062.125.091.08.056.164.109.251.161.04.024.078.049.12.072.129.072.263.141.4.2l.015.006c.137.061.279.116.425.166.05.017.1.032.152.048.1.033.211.065.32.094.061.015.122.03.183.044q.158.036.322.066c.063.011.127.022.191.032.118.018.238.031.36.043.057.005.114.013.172.017.181.014.364.022.55.022s.369-.008.549-.021c.058,0,.114-.011.172-.017.122-.012.242-.025.36-.043.065-.01.128-.021.191-.032.109-.02.217-.041.322-.066.062-.014.123-.028.183-.044.109-.028.215-.06.32-.094.051-.016.1-.031.152-.048.146-.051.288-.106.423-.166l.016-.006c.141-.063.274-.132.4-.2.041-.023.08-.048.12-.072.086-.052.17-.1.25-.16.043-.03.084-.061.125-.092.073-.055.143-.112.21-.17.02-.018.044-.033.063-.051,0,.025,0,.051-.007.076S20.275,20.255,20.268,20.292Zm-8.986-1.661a5.33,5.33,0,0,1-.544.032,5.466,5.466,0,0,1-.637-.041c-.067-.008-.134-.02-.2-.031-.142-.022-.282-.048-.421-.081-.076-.018-.151-.037-.225-.058-.132-.037-.262-.081-.39-.128-.068-.025-.138-.047-.205-.075A5.3,5.3,0,0,1,8.128,18c-.053-.029-.1-.063-.154-.094-.126-.075-.251-.152-.371-.237-.061-.043-.119-.088-.178-.133-.117-.09-.231-.184-.341-.284-.042-.038-.085-.075-.125-.114-.092-.089-.178-.187-.264-.283L8.1,15.307a.769.769,0,0,1,.673-.274l.063.014c.069.054.217.189.318.283a5.251,5.251,0,0,0,.541.462,1.439,1.439,0,0,0,.878.768,1.724,1.724,0,0,0,1.074-.078v2.094c-.049.008-.1.019-.147.026C11.428,18.612,11.355,18.623,11.282,18.631ZM5.3,12.7c0-.042.009-.083.013-.125.016-.144.038-.286.065-.426,0-.021.007-.043.011-.064.034-.161.075-.32.122-.476.01-.033.022-.065.032-.1.04-.121.083-.24.131-.357.018-.044.035-.087.054-.13.054-.124.113-.245.175-.364.033-.061.068-.122.1-.182s.078-.131.119-.195l0,0L7.444,11.72a1.681,1.681,0,0,0,1.229.569,1.547,1.547,0,0,0,.481-.084,1.088,1.088,0,0,0,.449-.373c.226-.264.406-.453.68-.453a1.817,1.817,0,0,1,1.224.476l.487.5.229-.646a2.018,2.018,0,0,1,.937-.35,3.491,3.491,0,0,1-.066,2.728L13,14.149c-.056.038-.108.078-.161.118s-.094.069-.138.106-.1.086-.144.129-.083.074-.122.113-.085.093-.127.141-.072.079-.1.12-.073.1-.108.152-.06.082-.086.124-.061.11-.089.165l-.005.01a1.536,1.536,0,0,1-1.087.356c-.055-.016-.221-.064-.366-.4l-.1-.245-.183-.02c-.1-.072-.284-.245-.4-.355a2.007,2.007,0,0,0-.6-.463,1.574,1.574,0,0,0-.237-.06,1.655,1.655,0,0,0-1.5.559l-1.3,1.427,0,0q-.057-.089-.111-.182c-.04-.068-.079-.137-.116-.206-.061-.115-.117-.232-.169-.351-.02-.044-.037-.089-.055-.134-.047-.116-.091-.234-.13-.354-.011-.033-.023-.066-.033-.1-.047-.156-.089-.314-.122-.475,0-.021-.007-.043-.011-.065-.027-.14-.049-.282-.065-.426,0-.041-.01-.083-.013-.125-.015-.165-.025-.331-.025-.5S5.286,12.865,5.3,12.7Zm7.538,5.808c.041.031.082.062.125.091.08.056.164.109.251.161.04.024.078.049.12.072.129.072.263.141.4.2l.015.006c.137.061.279.116.425.166.05.017.1.032.152.048.1.033.211.065.32.094.061.015.122.03.183.044q.158.036.322.066c.063.011.127.022.191.032.118.018.238.031.36.043.057.005.114.013.172.017.18.014.363.022.549.022s.369-.008.549-.021c.058,0,.114-.011.172-.017.122-.012.242-.025.36-.043.065-.01.128-.021.191-.032.109-.02.217-.041.322-.066.062-.014.123-.028.183-.044.109-.028.215-.06.32-.094.051-.016.1-.031.152-.048.146-.051.288-.106.423-.166l.016-.006c.141-.063.274-.132.4-.2.041-.023.08-.048.12-.072.086-.052.17-.1.25-.16.043-.03.084-.061.125-.092.073-.055.143-.112.21-.17.02-.018.044-.033.063-.051,0,.025,0,.051-.007.076s-.008.073-.016.109-.019.076-.031.114-.02.071-.034.106-.032.074-.05.111-.032.068-.051.1-.044.071-.068.107-.043.066-.067.1-.056.069-.086.1-.052.062-.081.092-.068.066-.1.1-.061.058-.094.086-.078.062-.118.092-.07.054-.107.081-.088.057-.133.086-.077.05-.118.074-.1.052-.146.078-.085.046-.13.067-.106.047-.159.071-.09.041-.137.059-.116.042-.175.063-.093.035-.142.05-.124.036-.187.054-.1.029-.148.042-.132.03-.2.044c-.051.011-.1.023-.151.032-.072.013-.147.023-.22.034-.048.007-.1.016-.144.022-.082.01-.167.016-.25.023-.042,0-.083.009-.125.011-.127.007-.255.011-.385.011s-.258,0-.385-.012c-.042,0-.083-.008-.125-.011-.084-.007-.168-.013-.25-.023-.049-.006-.1-.015-.144-.022-.074-.011-.148-.021-.22-.034-.051-.01-.1-.022-.151-.032-.067-.014-.134-.028-.2-.044-.051-.013-.1-.028-.147-.041s-.127-.035-.188-.054-.095-.033-.142-.05-.118-.041-.175-.063-.091-.04-.137-.059-.108-.046-.159-.071-.086-.045-.13-.067-.1-.051-.146-.078-.079-.049-.118-.074-.091-.056-.133-.086-.071-.053-.107-.081-.081-.061-.118-.092-.063-.057-.094-.086-.071-.065-.1-.1-.055-.061-.081-.092-.059-.068-.086-.1-.045-.065-.067-.1-.048-.071-.068-.107-.035-.068-.051-.1-.036-.074-.05-.111-.023-.07-.034-.106-.023-.076-.03-.114-.011-.073-.016-.109-.005-.05-.007-.076c.02.018.043.034.063.051C12.7,18.4,12.767,18.453,12.84,18.508Zm2.993-5.281c-.084.007-.167.015-.249.025s-.147.017-.22.028-.161.025-.24.04-.142.026-.212.041-.154.036-.229.055-.136.035-.2.054-.147.045-.218.069l-.024.008a4.663,4.663,0,0,0-.364-2.829l-.089-.174-.188-.055a2.717,2.717,0,0,0-1.826.425,2.715,2.715,0,0,0-1.488-.443,1.8,1.8,0,0,0-1.374.776c-.037.044-.069.084-.1.115a.634.634,0,0,1-.152.02.762.762,0,0,1-.541-.272L6.7,9.548c.086-.1.171-.194.264-.283.041-.039.083-.076.125-.114.11-.1.224-.194.341-.284.059-.045.117-.09.178-.133.12-.085.244-.163.371-.237.052-.03.1-.065.154-.094a5.5,5.5,0,0,1,.531-.252c.067-.028.137-.05.205-.075.128-.047.258-.091.39-.128.075-.021.15-.04.225-.058.139-.033.279-.059.421-.081.067-.01.133-.023.2-.03a5.022,5.022,0,0,1,1.273,0c.067.008.134.02.2.03.142.022.282.048.421.081.076.018.151.037.225.058.132.037.262.081.39.128.068.025.138.047.205.075a5.3,5.3,0,0,1,.531.252c.053.029.1.063.154.094.126.075.251.152.371.237.061.043.119.088.178.133.117.09.231.184.341.284.042.038.085.075.125.114a5.557,5.557,0,0,1,.832,1.019A5.428,5.428,0,0,1,16.2,13.2v0c-.047,0-.093.006-.14.009C15.984,13.216,15.908,13.221,15.833,13.227ZM6.186,17.656c.006.006.013.011.019.017a6.464,6.464,0,0,0,.5.458c.062.051.128.1.192.143.116.088.233.175.355.255.085.056.172.106.259.157.109.065.22.127.334.185.092.047.184.092.279.134.117.053.237.1.358.147.093.036.186.072.281.1.134.044.272.08.411.115.086.022.169.048.256.066a6.418,6.418,0,0,0,.666.1c.075.007.151.007.226.011.138.009.275.021.416.021.022,0,.045,0,.067,0,.126,0,.253-.014.38-.023s.236-.015.356-.03c.036,0,.072,0,.108-.009v3.708H8.909a2.964,2.964,0,0,0-2.723-2.723V17.656ZM21.663.91V7.773c-.154.014-.306.033-.455.056V.91ZM20.3.91V8.039q-.236.073-.455.162V.91Zm-1.366,0V8.676a3.867,3.867,0,0,0-.455.362V.91ZM3.91,25.491V.91H17.566V13.292h0c-.149-.024-.3-.042-.456-.056,0-.012,0-.023,0-.035a6.324,6.324,0,0,0-.91-3.266V4.952L15.7,5c-.061.005-.123.01-.186.01a2.051,2.051,0,0,1-2.048-2.048c0-.063,0-.126.01-.188l.044-.5H7.953l.044.5c.005.062.01.124.01.188A2.051,2.051,0,0,1,5.959,5.007c-.063,0-.124,0-.186-.01l-.5-.046V9.935l-.019.03c-.061.1-.12.2-.175.31-.071.135-.137.271-.2.41-.022.051-.041.1-.061.156-.053.132-.1.265-.147.4-.018.057-.035.114-.051.172-.039.134-.074.269-.1.405-.014.061-.027.121-.038.182-.027.141-.048.283-.065.427-.007.057-.016.113-.021.171-.019.2-.031.4-.031.6s.012.4.03.6c.005.058.015.114.021.171.017.143.038.285.065.427.012.061.025.122.038.182.03.137.065.271.1.405.017.057.033.115.051.172.044.135.094.268.147.4.021.052.039.1.061.156.06.139.127.275.2.41.055.106.114.208.175.31l.019.03v4.983l.5-.046c.061-.005.123-.01.186-.01a2.051,2.051,0,0,1,2.048,2.048c0,.063,0,.126-.01.188l-.044.5H11.7c.008.038.018.076.028.114s.024.091.039.137.027.073.041.109a2.8,2.8,0,0,0,.679,1.006ZM14.1,25.469c-.046-.02-.09-.042-.134-.063-.062-.031-.124-.062-.183-.1-.04-.022-.076-.046-.114-.069a3.28,3.28,0,0,1-.3-.2c-.031-.024-.066-.047-.1-.072s-.079-.071-.118-.108-.073-.069-.106-.1-.062-.069-.092-.1-.067-.083-.1-.126-.045-.063-.065-.1a1.67,1.67,0,0,1-.091-.17c-.01-.021-.022-.041-.031-.062a1.444,1.444,0,0,1-.077-.243c0-.021-.005-.043-.009-.064a1.3,1.3,0,0,1-.015-.139c.019.017.042.033.061.05q.1.088.211.171c.041.031.082.062.125.091.08.056.164.109.251.161.04.024.078.049.12.072.129.072.263.141.4.2l.015.006c.137.061.279.116.425.166.05.017.1.032.152.048.1.033.211.065.32.094.061.015.122.03.183.044q.158.036.322.066c.063.011.127.022.191.032.118.018.238.031.36.043.057.005.114.013.172.017.18.014.362.022.549.022s.369-.008.549-.021c.058,0,.114-.011.172-.017.122-.012.242-.025.36-.043.065-.01.128-.021.191-.032.109-.02.217-.041.322-.066.062-.014.123-.028.183-.044.109-.028.215-.06.32-.094.051-.016.1-.031.152-.048.146-.051.288-.106.423-.166l.016-.006c.141-.063.274-.132.4-.2.041-.023.08-.048.12-.072.086-.052.17-.1.25-.16.043-.03.084-.061.125-.092.073-.055.143-.112.21-.17.02-.017.042-.032.061-.05a1.274,1.274,0,0,1-.015.142c0,.012,0,.024-.005.035a1.538,1.538,0,0,1-.078.25v0a2.106,2.106,0,0,1-.672.839l-.027.02a3.392,3.392,0,0,1-.312.212c-.022.014-.043.028-.066.041l-.01.005a5.5,5.5,0,0,1-2.675.649A5.715,5.715,0,0,1,14.1,25.469Zm8.25.477a5.829,5.829,0,0,1-2.074-.366,3.088,3.088,0,0,0,.589-.7l.025,0c.21.045.425.078.641.1L21.67,25c.223.021.448.035.676.035.186,0,.369-.008.549-.021.058,0,.114-.011.172-.017.122-.012.242-.025.36-.043.065-.01.128-.021.191-.032.109-.02.217-.041.322-.066.062-.014.123-.028.183-.044.109-.028.215-.06.32-.094.051-.016.1-.031.152-.048.146-.051.288-.106.423-.166l.016-.006c.141-.063.274-.132.4-.2.041-.023.08-.048.12-.072.086-.052.17-.1.25-.16.043-.03.084-.061.125-.092.073-.055.143-.112.21-.17.022-.019.047-.036.068-.055C26.143,24.946,24.4,25.946,22.346,25.946Z" transform="translate(-3)" fill="#17b8bc"/>
  </g>
</svg>
