<svg xmlns="http://www.w3.org/2000/svg" width="28.236" height="28.191" viewBox="0 0 28.236 28.191">
  <g id="Group_3132" data-name="Group 3132" transform="translate(0)">
    <ellipse id="Ellipse_4" data-name="Ellipse 4" cx="7.048" cy="8.457" rx="7.048" ry="8.457" transform="translate(7.07)" fill="#707070"/>
    <path id="Path_3373" data-name="Path 3373" d="M29.916,20.877a12.846,12.846,0,0,0-6.766-5.92,3.156,3.156,0,0,0-2.537.141,8.653,8.653,0,0,1-9.021,0,3.172,3.172,0,0,0-2.537,0,12.846,12.846,0,0,0-6.766,5.92,2.782,2.782,0,0,0,2.678,3.947H27.238A2.855,2.855,0,0,0,29.916,20.877Z" transform="translate(-1.984 3.226)" fill="#707070"/>
  </g>
</svg>
