<svg xmlns="http://www.w3.org/2000/svg" width="16" height="14.376" viewBox="0 0 16 14.376">
  <path id="attention" d="M16,13.225a1,1,0,0,1-.4.856,1.574,1.574,0,0,1-.971.295H1.366a1.551,1.551,0,0,1-.97-.3,1.007,1.007,0,0,1-.4-.848,1.74,1.74,0,0,1,.259-.877L6.886.791A1.341,1.341,0,0,1,8.007,0,1.281,1.281,0,0,1,9.1.791l6.641,11.572a1.774,1.774,0,0,1,.259.863ZM9,5.88v-2.1H7v2.1a2.4,2.4,0,0,0,.029.381q.029.18.079.4t.079.381l.374,2.329H8.41L8.8,7.044q.029-.144.086-.374t.086-.41A2.4,2.4,0,0,0,9,5.88Zm0,5.564a.946.946,0,0,0-.295-.7.982.982,0,0,0-.712-.288.965.965,0,0,0-.7.288.946.946,0,0,0-.295.7.97.97,0,0,0,.295.712.953.953,0,0,0,.7.295A1.006,1.006,0,0,0,9,11.443Z" fill="#b90303"/>
</svg>
