<svg id="Layer_1" xmlns="http://www.w3.org/2000/svg" width="24.005" height="25.904" viewBox="0 0 24.005 25.904">
  <g id="Group_2960" data-name="Group 2960" transform="translate(0)">
    <g id="Group_2878" data-name="Group 2878" transform="translate(0.253 24.335)">
      <g id="Group_2877" data-name="Group 2877">
        <path id="Path_10417" data-name="Path 10417" d="M34.989,240.5H12.28a.4.4,0,0,0-.395.395v.526a.4.4,0,0,0,.395.395h22.71a.4.4,0,0,0,.395-.395v-.526A.4.4,0,0,0,34.989,240.5Z" transform="translate(-11.885 -240.5)" fill="#1eaaad"/>
      </g>
    </g>
    <g id="Group_2880" data-name="Group 2880" transform="translate(14.91)">
      <g id="Group_2879" data-name="Group 2879">
        <path id="Path_10418" data-name="Path 10418" d="M158.037.624A.788.788,0,0,1,157.4.012c0-.014-.029-.014-.028,0a.788.788,0,0,1-.627.622c-.014,0-.014.021,0,.028a.788.788,0,0,1,.636.613c0,.014.029.014.028,0a.788.788,0,0,1,.627-.622c.014-.007.014-.029,0-.028Z" transform="translate(-156.735 -0.001)" fill="#70d6f9"/>
      </g>
    </g>
    <g id="Group_2882" data-name="Group 2882" transform="translate(20.563 16.79)">
      <g id="Group_2881" data-name="Group 2881">
        <path id="Path_10419" data-name="Path 10419" d="M214.037,166.489H213.8v-.233a.326.326,0,0,0-.324-.324.32.32,0,0,0-.324.324v.233h-.233a.326.326,0,0,0-.324.324.32.32,0,0,0,.324.324h.233v.233a.326.326,0,0,0,.324.324.32.32,0,0,0,.324-.324v-.233h.233a.326.326,0,0,0,.324-.324A.32.32,0,0,0,214.037,166.489Z" transform="translate(-212.6 -165.932)" fill="#1eaaad"/>
      </g>
    </g>
    <g id="Group_2884" data-name="Group 2884" transform="translate(3.346 6.509)">
      <g id="Group_2883" data-name="Group 2883">
        <path id="Path_10420" data-name="Path 10420" d="M44.307,65.228a1.123,1.123,0,0,1-.9-.88c0-.02-.04-.02-.04,0a1.123,1.123,0,0,1-.9.88c-.02,0-.02.03,0,.04a1.123,1.123,0,0,1,.9.88c0,.02.04.02.04,0a1.123,1.123,0,0,1,.9-.88C44.327,65.258,44.327,65.228,44.307,65.228Z" transform="translate(-42.45 -64.332)" fill="#1eaaad"/>
      </g>
    </g>
    <g id="Group_2886" data-name="Group 2886" transform="translate(20.441 20.473)">
      <g id="Group_2885" data-name="Group 2885">
        <path id="Path_10421" data-name="Path 10421" d="M211.744,202.332a.344.344,0,1,0,.344.344A.344.344,0,0,0,211.744,202.332Z" transform="translate(-211.4 -202.332)" fill="#f5c84c"/>
      </g>
    </g>
    <g id="Group_2888" data-name="Group 2888" transform="translate(5.466 4.385)">
      <g id="Group_2887" data-name="Group 2887" transform="translate(0)">
        <path id="Path_10422" data-name="Path 10422" d="M63.744,43.332a.344.344,0,1,0,.344.344A.344.344,0,0,0,63.744,43.332Z" transform="translate(-63.4 -43.332)" fill="#87d147"/>
      </g>
    </g>
    <g id="Group_2890" data-name="Group 2890" transform="translate(4.481 17.791)">
      <g id="Group_2889" data-name="Group 2889" transform="translate(0)">
        <path id="Path_10423" data-name="Path 10423" d="M55.314,181.434a.3.3,0,0,1,.3-.293h.639a.427.427,0,0,1-.427-.427v-4.89l-.866.218a1.443,1.443,0,0,0-1.088,1.319l-.2,3.477a.867.867,0,0,1,.489.777v.754h2.078A.925.925,0,0,1,55.314,181.434Z" transform="translate(-53.672 -175.824)" fill="#1eaaad"/>
      </g>
    </g>
    <g id="Group_2892" data-name="Group 2892" transform="translate(16.94 17.791)">
      <g id="Group_2891" data-name="Group 2891">
        <path id="Path_10424" data-name="Path 10424" d="M176.817,182.369h2.656l-.29-5.008a1.443,1.443,0,0,0-1.088-1.319l-.866-.218v4.89a.427.427,0,0,1-.427.427h.639a.3.3,0,0,1,.3.293A.925.925,0,0,1,176.817,182.369Z" transform="translate(-176.801 -175.825)" fill="#1eaaad"/>
      </g>
    </g>
    <g id="Group_2894" data-name="Group 2894" transform="translate(8.347 7.321)">
      <g id="Group_2893" data-name="Group 2893">
        <path id="Path_10425" data-name="Path 10425" d="M99.182,73.547a.2.2,0,0,0-.189-.192,3.806,3.806,0,0,1-2.626-.948.2.2,0,0,0-.293.018,3.963,3.963,0,0,1-3.967,1.3.2.2,0,0,0-.236.189v2.943A3.665,3.665,0,0,0,93.834,80.1h3.385a3.665,3.665,0,0,0,1.963-3.237V73.6C99.182,73.585,99.182,73.566,99.182,73.547Z" transform="translate(-91.871 -72.35)" fill="#f9d0b4"/>
      </g>
    </g>
    <g id="Group_2896" data-name="Group 2896" transform="translate(7.16 3.915)">
      <g id="Group_2895" data-name="Group 2895">
        <path id="Path_10426" data-name="Path 10426" d="M88.368,39.759c0-.09,0-.179.013-.267a2.044,2.044,0,0,0-1.6.225,2.09,2.09,0,0,0-1.791-1.022H83.915a3.785,3.785,0,0,0-3.773,3.773v1.691a1.516,1.516,0,0,1,1.187-.316v-.176a.2.2,0,0,1,.236-.189,3.963,3.963,0,0,0,3.967-1.3.2.2,0,0,1,.293-.018,3.806,3.806,0,0,0,2.626.948.2.2,0,0,1,.189.192c0,.019,0,.038,0,.057v.489a1.517,1.517,0,0,1,1.293.41V42.344A2.917,2.917,0,0,1,88.368,39.759Z" transform="translate(-80.142 -38.695)" fill="#754e34"/>
      </g>
    </g>
    <g id="Group_2898" data-name="Group 2898" transform="translate(15.649 9.045)">
      <g id="Group_2897" data-name="Group 2897">
        <path id="Path_10427" data-name="Path 10427" d="M164.282,89.389a1.531,1.531,0,0,0-.235.019v2.768c0,.082,0,.164-.009.245a1.526,1.526,0,1,0,.244-3.031Z" transform="translate(-164.038 -89.389)" fill="#f9d0b4"/>
      </g>
    </g>
    <g id="Group_2900" data-name="Group 2900" transform="translate(6.586 9.045)">
      <g id="Group_2899" data-name="Group 2899">
        <path id="Path_10428" data-name="Path 10428" d="M76.231,92.174V89.407a1.527,1.527,0,1,0,.009,3.013h0C76.235,92.338,76.231,92.257,76.231,92.174Z" transform="translate(-74.47 -89.388)" fill="#f9d0b4"/>
      </g>
    </g>
    <g id="Group_2902" data-name="Group 2902" transform="translate(16.94 22.399)">
      <g id="Group_2901" data-name="Group 2901">
        <path id="Path_10429" data-name="Path 10429" d="M176.817,223.3h2.656l-.112-1.937h-2.132v.283a.427.427,0,0,1-.427.427h.639a.3.3,0,0,1,.3.293A.925.925,0,0,1,176.817,223.3Z" transform="translate(-176.801 -221.359)" fill="#f9d0b4"/>
      </g>
    </g>
    <g id="Group_2904" data-name="Group 2904" transform="translate(4.481 22.399)">
      <g id="Group_2903" data-name="Group 2903" transform="translate(0)">
        <path id="Path_10430" data-name="Path 10430" d="M55.314,222.362a.3.3,0,0,1,.3-.293h.639a.427.427,0,0,1-.427-.427v-.283H53.7l-.024.406a.867.867,0,0,1,.489.777v.754h2.078A.925.925,0,0,1,55.314,222.362Z" transform="translate(-53.672 -221.359)" fill="#f9d0b4"/>
      </g>
    </g>
    <g id="Group_2906" data-name="Group 2906" transform="translate(10.862 12.445)">
      <g id="Group_2905" data-name="Group 2905">
        <path id="Path_10431" data-name="Path 10431" d="M119.122,123.053a.253.253,0,0,0-.356.031,1.117,1.117,0,0,1-1.593,0,.253.253,0,1,0-.388.325,1.62,1.62,0,0,0,2.369,0A.253.253,0,0,0,119.122,123.053Z" transform="translate(-116.726 -122.994)"/>
      </g>
    </g>
    <g id="Group_2908" data-name="Group 2908" transform="translate(13.155 10.298)">
      <g id="Group_2907" data-name="Group 2907">
        <circle id="Ellipse_21" data-name="Ellipse 21" cx="0.466" cy="0.466" r="0.466"/>
      </g>
    </g>
    <g id="Group_2910" data-name="Group 2910" transform="translate(10.022 10.298)">
      <g id="Group_2909" data-name="Group 2909">
        <circle id="Ellipse_22" data-name="Ellipse 22" cx="0.466" cy="0.466" r="0.466"/>
      </g>
    </g>
    <g id="Group_2912" data-name="Group 2912" transform="translate(17.211 17.562)">
      <g id="Group_2911" data-name="Group 2911">
        <path id="Path_10432" data-name="Path 10432" d="M181.843,175.316a1.688,1.688,0,0,0-1.279-1.55l-.769-.194a.253.253,0,0,0-.124.491l.769.194a1.185,1.185,0,0,1,.9,1.088l.285,4.915a.253.253,0,0,0,.252.238h.015a.253.253,0,0,0,.238-.267Z" transform="translate(-179.48 -173.565)"/>
      </g>
    </g>
    <g id="Group_2914" data-name="Group 2914" transform="translate(4.233 17.562)">
      <g id="Group_2913" data-name="Group 2913" transform="translate(0)">
        <path id="Path_10433" data-name="Path 10433" d="M53.778,173.748a.253.253,0,0,0-.307-.184l-.772.194a1.688,1.688,0,0,0-1.279,1.549l-.2,3.389a.253.253,0,0,0,.238.267h.015a.253.253,0,0,0,.252-.238l.2-3.389a1.185,1.185,0,0,1,.9-1.088l.772-.194A.253.253,0,0,0,53.778,173.748Z" transform="translate(-51.223 -173.556)"/>
      </g>
    </g>
    <g id="Group_2916" data-name="Group 2916" transform="translate(8.094 7.068)">
      <g id="Group_2915" data-name="Group 2915">
        <path id="Path_10434" data-name="Path 10434" d="M97.188,71.293a.448.448,0,0,0-.434-.44,3.575,3.575,0,0,1-2.457-.876.45.45,0,0,0-.668.042,3.682,3.682,0,0,1-3.717,1.213.449.449,0,0,0-.376.091.444.444,0,0,0-.165.347v2.941a3.914,3.914,0,0,0,2.049,3.435.253.253,0,1,0,.242-.444,3.408,3.408,0,0,1-1.785-2.991v-2.87a4.233,4.233,0,0,0,4.11-1.36,4.059,4.059,0,0,0,2.7.976v3.255A3.409,3.409,0,0,1,94.9,77.6a.253.253,0,1,0,.242.444,3.914,3.914,0,0,0,2.049-3.435V71.356c0-.021,0-.042,0-.062Z" transform="translate(-89.371 -69.849)"/>
      </g>
    </g>
    <g id="Group_2921" data-name="Group 2921" transform="translate(6.907 3.662)">
      <g id="Group_2918" data-name="Group 2918">
        <g id="Group_2917" data-name="Group 2917">
          <path id="Path_10435" data-name="Path 10435" d="M86.125,36.981a2.34,2.34,0,0,0-1.512.16A2.354,2.354,0,0,0,82.74,36.2H81.667a4.031,4.031,0,0,0-4.026,4.026v1.613a.253.253,0,0,0,.506,0V40.222A3.524,3.524,0,0,1,81.667,36.7H82.74a1.847,1.847,0,0,1,1.574.9.253.253,0,0,0,.347.087,1.838,1.838,0,0,1,1.35-.215.253.253,0,1,0,.115-.493Z" transform="translate(-77.641 -36.196)"/>
        </g>
      </g>
      <g id="Group_2920" data-name="Group 2920" transform="translate(9.792 3.732)">
        <g id="Group_2919" data-name="Group 2919">
          <path id="Path_10436" data-name="Path 10436" d="M174.662,73.083a.253.253,0,0,0-.253.253v1.753a.253.253,0,1,0,.506,0V73.336A.253.253,0,0,0,174.662,73.083Z" transform="translate(-174.409 -73.083)"/>
        </g>
      </g>
    </g>
    <g id="Group_2923" data-name="Group 2923" transform="translate(15.498 8.792)">
      <g id="Group_2922" data-name="Group 2922">
        <path id="Path_10437" data-name="Path 10437" d="M162.941,86.889q-.074,0-.147.006a.253.253,0,0,0,.043.5q.051,0,.1,0a1.273,1.273,0,1,1,0,2.547,1.1,1.1,0,0,1-.116-.006.253.253,0,1,0-.052.5,1.623,1.623,0,0,0,.168.009,1.779,1.779,0,0,0,0-3.559Z" transform="translate(-162.546 -86.889)"/>
      </g>
    </g>
    <g id="Group_2925" data-name="Group 2925" transform="translate(6.333 8.792)">
      <g id="Group_2924" data-name="Group 2924">
        <path id="Path_10438" data-name="Path 10438" d="M73.846,89.938c-.032,0-.064,0-.1,0a1.273,1.273,0,1,1,0-2.547c.033,0,.067,0,.1,0a.253.253,0,1,0,.041-.5c-.046,0-.093-.006-.14-.006a1.779,1.779,0,1,0,0,3.558c.048,0,.1,0,.143-.007a.253.253,0,1,0-.045-.5Z" transform="translate(-71.969 -86.89)"/>
      </g>
    </g>
    <g id="Group_2927" data-name="Group 2927" transform="translate(17.15 22.146)">
      <g id="Group_2926" data-name="Group 2926">
        <path id="Path_10439" data-name="Path 10439" d="M181.1,218.859h-1.979a.253.253,0,1,0,0,.506H181.1a.253.253,0,1,0,0-.506Z" transform="translate(-178.871 -218.859)"/>
      </g>
    </g>
    <g id="Group_2929" data-name="Group 2929" transform="translate(4.332 22.146)">
      <g id="Group_2928" data-name="Group 2928" transform="translate(0)">
        <path id="Path_10440" data-name="Path 10440" d="M54.408,218.859H52.454a.253.253,0,0,0,0,.506h1.954a.253.253,0,1,0,0-.506Z" transform="translate(-52.201 -218.859)"/>
      </g>
    </g>
    <g id="Group_2931" data-name="Group 2931" transform="translate(6.637 15.068)">
      <g id="Group_2930" data-name="Group 2930">
        <path id="Path_10441" data-name="Path 10441" d="M85.279,148.91H75.4a.427.427,0,0,0-.427.427v7.186a.427.427,0,0,0,.427.427h9.876a.427.427,0,0,0,.427-.427v-7.186A.428.428,0,0,0,85.279,148.91Z" transform="translate(-74.975 -148.91)" fill="#edf4fc"/>
      </g>
    </g>
    <g id="Group_2933" data-name="Group 2933" transform="translate(6.123 23.109)">
      <g id="Group_2932" data-name="Group 2932" transform="translate(0)">
        <path id="Path_10442" data-name="Path 10442" d="M81.356,228.377H70.2a.3.3,0,0,0-.3.3.925.925,0,0,0,.925.925h9.908a.925.925,0,0,0,.925-.925A.3.3,0,0,0,81.356,228.377Z" transform="translate(-69.899 -228.377)" fill="#dae6f1"/>
      </g>
    </g>
    <g id="Group_2935" data-name="Group 2935" transform="translate(11.03 18.835)">
      <g id="Group_2934" data-name="Group 2934">
        <path id="Path_10443" data-name="Path 10443" d="M120.085,186.144h-1.438a.253.253,0,1,0,0,.506h1.438a.253.253,0,1,0,0-.506Z" transform="translate(-118.394 -186.144)"/>
      </g>
    </g>
    <g id="Group_2938" data-name="Group 2938" transform="translate(6.384 14.815)">
      <g id="Group_2937" data-name="Group 2937">
        <g id="Group_2936" data-name="Group 2936">
          <path id="Path_10444" data-name="Path 10444" d="M83.031,146.41H73.155a.681.681,0,0,0-.68.68v7.186a.681.681,0,0,0,.68.68h9.876a.681.681,0,0,0,.68-.68V147.09A.681.681,0,0,0,83.031,146.41Zm.174,7.867a.175.175,0,0,1-.174.174H73.155a.175.175,0,0,1-.174-.174V147.09a.175.175,0,0,1,.174-.174h9.876a.175.175,0,0,1,.174.174v7.186Z" transform="translate(-72.475 -146.41)"/>
        </g>
      </g>
    </g>
    <g id="Group_2941" data-name="Group 2941" transform="translate(5.87 22.856)">
      <g id="Group_2940" data-name="Group 2940" transform="translate(0)">
        <g id="Group_2939" data-name="Group 2939">
          <path id="Path_10445" data-name="Path 10445" d="M79.108,225.877H67.954a.555.555,0,0,0-.555.555,1.179,1.179,0,0,0,1.178,1.178h9.908a1.179,1.179,0,0,0,1.178-1.178A.555.555,0,0,0,79.108,225.877Zm-.623,1.227H68.577a.673.673,0,0,1-.672-.672.049.049,0,0,1,.049-.049H79.108a.049.049,0,0,1,.049.049A.673.673,0,0,1,78.485,227.1Z" transform="translate(-67.399 -225.877)"/>
        </g>
      </g>
    </g>
    <g id="Group_2943" data-name="Group 2943" transform="translate(15.386 2.062)">
      <g id="Group_2942" data-name="Group 2942">
        <circle id="Ellipse_23" data-name="Ellipse 23" cx="2.918" cy="2.918" r="2.918" fill="#b2e26d"/>
      </g>
    </g>
    <g id="Group_2945" data-name="Group 2945" transform="translate(16.711 3.996)">
      <g id="Group_2944" data-name="Group 2944">
        <path id="Path_10446" data-name="Path 10446" d="M177.509,39.647a.537.537,0,0,0-.759,0l-.862.862-.432-.432a.537.537,0,1,0-.759.759l.812.812a.537.537,0,0,0,.76,0l1.241-1.241A.537.537,0,0,0,177.509,39.647Z" transform="translate(-174.539 -39.49)" fill="#edf4fc"/>
      </g>
    </g>
    <g id="Group_2949" data-name="Group 2949" transform="translate(16.459 3.743)">
      <g id="Group_2948" data-name="Group 2948">
        <g id="Group_2947" data-name="Group 2947">
          <g id="Group_2946" data-name="Group 2946">
            <path id="Path_10447" data-name="Path 10447" d="M175.442,37.224a.791.791,0,0,0-1.117,0l-.683.683-.253-.253a.79.79,0,0,0-1.117,1.117l.812.812a.79.79,0,0,0,1.117,0l1.241-1.241A.791.791,0,0,0,175.442,37.224Zm-.358.76-1.241,1.241a.291.291,0,0,1-.4,0l-.812-.812a.284.284,0,0,1,.4-.4l.432.432a.253.253,0,0,0,.358,0l.862-.862a.284.284,0,0,1,.4.4Z" transform="translate(-172.041 -36.993)"/>
          </g>
        </g>
      </g>
    </g>
    <g id="Group_2952" data-name="Group 2952" transform="translate(15.133 1.809)">
      <g id="Group_2951" data-name="Group 2951">
        <g id="Group_2950" data-name="Group 2950">
          <path id="Path_10448" data-name="Path 10448" d="M162.107,17.876a3.171,3.171,0,1,0,3.171,3.171A3.174,3.174,0,0,0,162.107,17.876Zm0,5.835a2.665,2.665,0,1,1,2.665-2.665A2.668,2.668,0,0,1,162.107,23.711Z" transform="translate(-158.936 -17.876)"/>
        </g>
      </g>
    </g>
    <g id="Group_2955" data-name="Group 2955" transform="translate(0 24.082)">
      <g id="Group_2954" data-name="Group 2954">
        <g id="Group_2953" data-name="Group 2953">
          <path id="Path_10449" data-name="Path 10449" d="M32.742,238H10.032a.648.648,0,0,0-.647.647v.526a.648.648,0,0,0,.647.647h22.71a.648.648,0,0,0,.647-.647v-.526A.648.648,0,0,0,32.742,238Zm.142,1.174a.142.142,0,0,1-.142.142H10.032a.142.142,0,0,1-.142-.142v-.526a.142.142,0,0,1,.142-.142h22.71a.142.142,0,0,1,.142.142Z" transform="translate(-9.385 -238)"/>
        </g>
      </g>
    </g>
    <g id="Group_2959" data-name="Group 2959" transform="translate(1.479 22.463)">
      <g id="Group_2958" data-name="Group 2958">
        <g id="Group_2957" data-name="Group 2957">
          <g id="Group_2956" data-name="Group 2956">
            <path id="Path_10450" data-name="Path 10450" d="M26.626,222H25.118A1.12,1.12,0,0,0,24,223.118v.754a.253.253,0,0,0,.253.253h3.238a.253.253,0,0,0,.253-.253v-.754A1.12,1.12,0,0,0,26.626,222Zm.612,1.619H24.506v-.5a.613.613,0,0,1,.612-.612h1.507a.613.613,0,0,1,.612.612Z" transform="translate(-24 -222)"/>
          </g>
        </g>
      </g>
    </g>
  </g>
</svg>
