<svg xmlns="http://www.w3.org/2000/svg" width="14.773" height="16" viewBox="0 0 14.773 16">
  <path id="Path_10371" data-name="Path 10371" d="M33.455,12.47l-.083-.179c-.248-.586-3.3-1.483-3.554-1.5l-.2.016c-.416.086-.875.48-1.837,1.333a12.693,12.693,0,0,1-3.27-2.629A11.049,11.049,0,0,1,22.465,6.15c1.1-.973,1.555-1.4,1.584-1.865.016-.253-.508-3.39-1.06-3.708l-.165-.1A2.037,2.037,0,0,0,21.353.024a1.288,1.288,0,0,0-.412.166,5.235,5.235,0,0,0-1.806,1.8c-.273.547-.4,5.542,3.347,9.764A12.1,12.1,0,0,0,30.888,16h.193a2.109,2.109,0,0,0,.344-.029l.02,0,.061-.019a5.2,5.2,0,0,0,2-1.577A1.716,1.716,0,0,0,33.455,12.47Z" transform="translate(-19.015 0)" fill="#37383b"/>
</svg>
