<svg xmlns="http://www.w3.org/2000/svg" width="61.499" height="61.499" viewBox="0 0 61.499 61.499">
  <path id="deadline" d="M40.959,31.35a2.4,2.4,0,0,1,2.4,2.4v7.261a2.4,2.4,0,0,1-.856,1.839l-3.849,3.237a2.4,2.4,0,1,1-3.092-3.677l2.993-2.517V33.752a2.4,2.4,0,0,1,2.4-2.4ZM59.1,21.861a2.4,2.4,0,0,0-2.4,2.4v3.7A20.486,20.486,0,1,0,40.959,61.5a20.686,20.686,0,0,0,8.924-2.025c.047-.021.094-.042.14-.065l.038-.023c.323-.159.644-.324.959-.5a2.4,2.4,0,0,0-2.345-4.194,15.7,15.7,0,1,1-7.77-29.36A15.671,15.671,0,0,1,53.349,31.47H49.607a2.4,2.4,0,1,0,0,4.8h4.684A7.215,7.215,0,0,0,61.5,29.068v-4.8a2.4,2.4,0,0,0-2.4-2.4ZM57.38,49.118a2.4,2.4,0,1,0,.648,3.334,2.4,2.4,0,0,0-.648-3.334Zm4.036-7.427c-.015-.077-.035-.152-.057-.228s-.049-.149-.079-.221a2.325,2.325,0,0,0-.1-.213c-.038-.069-.077-.137-.12-.2a2.253,2.253,0,0,0-.141-.19,2.371,2.371,0,0,0-.334-.334,2.2,2.2,0,0,0-.19-.14,2.307,2.307,0,0,0-.2-.12c-.07-.038-.141-.071-.213-.1s-.147-.057-.221-.079-.153-.042-.228-.058a2.2,2.2,0,0,0-.234-.035,2.333,2.333,0,0,0-.472,0,2.183,2.183,0,0,0-.233.035,2.433,2.433,0,0,0-.449.137,2.2,2.2,0,0,0-.213.1,2.117,2.117,0,0,0-.2.12,2,2,0,0,0-.19.14,2.249,2.249,0,0,0-.175.159,2.179,2.179,0,0,0-.16.175,2.425,2.425,0,0,0-.259.391,2.326,2.326,0,0,0-.1.213c-.03.072-.056.146-.079.221s-.042.151-.058.228a2.4,2.4,0,0,0,0,.939c.016.076.035.152.058.228s.049.149.079.221a2.325,2.325,0,0,0,.1.213c.036.068.077.137.12.2a2.238,2.238,0,0,0,.139.19,2.179,2.179,0,0,0,.16.175,2.248,2.248,0,0,0,.175.159,2.181,2.181,0,0,0,.19.14,2.117,2.117,0,0,0,.2.12,2.2,2.2,0,0,0,.213.1,2.338,2.338,0,0,0,.221.079c.075.023.152.042.228.058a2.183,2.183,0,0,0,.233.035,2.218,2.218,0,0,0,.236.012,2.476,2.476,0,0,0,.47-.047c.076-.015.153-.035.228-.058s.149-.049.221-.079.143-.063.213-.1a2.308,2.308,0,0,0,.2-.12c.065-.043.13-.091.19-.14a2.371,2.371,0,0,0,.334-.334,2.252,2.252,0,0,0,.141-.19c.043-.065.083-.134.12-.2a2.324,2.324,0,0,0,.1-.213c.03-.072.056-.146.079-.221s.042-.152.057-.228a2.379,2.379,0,0,0,.035-.706A2.353,2.353,0,0,0,61.416,41.691Zm-41.717,15H9.609a4.81,4.81,0,0,1-4.8-4.8V14.414a4.81,4.81,0,0,1,4.8-4.8h3v2.4a2.4,2.4,0,1,0,4.8,0v-2.4h10.81v2.4a2.4,2.4,0,0,0,4.8,0v-2.4h10.93v2.4a2.4,2.4,0,1,0,4.8,0v-2.4h3.123a4.81,4.81,0,0,1,4.8,4.8,2.4,2.4,0,0,0,4.8,0A9.62,9.62,0,0,0,51.889,4.8H48.766V2.4a2.4,2.4,0,1,0-4.8,0V4.8H33.031V2.4a2.4,2.4,0,0,0-4.8,0V4.8H17.416V2.4a2.4,2.4,0,1,0-4.8,0V4.8h-3A9.62,9.62,0,0,0,0,14.414V51.89A9.62,9.62,0,0,0,9.609,61.5H19.7a2.4,2.4,0,0,0,0-4.8Zm0,0" transform="translate(0)" fill="#27b4bb"/>
</svg>
