<svg xmlns="http://www.w3.org/2000/svg" width="16.074" height="12.039" viewBox="0 0 16.074 12.039">
  <g id="Group_3368" data-name="Group 3368" transform="translate(0 -64.266)">
    <path id="Path_10369" data-name="Path 10369" d="M9.38,175.869a2.418,2.418,0,0,1-2.687,0L.107,171.478Q.052,171.441,0,171.4v7.2a1.479,1.479,0,0,0,1.48,1.48H14.594a1.479,1.479,0,0,0,1.48-1.48v-7.2c-.035.026-.071.052-.107.076Z" transform="translate(0 -103.772)" fill="#37383b"/>
    <path id="Path_10370" data-name="Path 10370" d="M.629,66.922l6.587,4.391a1.476,1.476,0,0,0,1.642,0l6.587-4.391a1.41,1.41,0,0,0,.629-1.176,1.481,1.481,0,0,0-1.479-1.479H1.479A1.481,1.481,0,0,0,0,65.746a1.41,1.41,0,0,0,.629,1.176Z" fill="#37383b"/>
  </g>
</svg>
