<svg xmlns="http://www.w3.org/2000/svg" width="32" height="32" viewBox="0 0 32 32">
  <g id="Group_3356" data-name="Group 3356" transform="translate(-253.084 -34)">
    <circle id="Ellipse_36" data-name="Ellipse 36" cx="16" cy="16" r="16" transform="translate(253.084 34)" fill="#1eaaad"/>
    <g id="dollar" transform="translate(257.084 38)">
      <path id="Path_10535" data-name="Path 10535" d="M12,24A12,12,0,0,1,3.515,3.515,12,12,0,0,1,20.485,20.485,11.921,11.921,0,0,1,12,24ZM12,1.5A10.5,10.5,0,1,0,22.5,12,10.512,10.512,0,0,0,12,1.5Z" transform="translate(0 0)" fill="#fff"/>
      <path id="Path_10536" data-name="Path 10536" d="M187.838,102.194a1.76,1.76,0,1,1,2.132-1.721.873.873,0,0,0,1.706,0,3.334,3.334,0,0,0-2.985-3.019v-.766a.873.873,0,0,0-1.706,0v.766A3.334,3.334,0,0,0,184,100.474c0,1.708,1.722,3.1,3.838,3.1a1.76,1.76,0,1,1-2.132,1.721.873.873,0,0,0-1.706,0,3.334,3.334,0,0,0,2.985,3.019v.766a.873.873,0,0,0,1.706,0v-.766a3.334,3.334,0,0,0,2.985-3.019C191.676,103.584,189.954,102.194,187.838,102.194Z" transform="translate(-175.838 -90.883)" fill="#fff"/>
    </g>
  </g>
</svg>
