<svg xmlns="http://www.w3.org/2000/svg" width="17.159" height="17.159" viewBox="0 0 17.159 17.159">
  <g id="Group_3368" data-name="Group 3368" transform="translate(0 -1)">
    <path id="Path_10385" data-name="Path 10385" d="M13.741,18.159H3.418A3.422,3.422,0,0,1,0,14.741V4.418A3.422,3.422,0,0,1,3.418,1H13.741a3.422,3.422,0,0,1,3.418,3.418V14.741a3.422,3.422,0,0,1-3.418,3.418ZM3.418,2.341A2.08,2.08,0,0,0,1.341,4.418V14.741a2.08,2.08,0,0,0,2.078,2.078H13.741a2.08,2.08,0,0,0,2.078-2.078V4.418a2.08,2.08,0,0,0-2.078-2.078Z" fill="#1eaaad"/>
    <path id="Path_10386" data-name="Path 10386" d="M236.67,107.011a.67.67,0,0,1-.67-.67V100.11a.67.67,0,1,1,1.341,0v6.231A.67.67,0,0,1,236.67,107.011Z" transform="translate(-228.091 -95.141)" fill="#1eaaad"/>
    <path id="Path_10387" data-name="Path 10387" d="M152.278,222.106a1.126,1.126,0,0,1-.8-.331l-2.6-2.6a.67.67,0,1,1,.948-.948l2.452,2.453,2.452-2.453a.67.67,0,1,1,.948.948l-2.6,2.6A1.126,1.126,0,0,1,152.278,222.106Z" transform="translate(-143.698 -209.757)" fill="#1eaaad"/>
    <path id="Path_10388" data-name="Path 10388" d="M155.2,373.9H149.35a.67.67,0,1,1,0-1.341H155.2a.67.67,0,1,1,0,1.341Z" transform="translate(-143.697 -359.107)" fill="#1eaaad"/>
  </g>
</svg>
