<svg xmlns="http://www.w3.org/2000/svg" width="29.109" height="28" viewBox="0 0 29.109 28">
  <g id="Group_3259" data-name="Group 3259" transform="translate(0 0)">
    <path id="Path_10382" data-name="Path 10382" d="M29.512,22.492,19.888,3.873a4.7,4.7,0,0,0-8.188.021L1.622,22.462A4.7,4.7,0,0,0,5.714,29.5H25.4a4.7,4.7,0,0,0,4.112-7Zm-1.973,3.532A2.446,2.446,0,0,1,25.4,27.256H5.714a2.469,2.469,0,0,1-2.139-3.7l.012-.021L13.666,4.983a2.47,2.47,0,0,1,4.264-.041l9.615,18.619a2.441,2.441,0,0,1-.006,2.464Z" transform="translate(-1.004 -1.496)" fill="#8f8f8f"/>
    <path id="Path_10383" data-name="Path 10383" d="M14.16,9A1.16,1.16,0,0,0,13,10.16v8.12a1.16,1.16,0,1,0,2.32,0V10.16A1.16,1.16,0,0,0,14.16,9Z" transform="translate(0.393 -0.766)" fill="#8f8f8f"/>
    <circle id="Ellipse_15" data-name="Ellipse 15" cx="1.16" cy="1.16" r="1.16" transform="translate(13.393 19.541)" fill="#8f8f8f"/>
  </g>
</svg>
