<svg xmlns="http://www.w3.org/2000/svg" width="25.852" height="28" viewBox="0 0 25.852 28">
  <path id="Path_10371" data-name="Path 10371" d="M44.285,21.824l-.145-.313c-.434-1.025-5.777-2.6-6.219-2.621l-.354.027c-.728.15-1.531.84-3.215,2.333a22.212,22.212,0,0,1-5.722-4.6,19.336,19.336,0,0,1-3.577-5.887c1.921-1.7,2.722-2.442,2.773-3.264.027-.443-.889-5.932-1.855-6.489L25.682.827A3.565,3.565,0,0,0,23.106.043a2.254,2.254,0,0,0-.721.291,9.161,9.161,0,0,0-3.161,3.152c-.477.958-.694,9.7,5.858,17.087A21.179,21.179,0,0,0,39.794,28h.338a3.691,3.691,0,0,0,.6-.051l.034-.005.107-.033a9.091,9.091,0,0,0,3.506-2.76C45.334,23.973,44.654,22.574,44.285,21.824Z" transform="translate(-19.015 0)" fill="#1eaaad"/>
</svg>
