<svg xmlns="http://www.w3.org/2000/svg" width="34" height="28.33" viewBox="0 0 34 28.33">
  <path id="Path_10542" data-name="Path 10542" d="M24.969,30a8.36,8.36,0,0,0-5.027,1.64A10.967,10.967,0,0,0,17,34.979a10.966,10.966,0,0,0-2.941-3.339A8.36,8.36,0,0,0,9.031,30,8.94,8.94,0,0,0,0,39.246c0,5.694,4.844,9.591,12.177,15.489,1.245,1,2.657,2.137,4.124,3.348a1.111,1.111,0,0,0,1.4,0c1.467-1.211,2.879-2.346,4.125-3.349C29.156,48.836,34,44.94,34,39.246A8.94,8.94,0,0,0,24.969,30Z" transform="translate(0 -30)" fill="#1eaaad"/>
</svg>
