<svg xmlns="http://www.w3.org/2000/svg" width="27.999" height="28" viewBox="0 0 27.999 28">
  <g id="Group_3258" data-name="Group 3258" transform="translate(3 0)">
    <path id="Path_10372" data-name="Path 10372" d="M19.866,15.934l-.011.09c-2.649-1.32-2.926-1.5-3.268-.983-.237.355-.929,1.161-1.137,1.4s-.42.253-.778.09a9.776,9.776,0,0,1-2.895-1.789,10.928,10.928,0,0,1-2-2.493c-.353-.609.385-.7,1.058-1.968a.662.662,0,0,0-.03-.631C10.715,9.469,10,7.7,9.694,6.993s-.587-.614-.809-.614a1.793,1.793,0,0,0-1.648.414c-1.944,2.137-1.454,4.341.21,6.685,3.269,4.279,5.011,5.066,8.2,6.16a4.983,4.983,0,0,0,2.265.146,3.707,3.707,0,0,0,2.428-1.718,2.982,2.982,0,0,0,.217-1.716c-.089-.163-.325-.253-.687-.416Z" transform="translate(-1.778 0.848)" fill="#1eaaad"/>
    <path id="Path_10373" data-name="Path 10373" d="M23.94,4.024C14.969-4.648.124,1.642.118,13.875a13.808,13.808,0,0,0,1.861,6.936L0,28l7.391-1.927A13.965,13.965,0,0,0,28,13.882a13.76,13.76,0,0,0-4.077-9.813Zm1.729,9.82A11.615,11.615,0,0,1,8.155,23.765l-.42-.25L3.36,24.652,4.532,20.4l-.279-.437A11.571,11.571,0,0,1,22.275,5.689a11.419,11.419,0,0,1,3.394,8.155Z" transform="translate(-3 0)" fill="#1eaaad"/>
  </g>
</svg>
