<svg xmlns="http://www.w3.org/2000/svg" width="32.344" height="32.344" viewBox="0 0 32.344 32.344">
  <g id="_011-instagram" data-name="011-instagram" opacity="0.88">
    <path id="Path_42" data-name="Path 42" d="M213.191,210.1a3.1,3.1,0,1,1-3.1-3.1A3.1,3.1,0,0,1,213.191,210.1Zm0,0" transform="translate(-193.924 -193.924)" fill="#fff"/>
    <path id="Path_43" data-name="Path 43" d="M150.337,137.625a3.075,3.075,0,0,0-1.762-1.762,5.138,5.138,0,0,0-1.724-.32c-.979-.045-1.273-.054-3.753-.054s-2.773.009-3.753.054a5.142,5.142,0,0,0-1.724.32,3.076,3.076,0,0,0-1.763,1.762,5.14,5.14,0,0,0-.32,1.724c-.045.979-.054,1.273-.054,3.753s.01,2.773.054,3.753a5.138,5.138,0,0,0,.32,1.724,3.075,3.075,0,0,0,1.762,1.762,5.132,5.132,0,0,0,1.724.32c.979.045,1.273.054,3.752.054s2.774-.009,3.752-.054a5.132,5.132,0,0,0,1.724-.32,3.075,3.075,0,0,0,1.762-1.762,5.144,5.144,0,0,0,.32-1.724c.045-.979.054-1.273.054-3.753s-.009-2.773-.054-3.753A5.132,5.132,0,0,0,150.337,137.625ZM143.1,147.87a4.768,4.768,0,1,1,4.768-4.768A4.768,4.768,0,0,1,143.1,147.87Zm4.957-8.611a1.114,1.114,0,1,1,1.114-1.114A1.114,1.114,0,0,1,148.055,139.259Zm0,0" transform="translate(-126.926 -126.93)" fill="#fff"/>
    <path id="Path_44" data-name="Path 44" d="M16.172,0A16.172,16.172,0,1,0,32.344,16.172,16.174,16.174,0,0,0,16.172,0ZM25.4,20a6.813,6.813,0,0,1-.432,2.254,4.748,4.748,0,0,1-2.716,2.716A6.818,6.818,0,0,1,20,25.4c-.99.045-1.307.056-3.829.056s-2.838-.011-3.829-.056a6.818,6.818,0,0,1-2.254-.432,4.748,4.748,0,0,1-2.716-2.716A6.811,6.811,0,0,1,6.942,20c-.046-.991-.056-1.307-.056-3.829s.011-2.838.056-3.829a6.814,6.814,0,0,1,.431-2.254,4.751,4.751,0,0,1,2.716-2.716,6.819,6.819,0,0,1,2.254-.432c.99-.045,1.307-.056,3.829-.056S19.01,6.9,20,6.942a6.821,6.821,0,0,1,2.254.431,4.75,4.75,0,0,1,2.716,2.716,6.812,6.812,0,0,1,.432,2.254c.045.99.056,1.307.056,3.829S25.447,19.01,25.4,20Zm0,0" fill="#fff"/>
  </g>
</svg>
