<svg xmlns="http://www.w3.org/2000/svg" xmlns:xlink="http://www.w3.org/1999/xlink" width="56" height="56" viewBox="0 0 56 56">
  <defs>
    <clipPath id="clip-path">
      <rect id="Rectangle_842" data-name="Rectangle 842" width="56" height="56" transform="translate(1037 541)" fill="#fff" stroke="#707070" stroke-width="1"/>
    </clipPath>
  </defs>
  <g id="Mask_Group_16" data-name="Mask Group 16" transform="translate(-1037 -541)" clip-path="url(#clip-path)">
    <g id="man" transform="translate(1037 541)">
      <path id="Path_10584" data-name="Path 10584" d="M4.643,42.344H51.357a26.8,26.8,0,1,0-46.714,0Z" fill="#ffc839"/>
      <path id="Path_10585" data-name="Path 10585" d="M25.68,37.714A6.411,6.411,0,0,1,28,39.449a6.411,6.411,0,0,1,2.32-1.734l6.54-3.326q-.823-.254-1.677-.452c-1.11-1.11-1.392-3.216-1.443-4.688a12.254,12.254,0,0,1-1.769,1.691,6.482,6.482,0,0,1-7.937,0,12.272,12.272,0,0,1-1.769-1.691c-.051,1.473-.332,3.578-1.443,4.688q-.858.2-1.681.453Z" fill="#ffaa7b"/>
      <path id="Path_10586" data-name="Path 10586" d="M27.731,32.289a6.468,6.468,0,0,1-3.7-1.351,12.262,12.262,0,0,1-1.769-1.691,8.514,8.514,0,0,1-1.05,4.207c1.119,2.259,2.569,4.149,4.036,3.16A5.774,5.774,0,0,0,27.731,32.289Z" fill="#fc9460"/>
      <path id="Path_10587" data-name="Path 10587" d="M25.91,37.368l-2.9-1.476a3.929,3.929,0,0,0-2.98,3.915C19.195,39.951,15,40.875,15,44.8v7.84A26.668,26.668,0,0,0,28,56c.094,0,.187,0,.28,0V39.738C28.28,38.407,25.91,37.368,25.91,37.368Z" fill="#7e6dd1"/>
      <path id="Path_10588" data-name="Path 10588" d="M15.161,52.727V44.8c0-4.238,5.03-4.849,5.03-4.849A3.805,3.805,0,0,1,23.215,36l-3.5-1.779C12.23,36.66,8.654,37.636,6.789,38.967c1.941,1.325,4.994,4.077,4.994,8.288v3.282A26.831,26.831,0,0,0,15.161,52.727Z" fill="#7255ce"/>
      <path id="Path_10589" data-name="Path 10589" d="M36.282,34.218l-6.193,3.15s-2.37,1.039-2.37,2.37V56c.093,0,.186,0,.28,0a27.027,27.027,0,0,0,3.7-.255h0l7.632-2.255h0a26.789,26.789,0,0,0,4.881-2.953V47.255c0-4.211,3.053-6.963,4.994-8.288-1.865-1.331-5.441-2.307-12.928-4.749Z" fill="#9589e8"/>
      <path id="Path_10590" data-name="Path 10590" d="M34.368,31.4a.212.212,0,0,0-.311.144,8.373,8.373,0,0,1-4.015,5.518.538.538,0,0,0-.144.822l3.047,3.49a1.377,1.377,0,0,0,2.254-.253,40.592,40.592,0,0,0,2.643-5.976,1.22,1.22,0,0,0-.259-1.214A12.668,12.668,0,0,0,34.368,31.4Z" fill="#b5b0f7"/>
      <path id="Path_10591" data-name="Path 10591" d="M25.96,37.066a8.156,8.156,0,0,1-1.815-1.4,4.208,4.208,0,0,0-4.107,3.969c.272.553.532,1.055.765,1.488a1.377,1.377,0,0,0,2.254.253l3.047-3.49a.538.538,0,0,0-.143-.822Z" fill="#9589e8"/>
      <path id="Path_10592" data-name="Path 10592" d="M21.945,31.548a.212.212,0,0,0-.311-.144,12.668,12.668,0,0,0-3.216,2.53,1.22,1.22,0,0,0-.259,1.214,38.584,38.584,0,0,0,2.032,4.8c0-4.056,4.107-4.124,4.107-4.124h0a8.5,8.5,0,0,1-2.353-4.274Z" fill="#7e6dd1"/>
      <path id="Path_10593" data-name="Path 10593" d="M44,50.7a26.928,26.928,0,0,0,7.359-8.358,13.852,13.852,0,0,0-.672-1.671A4.456,4.456,0,0,0,49.1,38.892c-1.933,1.295-5.1,4.072-5.1,8.363Z" fill="#b5b0f7"/>
      <path id="Path_10594" data-name="Path 10594" d="M6.9,38.892a4.456,4.456,0,0,0-1.582,1.782,13.887,13.887,0,0,0-.672,1.671A26.927,26.927,0,0,0,12,50.7V47.254c0-4.291-3.172-7.068-5.1-8.363Z" fill="#7e6dd1"/>
      <path id="Path_10595" data-name="Path 10595" d="M38.023,46.006H32.937a1.316,1.316,0,0,0-1.313,1.313V55.3a1.3,1.3,0,0,0,.079.441,26.6,26.6,0,0,0,7.632-2.255V47.318a1.316,1.316,0,0,0-1.312-1.312Z" fill="#b5b0f7"/>
      <path id="Path_10596" data-name="Path 10596" d="M46.319,9.648c-2.544,1.881-5.709,5.051-4.368,9.023,2.078,6.152-7.328,10.031,3.172,14.49,4.2,1.783,6.638,3.643,8.055,5.234A26.822,26.822,0,0,0,46.319,9.648Z" fill="#ffdd40"/>
      <path id="Path_10597" data-name="Path 10597" d="M9.681,9.648c2.544,1.881,5.709,5.051,4.368,9.023-2.078,6.152,7.328,10.031-3.172,14.49-4.2,1.783-6.638,3.643-8.055,5.234A26.822,26.822,0,0,1,9.681,9.648Z" fill="#ffdd40"/>
      <path id="Path_10598" data-name="Path 10598" d="M18.033,17.224H38.078c.036-1.444.276-5.267,1.786-7.99A1.5,1.5,0,0,0,39.965,8c-.548-1.527-2.184-5.1-5.752-6.049a.239.239,0,0,1-.086-.418l.535-.42a.359.359,0,0,0-.153-.636C31.877-.034,23.134-1.249,20.418,4.336A1.267,1.267,0,0,1,19.592,5,4.88,4.88,0,0,0,16.454,7.67a1.512,1.512,0,0,0-.082,1.163A31.527,31.527,0,0,1,18.033,17.224Z" fill="#56415e"/>
      <path id="Path_10599" data-name="Path 10599" d="M27,8.4C23.8,3.518,29.4,0,29.4,0c-3.4.044-7.32.914-8.983,4.334A1.267,1.267,0,0,1,19.592,5,4.88,4.88,0,0,0,16.454,7.67a1.512,1.512,0,0,0-.082,1.163,31.527,31.527,0,0,1,1.662,8.391H22.7C25.652,14.832,28.9,11.3,27,8.4Z" fill="#45304c"/>
      <path id="Path_10600" data-name="Path 10600" d="M38.856,16.64a1.821,1.821,0,0,0-1.839.049,5.431,5.431,0,0,1,.016,1.6l-.456,3.322q0,.4-.024.789a1.5,1.5,0,0,0,1.867-1.348,5.094,5.094,0,0,1,.2-.869c.3-.924,1.363-2.511.239-3.541Z" fill="#ffaa7b"/>
      <path id="Path_10601" data-name="Path 10601" d="M17.144,16.64a1.821,1.821,0,0,1,1.839.049,5.431,5.431,0,0,0-.016,1.6l.456,3.322q0,.4.024.789a1.5,1.5,0,0,1-1.867-1.348,5.094,5.094,0,0,0-.2-.869c-.3-.924-1.363-2.511-.239-3.541Z" fill="#fc9460"/>
      <path id="Path_10602" data-name="Path 10602" d="M36.852,15.663a4.431,4.431,0,0,0-.4-.795,2.387,2.387,0,0,1-.361-1.457c.106-1.47.049-4.344-1.88-5.213a7.126,7.126,0,0,0-4.932.116,4.072,4.072,0,0,1-2.475.029c-1.461,1.121-1.5,3.646-1.4,4.99a2.4,2.4,0,0,1-.366,1.464,4.468,4.468,0,0,0-.39.78,5.382,5.382,0,0,0-.3,2.685l.462,3.367a12.369,12.369,0,0,0,4.781,9.837,6.5,6.5,0,0,0,1.034.654,6.437,6.437,0,0,0,1.34-.8,12.207,12.207,0,0,0,4.719-9.708l.456-3.322a5.313,5.313,0,0,0-.291-2.626Z" fill="#ffc7ab"/>
      <g id="Group_3314" data-name="Group 3314">
        <path id="Path_10603" data-name="Path 10603" d="M29.61,31.318a12.207,12.207,0,0,1-4.719-9.708l-.456-3.323a5.312,5.312,0,0,1,.3-2.65,4.4,4.4,0,0,1,.385-.77,2.365,2.365,0,0,0,.362-1.444c-.1-1.369-.061-3.978,1.52-5.026-.1-.024-.192-.052-.286-.083A7.126,7.126,0,0,0,21.784,8.2c-1.935.871-1.987,3.759-1.879,5.225a2.364,2.364,0,0,1-.362,1.444,4.41,4.41,0,0,0-.385.77,5.312,5.312,0,0,0-.3,2.65l.456,3.323a12.208,12.208,0,0,0,4.719,9.708,6.482,6.482,0,0,0,6.757.726,6.439,6.439,0,0,1-1.179-.726Z" fill="#ffaa7b"/>
      </g>
    </g>
  </g>
</svg>
