<svg xmlns="http://www.w3.org/2000/svg" xmlns:xlink="http://www.w3.org/1999/xlink" width="56" height="56" viewBox="0 0 56 56">
  <defs>
    <clipPath id="clip-path">
      <rect id="Rectangle_843" data-name="Rectangle 843" width="56" height="56" transform="translate(1037 541)" fill="#fff" stroke="#707070" stroke-width="1"/>
    </clipPath>
  </defs>
  <g id="Mask_Group_15" data-name="Mask Group 15" transform="translate(-1037 -541)" clip-path="url(#clip-path)">
    <g id="company" transform="translate(1037 541)">
      <path id="Path_10560" data-name="Path 10560" d="M51.492,23.288,41.124,19.843l-9.318-3.117a1.583,1.583,0,0,0-1.476.2,1.71,1.71,0,0,0-.689,1.345V54.359A1.625,1.625,0,0,0,31.281,56H50.967a1.625,1.625,0,0,0,1.641-1.641V24.83A1.6,1.6,0,0,0,51.492,23.288Z" fill="#c4cad9"/>
      <path id="Path_10561" data-name="Path 10561" d="M52.608,24.83V54.359A1.625,1.625,0,0,1,50.967,56H41.124V19.843l10.368,3.445A1.6,1.6,0,0,1,52.608,24.83Z" fill="#b8bfcc"/>
      <path id="Path_10562" data-name="Path 10562" d="M44.4,56H37.843A1.64,1.64,0,0,1,36.2,54.359V44.516a1.64,1.64,0,0,1,1.641-1.641H44.4a1.64,1.64,0,0,1,1.641,1.641v9.843A1.639,1.639,0,0,1,44.4,56Z" fill="#4db5ff"/>
      <path id="Path_10563" data-name="Path 10563" d="M44.4,42.876H41.124V56H44.4a1.64,1.64,0,0,0,1.641-1.641V44.516A1.639,1.639,0,0,0,44.4,42.876Z" fill="#4d97ff"/>
      <path id="Path_10564" data-name="Path 10564" d="M31.871,9.945,18.157,4.794,5.623.1A1.636,1.636,0,0,0,4.114.3a1.61,1.61,0,0,0-.722,1.345V54.359A1.625,1.625,0,0,0,5.033,56H31.281a1.625,1.625,0,0,0,1.641-1.641V11.488A1.644,1.644,0,0,0,31.871,9.945Z" fill="#e6eeff"/>
      <path id="Path_10565" data-name="Path 10565" d="M32.921,11.488V54.359A1.625,1.625,0,0,1,31.281,56H18.157V4.794L31.872,9.945A1.644,1.644,0,0,1,32.921,11.488Z" fill="#dae2f2"/>
      <path id="Path_10566" data-name="Path 10566" d="M24.719,56H11.595a1.64,1.64,0,0,1-1.641-1.641V44.516a1.64,1.64,0,0,1,1.641-1.641H24.719a1.64,1.64,0,0,1,1.641,1.641v9.843A1.639,1.639,0,0,1,24.719,56Z" fill="#4db5ff"/>
      <path id="Path_10567" data-name="Path 10567" d="M24.719,42.876H18.157V56h6.562a1.64,1.64,0,0,0,1.641-1.641V44.516A1.639,1.639,0,0,0,24.719,42.876Z" fill="#4d97ff"/>
      <path id="Path_10568" data-name="Path 10568" d="M14.876,39.595H11.595a1.641,1.641,0,1,1,0-3.281h3.281a1.641,1.641,0,1,1,0,3.281Z" fill="#4db5ff"/>
      <path id="Path_10569" data-name="Path 10569" d="M24.719,39.595H21.438a1.641,1.641,0,1,1,0-3.281h3.281a1.641,1.641,0,0,1,0,3.281Z" fill="#4d97ff"/>
      <path id="Path_10570" data-name="Path 10570" d="M14.876,33.033H11.595a1.641,1.641,0,1,1,0-3.281h3.281a1.641,1.641,0,1,1,0,3.281Z" fill="#4db5ff"/>
      <path id="Path_10571" data-name="Path 10571" d="M24.719,33.033H21.438a1.641,1.641,0,0,1,0-3.281h3.281a1.641,1.641,0,0,1,0,3.281Z" fill="#4d97ff"/>
      <g id="Group_3312" data-name="Group 3312">
        <path id="Path_10572" data-name="Path 10572" d="M44.4,39.595H37.843a1.641,1.641,0,0,1,0-3.281H44.4a1.641,1.641,0,0,1,0,3.281Z" fill="#4db5ff"/>
        <path id="Path_10573" data-name="Path 10573" d="M44.4,33.033H37.843a1.641,1.641,0,0,1,0-3.281H44.4a1.641,1.641,0,0,1,0,3.281Z" fill="#4db5ff"/>
        <path id="Path_10574" data-name="Path 10574" d="M14.876,26.471H11.595a1.641,1.641,0,1,1,0-3.281h3.281a1.641,1.641,0,1,1,0,3.281Z" fill="#4db5ff"/>
      </g>
      <path id="Path_10575" data-name="Path 10575" d="M24.719,26.471H21.438a1.641,1.641,0,0,1,0-3.281h3.281a1.641,1.641,0,1,1,0,3.281Z" fill="#4d97ff"/>
      <path id="Path_10576" data-name="Path 10576" d="M14.876,19.909H11.595a1.641,1.641,0,1,1,0-3.281h3.281a1.641,1.641,0,1,1,0,3.281Z" fill="#4db5ff"/>
      <path id="Path_10577" data-name="Path 10577" d="M24.719,19.909H21.438a1.641,1.641,0,1,1,0-3.281h3.281a1.641,1.641,0,1,1,0,3.281Z" fill="#4d97ff"/>
      <rect id="Rectangle_844" data-name="Rectangle 844" width="9.843" height="6.562" transform="translate(13.236 46.157)" fill="#2ee6c7"/>
      <rect id="Rectangle_845" data-name="Rectangle 845" width="4.922" height="6.562" transform="translate(18.157 46.157)" fill="#29ccb1"/>
      <path id="Path_10578" data-name="Path 10578" d="M18.157,56a1.64,1.64,0,0,1-1.641-1.641V44.516a1.641,1.641,0,1,1,3.281,0v9.843A1.64,1.64,0,0,1,18.157,56Z" fill="#4db5ff"/>
      <path id="Path_10579" data-name="Path 10579" d="M19.8,54.359V44.516a1.64,1.64,0,0,0-1.641-1.641V56A1.639,1.639,0,0,0,19.8,54.359Z" fill="#4d97ff"/>
      <path id="Path_10580" data-name="Path 10580" d="M54.357,56H1.643A1.641,1.641,0,0,1,0,54.359H0a1.641,1.641,0,0,1,1.641-1.641H54.357A1.641,1.641,0,0,1,56,54.359h0A1.641,1.641,0,0,1,54.357,56Z" fill="#5c5f66"/>
      <path id="Path_10581" data-name="Path 10581" d="M54.357,52.719h-36.2V56h36.2a1.641,1.641,0,1,0,0-3.281Z" fill="#53565c"/>
      <g id="Group_3313" data-name="Group 3313">
        <path id="Path_10582" data-name="Path 10582" d="M44.4,36.314H41.124v3.281H44.4a1.641,1.641,0,0,0,0-3.281Z" fill="#4d97ff"/>
        <path id="Path_10583" data-name="Path 10583" d="M44.4,29.752H41.124v3.281H44.4a1.641,1.641,0,0,0,0-3.281Z" fill="#4d97ff"/>
      </g>
    </g>
  </g>
</svg>
