<svg xmlns="http://www.w3.org/2000/svg" width="15.036" height="16" viewBox="0 0 15.036 16">
  <g id="Group_3368" data-name="Group 3368" transform="translate(0 0)">
    <path id="Path_10400" data-name="Path 10400" d="M11.855,9.791c-.759,1.864-.87,3.714-2.825,5.177L7.186,16.136c-.932.59-1.317,2.412-.39,4.009A3.456,3.456,0,0,0,8.748,21.9a3.459,3.459,0,0,1,1.754.945l1.269,1.534a.779.779,0,0,0,.989.158l1.186-.722a.638.638,0,0,0,.19-.876l-1.346-2.461c1.083-.66,3.764-.016,5.043.226.64.119,1.041-.633.695-1.264L13.24,9.789A.731.731,0,0,0,11.855,9.791Z" transform="translate(-6.264 -8.647)" fill="#37383b"/>
    <path id="Path_10401" data-name="Path 10401" d="M53.217,18.627a.683.683,0,0,0,0,1.175,3.861,3.861,0,0,1,1.822,3.155.683.683,0,1,0,1.364-.037,5.208,5.208,0,0,0-2.473-4.283A.685.685,0,0,0,53.217,18.627Z" transform="translate(-43.995 -15.897)" fill="#37383b"/>
    <path id="Path_10402" data-name="Path 10402" d="M57.124,6.09a.683.683,0,0,0,.1,1.2,5.979,5.979,0,0,1,2.649,2.486,5.977,5.977,0,0,1,.829,3.536.683.683,0,1,0,1.357.151,7.266,7.266,0,0,0-1-4.37,7.261,7.261,0,0,0-3.283-3.054A.685.685,0,0,0,57.124,6.09Z" transform="translate(-47.063 -5.982)" fill="#37383b"/>
  </g>
</svg>
