<svg xmlns="http://www.w3.org/2000/svg" width="16.815" height="16" viewBox="0 0 16.815 16">
  <path id="edit" d="M8.186.75a3.941,3.941,0,1,0,3.941,3.941A3.941,3.941,0,0,0,8.186.75Zm7.2,13.161-2.515,2.515q-.045.045-.093.089h1.294A1.314,1.314,0,0,0,15.389,15.2Zm-7.53,2.6a1.312,1.312,0,0,1-.03-.5l.264-1.953a2.815,2.815,0,0,1,.8-1.614l2.39-2.39A14.19,14.19,0,0,0,1.41,11.345a1.244,1.244,0,0,0-.66,1.1V15.2a1.314,1.314,0,0,0,1.314,1.314H7.859Zm1.564-3.539a2.064,2.064,0,0,0-.586,1.183l-.264,1.953a.563.563,0,0,0,.633.633l1.953-.264a2.065,2.065,0,0,0,1.183-.586l4.618-4.618a2.064,2.064,0,1,0-2.92-2.92Zm.53,1.334a.938.938,0,0,1,.266-.538l4.618-4.618a.938.938,0,0,1,1.327,1.327L11.546,15.1a.938.938,0,0,1-.538.266l-1.22.165Z" transform="translate(-0.75 -0.75)" fill="#02385a" fill-rule="evenodd"/>
</svg>
