<svg xmlns="http://www.w3.org/2000/svg" width="40.23" height="40.23" viewBox="0 0 40.23 40.23">
  <g id="Group_3338" data-name="Group 3338" transform="translate(-46 33)">
    <g id="Group_3369" data-name="Group 3369" transform="translate(46 -33)">
      <path id="Edit" d="M48.23,26.678V41.046a7.193,7.193,0,0,1-7.184,7.184H15.184A7.193,7.193,0,0,1,8,41.046V15.184A7.193,7.193,0,0,1,15.184,8H29.552a1.437,1.437,0,0,1,0,2.874H15.184a4.315,4.315,0,0,0-4.31,4.31V41.046a4.315,4.315,0,0,0,4.31,4.31H41.046a4.315,4.315,0,0,0,4.31-4.31V26.678a1.437,1.437,0,1,1,2.874,0ZM18.479,28.536,38.594,8.421a1.436,1.436,0,0,1,2.032,0L47.809,15.6a1.436,1.436,0,0,1,0,2.032L37.98,27.466,27.694,37.752a1.437,1.437,0,0,1-1.016.421H19.494a1.437,1.437,0,0,1-1.437-1.437V29.552A1.437,1.437,0,0,1,18.479,28.536ZM37.331,13.747,42.483,18.9l2.279-2.279L39.61,11.468ZM20.931,35.3h5.152L40.452,20.931,35.3,15.779,20.931,30.147Z" transform="translate(-8 -8)" fill="#fafafa"/>
    </g>
  </g>
</svg>
