<svg xmlns="http://www.w3.org/2000/svg" width="16" height="16" viewBox="0 0 16 16">
  <g id="Group_3369" data-name="Group 3369" transform="translate(0 -0.004)">
    <path id="Path_10411" data-name="Path 10411" d="M9.8,8.67a.66.66,0,0,0-.653.667V12a.661.661,0,0,1-.654.667H6.535v-10A1.342,1.342,0,0,0,5.645,1.4l-.193-.066H8.5A.661.661,0,0,1,9.149,2V4a.654.654,0,1,0,1.307,0V2A1.983,1.983,0,0,0,8.5,0H1.47A.5.5,0,0,0,1.4.018C1.369.016,1.339,0,1.307,0A1.322,1.322,0,0,0,0,1.337v12A1.342,1.342,0,0,0,.89,14.6l3.933,1.337A1.313,1.313,0,0,0,6.535,14.67V14H8.5a1.983,1.983,0,0,0,1.961-2V9.337A.66.66,0,0,0,9.8,8.67Zm0,0" fill="#37383b"/>
    <path id="Path_10412" data-name="Path 10412" d="M284.329,109.471l-2.614-2.614a.653.653,0,0,0-1.115.462v1.961h-2.614a.653.653,0,1,0,0,1.307H280.6v1.961a.653.653,0,0,0,1.115.462l2.614-2.614A.653.653,0,0,0,284.329,109.471Zm0,0" transform="translate(-268.521 -103.282)" fill="#37383b"/>
  </g>
</svg>
