<svg xmlns="http://www.w3.org/2000/svg" width="17.143" height="16" viewBox="0 0 17.143 16">
  <path id="Path_10407" data-name="Path 10407" d="M16.429,2H2.714A1.716,1.716,0,0,0,1,3.714v9.143a1.716,1.716,0,0,0,1.714,1.714H4.429v2.857a.572.572,0,0,0,.929.446l4.129-3.3h6.942a1.716,1.716,0,0,0,1.714-1.714V3.714A1.716,1.716,0,0,0,16.429,2ZM9.571,10H5A.571.571,0,1,1,5,8.857H9.571a.571.571,0,1,1,0,1.143Zm4.571-2.286H5A.571.571,0,1,1,5,6.571h9.143a.571.571,0,0,1,0,1.143Z" transform="translate(-1 -2)" fill="#37383b"/>
</svg>
