<svg xmlns="http://www.w3.org/2000/svg" width="16" height="16" viewBox="0 0 16 16">
  <path id="Path_10410" data-name="Path 10410" d="M15.645,6.608,13.81,6.157a6.058,6.058,0,0,0-.423-1.008l.855-1.424a.469.469,0,0,0-.07-.573L12.845,1.826a.467.467,0,0,0-.573-.071l-1.426.855a6.039,6.039,0,0,0-1-.42L9.392.355A.469.469,0,0,0,8.938,0H7.063a.468.468,0,0,0-.455.355S6.3,1.636,6.157,2.19a6.018,6.018,0,0,0-1.064.453L3.614,1.756a.47.47,0,0,0-.573.071L1.716,3.152a.469.469,0,0,0-.071.573L2.56,5.252a6.04,6.04,0,0,0-.369.9L.355,6.608A.469.469,0,0,0,0,7.063V8.938a.468.468,0,0,0,.355.455l1.836.451a6.046,6.046,0,0,0,.431,1.025L1.8,12.232a.469.469,0,0,0,.071.573L3.2,14.131a.471.471,0,0,0,.573.071l1.367-.819a6.039,6.039,0,0,0,1.017.428l.451,1.835A.468.468,0,0,0,7.063,16H8.938a.469.469,0,0,0,.455-.355l.451-1.835a5.954,5.954,0,0,0,1.04-.442l1.389.833a.469.469,0,0,0,.573-.071l1.326-1.326a.469.469,0,0,0,.07-.573l-.843-1.4a6,6,0,0,0,.412-.985l1.835-.451A.469.469,0,0,0,16,8.938V7.063A.469.469,0,0,0,15.645,6.608ZM8,11.281A3.281,3.281,0,1,1,11.281,8,3.285,3.285,0,0,1,8,11.281Z" fill="#37383b"/>
</svg>
