<svg id="_3839449_accept_agreement_business_deal_document_icon" data-name="3839449_accept_agreement_business_deal_document_icon" xmlns="http://www.w3.org/2000/svg" width="19.168" height="19.168" viewBox="0 0 19.168 19.168">
  <path id="Path_10348" data-name="Path 10348" d="M19.251,4.875H14.459V3.917A1.917,1.917,0,0,0,12.542,2H3.917A1.917,1.917,0,0,0,2,3.917V16.376a1.917,1.917,0,0,0,1.917,1.917H8.709v.958a1.917,1.917,0,0,0,1.917,1.917h8.626a1.917,1.917,0,0,0,1.917-1.917V6.792A1.917,1.917,0,0,0,19.251,4.875ZM3.917,16.376V3.917h8.626v.958H10.626A1.917,1.917,0,0,0,8.709,6.792H5.834a.958.958,0,0,0,0,1.917H8.709v.958H5.834a.958.958,0,1,0,0,1.917H8.709v.958H5.834a.958.958,0,1,0,0,1.917H8.709v1.917Zm6.709,2.875V6.792h8.626V19.251Z" transform="translate(-2 -2)" fill="#1eaaad"/>
  <path id="Path_10349" data-name="Path 10349" d="M18.179,8.106a.958.958,0,0,0-1.284.422l-2.137,4.265-1.006-1.5a.958.958,0,1,0-1.591,1.054l1.917,2.875a.958.958,0,0,0,.8.441h.058a.958.958,0,0,0,.8-.527L18.6,9.39A.958.958,0,0,0,18.179,8.106Z" transform="translate(-2.414 -2.25)" fill="#1eaaad"/>
</svg>
