<svg id="Group_4" data-name="Group 4" xmlns="http://www.w3.org/2000/svg" xmlns:xlink="http://www.w3.org/1999/xlink" width="46.622" height="47.065" viewBox="0 0 46.622 47.065">
  <defs>
    <clipPath id="clip-path">
      <path id="Path_3" data-name="Path 3" d="M187.4,282.963a4.293,4.293,0,0,0-4.293,4.294v13.671a4.293,4.293,0,1,0,8.587,0V287.257A4.294,4.294,0,0,0,187.4,282.963Zm-5.251,30.551a5.251,5.251,0,1,0,5.251-5.252,5.25,5.25,0,0,0-5.251,5.252Zm13.545,6.253-.047.03c-.07.044-.142.089-.212.13-.022.015-.047.03-.071.043-.078.049-.157.1-.236.141s-.152.087-.228.129-.125.07-.189.1-.122.066-.185.1-.132.068-.2.1c-.039.021-.077.039-.116.058-.238.119-.48.23-.724.334-.042.019-.087.039-.131.056h0c-.071.03-.145.061-.217.089s-.175.069-.263.1l-.157.059-.027.01c-.087.032-.174.064-.261.093l-.152.053c-.094.03-.19.062-.285.091s-.2.061-.3.091l-.119.033-.166.046-.165.045c-.117.029-.235.058-.353.084-.06.016-.119.028-.178.041l-.123.025c-.085.018-.169.035-.254.051a.216.216,0,0,1-.024.006l-.239.043c-.092.018-.182.032-.275.046l-.165.025q-.258.038-.521.065l-.072.009q-.4.043-.812.065l-.259.011c-.089,0-.179.007-.268.008l-.3,0c-.1,0-.206,0-.308,0s-.171,0-.257-.007l-.249-.011c-.126-.007-.249-.015-.373-.024l-.15-.012-.143-.014-.2-.021c-.055,0-.11-.011-.165-.019-.037,0-.073-.008-.11-.014-.184-.022-.365-.05-.547-.079l-.229-.039-.1-.019c-.112-.021-.226-.044-.339-.067s-.21-.045-.314-.069l-.274-.065c-.117-.028-.233-.06-.349-.092-.079-.022-.157-.043-.236-.067-.061-.018-.121-.035-.18-.054l-.15-.047c-.113-.035-.226-.073-.337-.111l-.042-.014c-.111-.039-.223-.078-.333-.12-.166-.062-.33-.126-.493-.2h0c-.1-.042-.2-.084-.3-.128-.073-.032-.148-.065-.222-.1s-.12-.054-.179-.082l-.081-.039-.167-.081c-.082-.04-.164-.082-.246-.125s-.166-.087-.249-.132c-.057-.029-.113-.061-.168-.093-.077-.042-.152-.085-.228-.129s-.159-.092-.237-.141c-.024-.013-.048-.028-.071-.043-.071-.041-.141-.086-.211-.13l-.018-.011-4.591,6.368.017.011a23.388,23.388,0,0,0,2.894,1.633c.125.06.252.118.378.175.087.039.174.078.26.114l.208.091q.49.21.994.4c.051.021.1.039.153.057.126.047.253.092.381.136q.375.129.755.245c.135.042.271.082.407.119s.272.077.408.113.275.073.411.107q.388.1.78.178c.077.017.153.032.231.047l.257.052c.136.025.272.05.408.072.106.018.212.035.319.051l.05.009c.064.011.129.02.194.028.139.02.277.039.415.057.066.009.132.017.2.023l.16.02.174.018c.108.012.216.022.323.03.064.007.126.013.192.017l.191.015a.356.356,0,0,0,.056,0c.068.006.137.011.207.014.018,0,.036,0,.055,0,.049,0,.1.006.148.008.11.007.221.012.331.016.076,0,.153.006.23.007.043,0,.088,0,.132,0l.132,0c.135,0,.27,0,.406,0s.271,0,.406,0q.067,0,.132,0c.045,0,.089,0,.132,0,.077,0,.153,0,.231-.007.11,0,.221-.009.331-.016.05,0,.1,0,.147-.008l.056,0c.069,0,.139-.008.207-.014a.344.344,0,0,0,.055,0l.192-.015c.064,0,.128-.01.192-.017.107-.009.215-.019.322-.03l.174-.018.16-.02q.1-.01.2-.023c.139-.018.278-.037.416-.057.064-.009.129-.018.193-.028l.05-.009c.107-.016.213-.033.32-.051.136-.022.272-.047.408-.072l.257-.052c.076-.015.153-.03.23-.047q.393-.081.78-.178c.138-.033.275-.068.412-.107s.274-.074.408-.113.272-.077.407-.119q.38-.116.755-.245c.128-.044.254-.089.381-.136.051-.018.1-.036.153-.057q.5-.186.994-.4c.068-.03.139-.06.207-.091.086-.036.174-.075.26-.114.127-.057.253-.115.378-.175a23.4,23.4,0,0,0,2.895-1.633.538.538,0,0,0,.046-.031Zm9.374-28.246a3.922,3.922,0,1,0-5.944,5.118,15.447,15.447,0,0,1-2.543,22.518l4.587,6.362a23.289,23.289,0,0,0,3.9-34Zm-33.135,15.2a15.456,15.456,0,0,1,3.743-10.08,3.922,3.922,0,1,0-5.944-5.118,23.289,23.289,0,0,0,3.929,34.019l4.585-6.364A15.447,15.447,0,0,1,171.932,306.718Z" transform="translate(-164.088 -282.963)" fill="#02385a"/>
    </clipPath>
    <linearGradient id="linear-gradient" y1="0.5" x2="1" y2="0.5" gradientUnits="objectBoundingBox">
      <stop offset="0" stop-color="#25b5bb"/>
      <stop offset="1" stop-color="#6b78b8"/>
    </linearGradient>
  </defs>
  <path id="Path_2" data-name="Path 2" d="M187.4,282.963a4.293,4.293,0,0,0-4.293,4.294v13.671a4.293,4.293,0,1,0,8.587,0V287.257A4.294,4.294,0,0,0,187.4,282.963Zm-5.251,30.551a5.251,5.251,0,1,0,5.251-5.252,5.25,5.25,0,0,0-5.251,5.252Zm13.545,6.253-.047.03c-.07.044-.142.089-.212.13-.022.015-.047.03-.071.043-.078.049-.157.1-.236.141s-.152.087-.228.129-.125.07-.189.1-.122.066-.185.1-.132.068-.2.1c-.039.021-.077.039-.116.058-.238.119-.48.23-.724.334-.042.019-.087.039-.131.056h0c-.071.03-.145.061-.217.089s-.175.069-.263.1l-.157.059-.027.01c-.087.032-.174.064-.261.093l-.152.053c-.094.03-.19.062-.285.091s-.2.061-.3.091l-.119.033-.166.046-.165.045c-.117.029-.235.058-.353.084-.06.016-.119.028-.178.041l-.123.025c-.085.018-.169.035-.254.051a.216.216,0,0,1-.024.006l-.239.043c-.092.018-.182.032-.275.046l-.165.025q-.258.038-.521.065l-.072.009q-.4.043-.812.065l-.259.011c-.089,0-.179.007-.268.008l-.3,0c-.1,0-.206,0-.308,0s-.171,0-.257-.007l-.249-.011c-.126-.007-.249-.015-.373-.024l-.15-.012-.143-.014-.2-.021c-.055,0-.11-.011-.165-.019-.037,0-.073-.008-.11-.014-.184-.022-.365-.05-.547-.079l-.229-.039-.1-.019c-.112-.021-.226-.044-.339-.067s-.21-.045-.314-.069l-.274-.065c-.117-.028-.233-.06-.349-.092-.079-.022-.157-.043-.236-.067-.061-.018-.121-.035-.18-.054l-.15-.047c-.113-.035-.226-.073-.337-.111l-.042-.014c-.111-.039-.223-.078-.333-.12-.166-.062-.33-.126-.493-.2h0c-.1-.042-.2-.084-.3-.128-.073-.032-.148-.065-.222-.1s-.12-.054-.179-.082l-.081-.039-.167-.081c-.082-.04-.164-.082-.246-.125s-.166-.087-.249-.132c-.057-.029-.113-.061-.168-.093-.077-.042-.152-.085-.228-.129s-.159-.092-.237-.141c-.024-.013-.048-.028-.071-.043-.071-.041-.141-.086-.211-.13l-.018-.011-4.591,6.368.017.011a23.388,23.388,0,0,0,2.894,1.633c.125.06.252.118.378.175.087.039.174.078.26.114l.208.091q.49.21.994.4c.051.021.1.039.153.057.126.047.253.092.381.136q.375.129.755.245c.135.042.271.082.407.119s.272.077.408.113.275.073.411.107q.388.1.78.178c.077.017.153.032.231.047l.257.052c.136.025.272.05.408.072.106.018.212.035.319.051l.05.009c.064.011.129.02.194.028.139.02.277.039.415.057.066.009.132.017.2.023l.16.02.174.018c.108.012.216.022.323.03.064.007.126.013.192.017l.191.015a.356.356,0,0,0,.056,0c.068.006.137.011.207.014.018,0,.036,0,.055,0,.049,0,.1.006.148.008.11.007.221.012.331.016.076,0,.153.006.23.007.043,0,.088,0,.132,0l.132,0c.135,0,.27,0,.406,0s.271,0,.406,0q.067,0,.132,0c.045,0,.089,0,.132,0,.077,0,.153,0,.231-.007.11,0,.221-.009.331-.016.05,0,.1,0,.147-.008l.056,0c.069,0,.139-.008.207-.014a.344.344,0,0,0,.055,0l.192-.015c.064,0,.128-.01.192-.017.107-.009.215-.019.322-.03l.174-.018.16-.02q.1-.01.2-.023c.139-.018.278-.037.416-.057.064-.009.129-.018.193-.028l.05-.009c.107-.016.213-.033.32-.051.136-.022.272-.047.408-.072l.257-.052c.076-.015.153-.03.23-.047q.393-.081.78-.178c.138-.033.275-.068.412-.107s.274-.074.408-.113.272-.077.407-.119q.38-.116.755-.245c.128-.044.254-.089.381-.136.051-.018.1-.036.153-.057q.5-.186.994-.4c.068-.03.139-.06.207-.091.086-.036.174-.075.26-.114.127-.057.253-.115.378-.175a23.4,23.4,0,0,0,2.895-1.633.538.538,0,0,0,.046-.031Zm9.374-28.246a3.922,3.922,0,1,0-5.944,5.118,15.447,15.447,0,0,1-2.543,22.518l4.587,6.362a23.289,23.289,0,0,0,3.9-34Zm-33.135,15.2a15.456,15.456,0,0,1,3.743-10.08,3.922,3.922,0,1,0-5.944-5.118,23.289,23.289,0,0,0,3.929,34.019l4.585-6.364A15.447,15.447,0,0,1,171.932,306.718Z" transform="translate(-164.088 -282.963)" fill="#02385a"/>
  <g id="Group_3" data-name="Group 3" clip-path="url(#clip-path)">
    <rect id="Rectangle_2" data-name="Rectangle 2" width="47.191" height="52.967" transform="translate(-0.285 -4.424)" fill="url(#linear-gradient)"/>
  </g>
</svg>
