<svg xmlns="http://www.w3.org/2000/svg" width="32.344" height="32.344" viewBox="0 0 32.344 32.344">
  <path id="_014-snapchat" data-name="014-snapchat" d="M16.172,0A16.172,16.172,0,1,0,32.344,16.172,16.174,16.174,0,0,0,16.172,0Zm9.685,21.393c-.116.271-.64.657-2.472.94-.15.023-.208.218-.3.627-.033.149-.065.3-.111.449a.245.245,0,0,1-.262.2h-.023a2.3,2.3,0,0,1-.41-.052,5.488,5.488,0,0,0-1.1-.116,4.888,4.888,0,0,0-.794.067,3.806,3.806,0,0,0-1.51.77,4.264,4.264,0,0,1-2.614,1.032c-.05,0-.1,0-.149,0-.032,0-.064,0-.1,0a4.261,4.261,0,0,1-2.612-1.031,3.816,3.816,0,0,0-1.512-.771,4.881,4.881,0,0,0-.794-.067,5.44,5.44,0,0,0-1.1.124,2.408,2.408,0,0,1-.41.059.258.258,0,0,1-.285-.2c-.046-.156-.078-.306-.111-.452-.082-.375-.14-.605-.3-.629-1.831-.283-2.356-.669-2.472-.942a.352.352,0,0,1-.028-.117.206.206,0,0,1,.172-.215C9.384,20.6,10.646,17.72,10.7,17.6l0-.01a1.074,1.074,0,0,0,.1-.9c-.193-.455-.823-.655-1.24-.787-.1-.033-.2-.063-.275-.093-.832-.329-.9-.667-.869-.838a.786.786,0,0,1,.765-.5.535.535,0,0,1,.228.046,2.429,2.429,0,0,0,1,.264.827.827,0,0,0,.6-.191c-.011-.191-.023-.39-.036-.6a9.843,9.843,0,0,1,.233-3.928A5.093,5.093,0,0,1,15.94,7.015l.346,0h.047a5.1,5.1,0,0,1,4.737,3.051,9.854,9.854,0,0,1,.233,3.929l0,.058c-.012.185-.023.365-.032.537a.8.8,0,0,0,.546.19h0a2.517,2.517,0,0,0,.946-.263.707.707,0,0,1,.293-.058.9.9,0,0,1,.338.064l.006,0a.621.621,0,0,1,.472.505c0,.195-.145.488-.875.777-.076.03-.172.06-.275.093-.418.132-1.047.333-1.24.787a1.072,1.072,0,0,0,.1.9l0,.01c.052.122,1.313,3,4.13,3.463a.206.206,0,0,1,.172.215.345.345,0,0,1-.029.118Zm0,0" fill="#fff" opacity="0.88"/>
</svg>
