<svg xmlns="http://www.w3.org/2000/svg" xmlns:xlink="http://www.w3.org/1999/xlink" width="16.799" height="16.799" viewBox="0 0 16.799 16.799">
  <defs>
    <clipPath id="clip-path">
      <rect width="16.799" height="16.799" fill="none"/>
    </clipPath>
  </defs>
  <g id="Repeat_Grid_21" data-name="Repeat Grid 21" clip-path="url(#clip-path)">
    <g id="Group_3369" data-name="Group 3369">
      <path id="Path_10507" data-name="Path 10507" d="M8.4,16.8A8.4,8.4,0,1,0,0,8.4,8.4,8.4,0,0,0,8.4,16.8Zm0-15.455A7.055,7.055,0,1,1,1.344,8.4,7.064,7.064,0,0,1,8.4,1.344Z" fill="#1eaaad"/>
      <path id="Path_10508" data-name="Path 10508" d="M97.949,77.639a.84.84,0,0,0,.84-.84V70.416a.84.84,0,1,0-1.68,0V76.8A.84.84,0,0,0,97.949,77.639Z" transform="translate(-91.11 -65.278)" fill="#1eaaad"/>
      <path id="Path_10509" data-name="Path 10509" d="M152.34,77.639a.84.84,0,0,0,.84-.84V70.416a.84.84,0,1,0-1.68,0V76.8A.84.84,0,0,0,152.34,77.639Z" transform="translate(-142.142 -65.278)" fill="#1eaaad"/>
    </g>
  </g>
</svg>
