<svg xmlns="http://www.w3.org/2000/svg" width="32.344" height="32.344" viewBox="0 0 32.344 32.344">
  <path id="_013-twitter" data-name="013-twitter" d="M16.172,0A16.172,16.172,0,1,0,32.344,16.172,16.174,16.174,0,0,0,16.172,0Zm7.384,12.609q.011.239.011.48A10.489,10.489,0,0,1,13.005,23.65h0a10.507,10.507,0,0,1-5.69-1.667,7.55,7.55,0,0,0,.885.051,7.448,7.448,0,0,0,4.61-1.589,3.716,3.716,0,0,1-3.468-2.578A3.7,3.7,0,0,0,11.02,17.8a3.713,3.713,0,0,1-2.978-3.639c0-.017,0-.032,0-.047a3.686,3.686,0,0,0,1.681.464A3.715,3.715,0,0,1,8.575,9.626,10.539,10.539,0,0,0,16.226,13.5a3.714,3.714,0,0,1,6.325-3.385,7.445,7.445,0,0,0,2.357-.9,3.726,3.726,0,0,1-1.632,2.053,7.4,7.4,0,0,0,2.132-.585,7.543,7.543,0,0,1-1.851,1.922Zm0,0" fill="#fff" opacity="0.88"/>
</svg>
