<svg xmlns="http://www.w3.org/2000/svg" width="22" height="19.336" viewBox="0 0 22 19.336">
  <path id="portfolio" d="M21.36,2.578H15.512V1.934A1.936,1.936,0,0,0,13.578,0H8.422A1.936,1.936,0,0,0,6.489,1.934v.645H.645A.646.646,0,0,0,0,3.223V17.4a1.936,1.936,0,0,0,1.934,1.934H20.067A1.936,1.936,0,0,0,22,17.4V3.234a.626.626,0,0,0-.641-.655ZM7.778,1.934a.645.645,0,0,1,.645-.645h5.156a.645.645,0,0,1,.645.645v.645H7.778ZM20.461,3.867l-2,6a.643.643,0,0,1-.611.441H14.223V9.668a.644.644,0,0,0-.645-.645H8.422a.644.644,0,0,0-.645.645v.645H4.152a.643.643,0,0,1-.611-.441l-2-6Zm-7.528,6.445V11.6H9.067V10.312Zm7.777,7.09a.645.645,0,0,1-.645.645H1.934a.645.645,0,0,1-.645-.645V7.194l1.028,3.085A1.931,1.931,0,0,0,4.152,11.6H7.778v.645a.644.644,0,0,0,.645.645h5.156a.644.644,0,0,0,.645-.645V11.6h3.626a1.931,1.931,0,0,0,1.834-1.322l1.028-3.085Zm0,0" transform="translate(0)" fill="#fafafa"/>
</svg>
