<svg xmlns="http://www.w3.org/2000/svg" width="40.849" height="45.879" viewBox="0 0 40.849 45.879">
  <g id="Layer_2" data-name="Layer 2" transform="translate(-4.956 -3)">
    <path id="Path_10645" data-name="Path 10645" d="M42.118,34.348,41.082,31.73a5.136,5.136,0,0,1-.374-1.9V27.362a1.7,1.7,0,1,0-3.4,0v2.463a8.522,8.522,0,0,0,.612,3.157l1.043,2.627a1.7,1.7,0,0,1-1.57,2.321H10.043A1.7,1.7,0,0,1,8.478,35.6l1.038-2.615a8.537,8.537,0,0,0,.612-3.158V20.94A13.566,13.566,0,0,1,22.068,7.456a1.7,1.7,0,1,0-.4-3.374A16.964,16.964,0,0,0,6.73,20.94v8.885a5.151,5.151,0,0,1-.374,1.906L5.325,34.338a5.087,5.087,0,0,0,4.718,6.989h5.352a8.495,8.495,0,0,0,16.649,0H37.4a5.088,5.088,0,0,0,4.723-6.979Zm-18.4,10.377a5.1,5.1,0,0,1-4.784-3.4H28.5A5.1,5.1,0,0,1,23.719,44.725Z" transform="translate(0 0.748)" fill="#37383b"/>
    <path id="Path_10646" data-name="Path 10646" d="M27.193,3A10.193,10.193,0,1,0,37.387,13.193,10.193,10.193,0,0,0,27.193,3Zm0,3.4a6.706,6.706,0,0,1,3.43.963l-9.262,9.262a6.706,6.706,0,0,1-.963-3.43,6.8,6.8,0,0,1,6.8-6.8Zm0,13.591a6.706,6.706,0,0,1-3.43-.963l9.262-9.262a6.706,6.706,0,0,1,.963,3.43,6.8,6.8,0,0,1-6.8,6.8Z" transform="translate(8.418)" fill="#1eaaad"/>
  </g>
</svg>
